<?xml version="1.0" encoding="UTF-8"?>
<svg width="186px" height="152px" viewBox="0 0 186 152" version="1.1" xmlns="http://www.w3.org/2000/svg" xmlns:xlink="http://www.w3.org/1999/xlink">
    <!-- Generator: Sketch 52.6 (67491) - http://www.bohemiancoding.com/sketch -->
    <title>all-image-6@2x</title>
    <desc>Created with Sketch.</desc>
    <defs>
        <linearGradient x1="6.34947587%" y1="50%" x2="136.396362%" y2="50%" id="linearGradient-1">
            <stop stop-color="#1A97E2" offset="0%"></stop>
            <stop stop-color="#00C9EF" offset="100%"></stop>
        </linearGradient>
        <rect id="path-2" x="-8.52651283e-14" y="-5.68434189e-14" width="185.423729" height="152"></rect>
    </defs>
    <g id="Page-1" stroke="none" stroke-width="1" fill="none" fill-rule="evenodd">
        <g id="wed-dev-exercise" transform="translate(-775.000000, -1770.000000)">
            <g id="=Section-All" transform="translate(208.000000, 1319.000000)">
                <g id="group-6" transform="translate(567.000000, 451.000000)">
                    <g id="all-image-6">
                        <mask id="mask-3" fill="white">
                            <use xlink:href="#path-2"></use>
                        </mask>
                        <use id="Rectangle" fill="url(#linearGradient-1)" fill-rule="nonzero" xlink:href="#path-2"></use>
                        <g id="teamwork_white_9" mask="url(#mask-3)">
                            <g transform="translate(-33.000000, 23.000000)">
                                <path d="M199,143.49627 C198.998648,154.214667 205.454214,163.878414 215.356334,167.981103 C225.258453,172.083793 236.656957,169.817424 244.236486,162.238851 C251.816016,154.660277 254.083823,143.262059 249.982382,133.359422 C245.880941,123.456785 236.21801,117 225.499613,117 C210.86635,117.001845 199.003691,128.863008 199,143.49627" id="Path" fill="#00B98F" fill-rule="evenodd"></path>
                                <path d="M231.949131,147 L252,141.036533 C251.120573,132.41721 246.240793,124.764735 238.898297,120.490435 C231.555802,116.216135 222.654788,115.846371 215,119.497656 L231.949131,147" id="Path" fill="#04A87D" fill-rule="evenodd"></path>
                                <ellipse id="Oval" fill="#00B98F" fill-rule="evenodd" transform="translate(76.937671, 103.173303) rotate(-67.500000) translate(-76.937671, -103.173303) " cx="76.9376711" cy="103.173303" rx="33.7064094" ry="33.6551718"></ellipse>
                                <path d="M49.0960014,85 C42.0091538,96.5059136 42.3379491,111.203032 49.9319913,122.368663 C57.5260334,133.534294 70.9250021,139.021309 84,136.31986 L49.0960014,85 Z" id="Path" fill="#04A87D" fill-rule="evenodd"></path>
                                <polygon id="Rectangle" fill="#303D72" fill-rule="evenodd" transform="translate(72.240198, 136.341679) rotate(-82.710000) translate(-72.240198, -136.341679) " points="27.3143261 136.18629 117.166161 136.161985 117.166071 136.497068 27.3142353 136.521373"></polygon>
                                <polygon id="Rectangle" fill="#303D72" fill-rule="evenodd" transform="translate(86.339938, 109.597859) rotate(-36.380000) translate(-86.339938, -109.597859) " points="71.6880584 109.445147 100.992162 109.415031 100.991817 109.75057 71.6877138 109.780686"></polygon>
                                <polygon id="Rectangle" fill="#303D72" fill-rule="evenodd" transform="translate(66.108745, 101.848221) rotate(-69.700000) translate(-66.108745, -101.848221) " points="65.9484071 91.121588 66.2841136 91.1213531 66.269083 112.574853 65.9333765 112.575088"></polygon>
                                <path d="M52.9194294,151.921191 C40.8129193,164.026728 21.1852578,164.026202 9.07939619,151.920017 C-3.0264654,139.813831 -3.0264654,120.186169 9.07939619,108.079983 C21.1852578,95.9737975 40.8129193,95.9732717 52.9194294,108.078809 C58.733596,113.892508 62,121.777857 62,130 C62,138.222143 58.733596,146.107492 52.9194294,151.921191" id="Path" fill="#00C99C" fill-rule="evenodd"></path>
                                <polyline id="Path" fill="#303D72" fill-rule="evenodd" points="38.668594 180 28 108.046667 28.331406 108 39 179.95 38.668594 180"></polyline>
                                <polyline id="Path" fill="#303D72" fill-rule="evenodd" points="32.2464303 138 32 137.783198 44.7503693 121 45 121.220243 32.2464303 138"></polyline>
                                <path d="M136,90 L158.449561,107.156626 L138.913302,140.281626 L144.151869,143 C144.151869,143 168.3689,113.609031 170.109489,108.892535 C171.850077,104.17604 173.056393,101.451027 170.647122,98.712738 C168.237852,95.9744489 136,90 136,90 Z" id="Path" fill="#19192B" fill-rule="evenodd"></path>
                                <path d="M187.442696,86 L171.808791,86 L170.502973,80.7776457 L165.429871,80.7776457 C164.640175,80.7776457 164,80.1558485 164,79.3888228 C164,78.6217972 164.640175,78 165.429871,78 L172.765303,78 L174.07112,83.2223543 L185.131398,83.2223543 L186.241343,78 L190.570129,78 C191.359825,78 192,78.6217972 192,79.3888228 C192,80.1558485 191.359825,80.7776457 190.570129,80.7776457 L188.555905,80.7776457 L187.442696,86 Z" id="Path" fill="#A9C2DC" fill-rule="evenodd"></path>
                                <path d="M188.602491,75 C188.602491,75 189.290044,75.247528 190.883591,76.980224 C192.477138,78.7129201 192.147686,80.3303291 191.241691,81.7646352 C190.196038,83.4430785 187.474474,82.924287 187.474474,82.924287 L187.861223,81.2288897 C187.861223,81.2288897 188.401955,79.8725718 187.187994,79.1130338 C185.974033,78.3534958 185,77.756716 185,77.756716 L188.602491,75 Z" id="Path" fill="#FBAD83" fill-rule="evenodd"></path>
                                <path d="M162.430441,37 L169.476549,59.4646953 L189,74.0773263 C188.750045,75.2286072 188.087178,76.2495556 187.135647,76.9488041 L185.598314,78 C185.598314,78 167.865047,67.6526048 164.35885,64.6199214 C160.852652,61.5872379 155,44.4692005 155,44.4692005 L162.430441,37 Z" id="Path" fill="#E2E2E2" fill-rule="evenodd"></path>
                                <path d="M133.451959,86 L117.799907,86 L116.510261,80.7776457 L111.430037,80.7776457 C110.64025,80.7776457 110,80.1558485 110,79.3888228 C110,78.6217972 110.64025,78 111.430037,78 L118.759795,78 L120.065765,83.2223543 L131.127332,83.2223543 L132.240672,78 L136.569963,78 C137.35975,78 138,78.6217972 138,79.3888228 C138,80.1558485 137.35975,80.7776457 136.569963,80.7776457 L134.562034,80.7776457 L133.451959,86 Z" id="Path" fill="#A9C2DC" fill-rule="evenodd"></path>
                                <path d="M129,75.9130201 C129,75.9130201 131.783769,76.6310054 132.811729,77.4279691 C133.839688,78.2249328 132.518519,82.2025716 133.846587,82.7231109 C135.174656,83.2436503 137.089144,83.0067151 137.641068,82.2097514 C138.192993,81.4127877 138.034314,77.7977316 137.661765,75.9848186 C137.289216,74.1719056 130.045207,72 130.045207,72 L129,75.9130201 Z" id="Path" fill="#FBAD83" fill-rule="evenodd"></path>
                                <path d="M84.3924626,80 C84.3924626,80 103.713488,92.2373963 104.949077,98.8000589 C106.184666,105.362722 84.5253217,148 84.5253217,148 L78.1082303,144.818811 L92.8655475,106.340779 C92.8655475,106.340779 78.0318364,95.8725639 72.1694315,90.5516666 C66.3070266,85.2307692 84.3924626,80 84.3924626,80 Z" id="Path" fill="#0CBFD1" fill-rule="evenodd"></path>
                                <path d="M101.73375,38.0071827 C101.73375,38.0071827 96.7393606,38.7189378 94.317534,42.107293 C91.8957074,45.4956481 104.12208,67.8374064 104.12208,67.8374064 L129.244762,77 C129.244762,77 130.397056,75.9373797 130.691828,74.6107752 C130.874667,73.7476247 130.977823,72.8695742 131,71.9876402 L110.677425,62.7080916 C110.677425,62.7080916 104.185724,40.9878659 103.375098,39.5242569 C102.423786,37.8066883 101.73375,38.0071827 101.73375,38.0071827 Z" id="Path" fill="#F89900" fill-rule="evenodd"></path>
                                <path d="M30.3363375,129.063253 C25.619807,132.579735 22.6163411,137.970489 22.0846472,143.873753 C21.5529533,149.777018 23.5438782,155.628254 27.5544932,159.949378 L28.0648315,160 C24.0150933,155.799017 21.9498515,150.036824 22.3968921,144.185986 C22.8439328,138.335148 25.7599413,132.962563 30.3997128,129.44123 L30.3430086,129.063253 M40.8866654,125.067496 C37.1997952,125.362142 33.6614079,126.665136 30.6498787,128.837142 L30.7032474,129.215119 C33.6054758,127.080614 37.021111,125.774043 40.5931375,125.431974 L40.8866654,125.067496 M42.5210823,125 C42.1241525,125 41.7338938,125 41.343635,125.033748 L41.0534426,125.391476 C41.5404322,125.354353 42.0274217,125.33748 42.5210823,125.33748 C50.4022503,125.340111 57.5632506,129.977081 60.8665782,137.216758 C60.9132758,137.051393 60.9566379,136.879279 61,136.717289 C57.5679777,129.553561 50.3927705,125.003016 42.5244179,125" id="Shape" fill="#07B496" fill-rule="nonzero"></path>
                                <path d="M42,125 L41.3911111,125.084746 L41,126 C41.2,125.957627 41.4088889,125.923729 41.6133333,125.898305 L42,125" id="Path" fill="#303D72" fill-rule="evenodd"></path>
                                <path d="M204.626067,126 C197.231416,127.160197 191.046229,132.238512 188.466697,139.267563 C185.887166,146.296614 187.318554,154.172085 192.20633,159.842955 C197.094106,165.513824 204.670364,168.089156 212,166.571245 L211.557564,166.319771 C204.32183,167.88076 196.810648,165.374427 191.960598,159.78065 C187.110548,154.186873 185.691999,146.394153 188.259547,139.449139 C190.827095,132.504124 196.972918,127.509943 204.29424,126.419124 C204.401497,126.288358 204.508755,126.157591 204.629419,126.030177" id="Path" fill="#E0E2EA" fill-rule="evenodd"></path>
                                <path d="M223.963068,158.775212 C220.98756,162.368434 216.871207,164.829573 212.302026,165.747267 L212.746,166 C217.051378,165.045677 220.940057,162.738773 223.845348,159.415469 L223.949615,158.775212 M228.823238,148.399689 L228.46335,148.568178 C227.973061,152.096112 226.564844,155.432688 224.380135,158.242789 L224.269141,158.916743 C226.74824,155.911113 228.327179,152.263605 228.823238,148.39632 M227.521587,138.960963 L227.521587,139.0014 C228.27911,141.167205 228.664641,143.44601 228.661792,145.740941 C228.662375,146.550645 228.615205,147.359676 228.520528,148.163805 L228.877053,147.995317 C229.168712,145.319104 228.940277,142.611628 228.204365,140.02244 L227.531677,138.960963 M208.316351,125.013483 C207.319129,125.013427 206.323205,125.085503 205.336344,125.229148 C205.22535,125.3572 205.11772,125.488621 205,125.620042 C211.484161,124.548952 218.085309,126.682767 222.721959,131.348651 L221.99882,130.202929 C218.224037,126.84811 213.352203,124.996901 208.30626,125.000004" id="Shape" fill="#07A78B" fill-rule="nonzero"></path>
                                <polygon id="Rectangle" fill="#A9C2DC" fill-rule="evenodd" transform="translate(189.890595, 106.661370) rotate(-24.420000) translate(-189.890595, -106.661370) " points="188.334849 82.3567811 191.485682 82.3542275 191.446341 130.965959 188.295508 130.968513"></polygon>
                                <polygon id="Rectangle" fill="#A9C2DC" fill-rule="evenodd" transform="translate(138.153216, 108.427093) rotate(-21.030000) translate(-138.153216, -108.427093) " points="136.6828 83.8263609 139.659062 83.8242145 139.623633 133.027826 136.647371 133.029972"></polygon>
                                <polygon id="Rectangle" fill="#A9C2DC" fill-rule="evenodd" transform="translate(77.340698, 112.605835) rotate(-20.040000) translate(-77.340698, -112.605835) " points="75.8665227 92.4928851 78.842712 92.4908221 78.8148731 132.718786 75.8386839 132.720849"></polygon>
                                <path d="M43.0105316,113.000001 C29.2581036,112.995942 16.8575712,121.277081 11.591932,133.981503 C6.32629273,146.685924 9.23266838,161.311362 18.9556685,171.037233 C28.6786686,180.763103 43.3032484,183.673796 56.0092242,178.411907 C68.7152,173.150019 76.9999994,160.751932 77,146.999504 C77.0000008,128.226016 61.7840199,113.005543 43.0105316,113.000001 Z M43.0105316,175.817461 C27.0952485,175.815614 14.1946874,162.912557 14.1959189,146.997274 C14.1971505,131.081992 27.0997084,118.180932 43.0149916,118.181547 C58.9302748,118.182163 71.8318345,131.084221 71.8318346,146.999504 C71.8318347,154.643081 68.7952065,161.973548 63.3900675,167.37806 C57.9849286,172.782571 50.6541088,175.818348 43.0105316,175.817461 Z" id="Shape" fill="#A9C2DC" fill-rule="nonzero"></path>
                                <polygon id="Path" fill="#F08E97" fill-rule="evenodd" points="90 147 41 147 72.5859413 100 74.3789119 101.168774 45.0004815 144.881597 90 144.881597"></polygon>
                                <rect id="Rectangle" fill="#FF9398" fill-rule="evenodd" x="73" y="99" width="114" height="4"></rect>
                                <polygon id="Rectangle" fill="#FF9398" fill-rule="evenodd" transform="translate(144.379324, 124.719134) rotate(-20.980000) translate(-144.379324, -124.719134) " points="142.462569 98.5341825 146.333716 98.531396 146.296078 150.904085 142.424932 150.906872"></polygon>
                                <path d="M208.003842,113 C194.252022,112.998647 181.853543,121.281502 176.590012,133.986138 C171.326481,146.690775 174.234508,161.315116 183.958035,171.039599 C193.681561,180.764083 208.305616,183.673549 221.010771,178.411268 C233.715925,173.148987 242,160.751323 242,146.999503 C241.998153,128.224167 226.779177,113.003694 208.003842,113 Z M208.003842,175.81746 C192.088123,175.81746 179.185884,162.915221 179.185884,146.999503 C179.185884,131.083785 192.088123,118.181546 208.003842,118.181546 C223.91956,118.181546 236.821799,131.083785 236.821799,146.999503 C236.819952,162.914456 223.918795,175.815613 208.003842,175.81746 Z" id="Shape" fill="#A9C2DC" fill-rule="nonzero"></path>
                                <polygon id="Path" fill="#FF9398" fill-rule="evenodd" points="155.053805 148 87.6637859 148 70 99.3574812 73.7602453 98 90.4672428 144.01094 153.170337 144.01094 186.915528 103.259823 190 105.798012"></polygon>
                                <polygon id="Rectangle" fill="#FF9398" fill-rule="evenodd" transform="translate(195.137957, 118.288457) rotate(-24.420000) translate(-195.137957, -118.288457) " points="193.160183 87.3782281 197.165764 87.3749818 197.11573 149.198685 193.110149 149.201931"></polygon>
                                <path d="M64.819994,89.002931 C63.0357315,88.9280617 61.4591229,90.2949537 61.0746516,92.250077 C60.9566676,92.8475277 60.9788399,93.4690718 61.1390045,94.054047 C61.8372342,96.4388953 67.371589,96.4641509 70.1999017,95.0354067 C73.0282145,93.6066624 77.0084453,95.2482751 78.9068577,94.1262058 C80.8052701,93.0041365 80.5382053,91.9109306 75.6345095,90.3955959 C72.3364201,89.367333 67.5807361,89.0786978 64.819994,89.002931 Z" id="Path" fill="#19192B" fill-rule="evenodd"></path>
                                <path d="M128.819255,89.002931 C127.035338,88.9280617 125.459034,90.2949537 125.074637,92.250077 C124.956676,92.8475277 124.978844,93.4690718 125.138978,94.054047 C125.837072,96.4388953 131.370357,96.4641509 134.198122,95.0354067 C137.025888,93.6066624 141.005349,95.2482751 142.906611,94.1262058 C144.807874,93.0041365 144.534426,91.9109306 139.631679,90.3955959 C136.334228,89.367333 131.579463,89.0786978 128.819255,89.002931 Z" id="Path" fill="#19192B" fill-rule="evenodd"></path>
                                <path d="M91.4648098,36.1039017 C91.4648098,36.1039017 86.9034784,35.1926969 82.4978351,38.7671659 C68.8072158,49.8222247 62,79.3023816 62,79.3023816 C62,79.3023816 66.5812065,78.3643766 77.6052523,79.8316844 C88.8379864,81.3257924 89.6263647,80.9606404 89.6263647,80.9606404 C89.6263647,80.9606404 103.134796,44.1037443 102.998983,40.5594254 C102.86317,37.0151066 99.6169062,36.4221534 99.6169062,36.4221534 L91.4648098,36.1039017 Z" id="Path" fill="#F9C200" fill-rule="evenodd"></path>
                                <path d="M62,79.6835271 C62,79.6835271 66.1612071,78.838477 76.0830539,80 L88,56.3924649 L84.120454,38 C83.6426184,38.2951063 83.1845018,38.6212522 82.7490328,38.9763527 C68.8906371,50.0865731 62,79.6835271 62,79.6835271 Z" id="Path" fill="#EDB607" fill-rule="evenodd"></path>
                                <path d="M112,74.690972 C112,74.690972 113.176006,75.1219845 113.424896,76.1208388 C113.673786,77.1196932 112.180445,79.1755543 112.342224,80.2667685 C112.504002,81.3579826 113.586674,82.445776 115.764463,81.8129402 C117.942251,81.1801044 119.280035,78.3579989 118.950256,76.3602902 C118.620476,74.3625815 113.991121,71 113.991121,71 L112,74.690972 Z" id="Path" fill="#FBAD83" fill-rule="evenodd"></path>
                                <path d="M87.6798759,37.0074522 C87.6798759,37.0074522 82.7183284,37.7190803 80.3124271,41.1034905 C77.9065258,44.4879007 90.1856072,68.0484737 90.1856072,68.0484737 L111.692302,76 C111.692302,76 114.411003,73.6613158 114.707166,72.3249248 L115,70.9885338 L94.8210436,61.7173214 C94.8210436,61.7173214 90.1157262,40.0009679 89.3071038,38.5275969 C88.3653748,36.8036525 87.6798759,37.0074522 87.6798759,37.0074522 Z" id="Path" fill="#F9C200" fill-rule="evenodd"></path>
                                <path d="M97.0160329,123 L95,130.03439 L98.2122124,136.325145 L102.630684,138 C103.204913,136.656685 103.10515,135.121342 102.36188,133.863109 L100.386168,130.513399 L101.565547,123.398615 L97.0160329,123 Z" id="Path" fill="#303D72" fill-rule="evenodd"></path>
                                <path d="M62.2420448,79.5134765 C62.2420448,79.5134765 62.1284444,79.5538611 62.0048205,82.9798215 C61.817714,88.1692429 67.0834263,92.0259724 76.7661891,93.5101065 C86.4489519,94.9942407 100.565471,96.6702017 100.565471,96.6702017 L95.4968891,123.091828 L101.487639,125 C101.487639,125 113.258645,101.011546 110.612424,94.0048179 C103.335316,74.7884781 62.2420448,79.5134765 62.2420448,79.5134765 Z" id="Path" fill="#60D6E6" fill-rule="evenodd"></path>
                                <path d="M149.433203,33 L146.263656,34.1100676 C141.814342,35.6691302 138.082228,38.8085236 135.766627,42.9399971 C132.148117,49.3912104 127.651783,60.9710033 126,80.1829324 C126,80.1829324 143.315241,89.2355503 155.527712,84.7547912 C155.527712,84.7547912 156.623317,52.3097771 161.4681,43.8847354 C166.312883,35.4596938 158.117627,33.1214664 158.117627,33.1214664 L149.433203,33 Z" id="Path" fill="#F0F1F4" fill-rule="evenodd"></path>
                                <path d="M145,56.5756649 L137.506573,40 C136.835174,40.8360453 136.233636,41.7269037 135.708151,42.6634057 C132.111306,49.0932437 127.641893,60.6346683 126,79.782941 C129.543547,81.5452884 133.247546,82.9575455 137.060298,84 L145,56.5756649 Z" id="Path" fill="#E2E2E2" fill-rule="evenodd"></path>
                                <path d="M149,33 C149,33 150.847935,36.8526229 154.154766,36.9962207 C157.461598,37.1398185 158,33.1435978 158,33.1435978 L149,33 Z" id="Path" fill="#FFFFFF" fill-rule="evenodd"></path>
                                <path d="M150,22 L150,33.5350778 C150,33.5350778 151.877524,35.1814575 155.178331,34.9834752 C158.233513,34.7993863 158.7214,33.6601193 158.7214,33.6601193 L160,27.689388 L150,22" id="Path" fill="#FBAD83" fill-rule="evenodd"></path>
                                <path d="M158.035217,31.98588 C156.92927,31.4609533 155.897266,30.7470488 154.973478,29.867877 C153.58762,28.6236421 152.552497,26.9290434 152,25 L158.056522,26.3343419 L159,26.9450328 L158.050435,32" id="Path" fill="#E68D5C" fill-rule="evenodd"></path>
                                <rect id="Rectangle" fill="#1A2249" fill-rule="evenodd" x="161" y="15.8321033" width="6" height="1"></rect>
                                <path d="M165.151335,7.54663478 C165.151335,7.54663478 166,9.96549368 166,12.080287 C166,13.7885207 165.406528,17 165.406528,17 L162,7 L165.151335,7.54663478 Z" id="Path" fill="#1A2249" fill-rule="evenodd"></path>
                                <path d="M164.621626,26.4169266 C161.532228,33.007734 153.864935,29.1112818 150.581385,25.7882437 C147.297836,22.4652055 147.754263,9.76719283 148.663711,7.35954461 C149.573159,4.95189639 157.158703,3.00367029 161.17458,4.55465171 C165.190456,6.10563313 167.711023,19.8226648 164.621626,26.4169266" id="Path" fill="#FBAD83" fill-rule="evenodd"></path>
                                <path d="M165.996785,22 C165.850195,23.5598419 165.464798,25.0849864 164.855305,26.5172124 C163.723473,29.0025189 161.938907,29.9563392 160,30 C161.92926,29.9563392 163.726688,28.9924433 164.858521,26.5138539 C165.468035,25.083987 165.853448,23.5610477 166,22.0033585" id="Path" fill="#DCDDE3" fill-rule="evenodd"></path>
                                <path d="M151.313891,17.006701 L148,17.006701 C148.202226,20.6654639 148.887183,24.357732 150.407137,25.9157216 C152.302187,27.8590206 155.717191,30 158.783193,30 L158.916922,30 C160.873945,29.9564433 162.693975,28.9948454 163.842095,26.5255155 C164.460358,25.0967039 164.851301,23.5751954 165,22.0190722 C164.461819,21.6337629 163.94647,21.4695876 162.830967,21.4695876 C162.628741,21.4695876 162.410207,21.4695876 162.178626,21.4695876 C159.539908,21.5868557 157.452417,23.5435567 155.883538,23.5435567 C155.725953,23.5444842 155.568997,23.5230621 155.417114,23.4798969 C153.53185,22.9136598 151.339985,17 151.339985,17" id="Path" fill="#D8987A" fill-rule="evenodd"></path>
                                <path d="M150.024539,17.8676714 C151.12891,17.7676594 152.144919,17.2299658 152.840178,16.3775758 C153.535437,15.5251858 153.850469,14.4310188 153.713216,13.3453409 C153.538843,11.9757398 153.129735,11.5390553 153.491896,10.2422349 C154.209511,7.65851865 157.34824,7.90001838 159.467553,8.86270906 C161.586866,9.82539974 163.893966,9.82539974 165.718184,8.46572321 C167.061254,7.43198997 167.396929,5.56494462 166.49616,4.13857747 C165.315783,2.2562029 161.130811,0 161.130811,0 C161.130811,0 161.637166,1.12810145 161.466145,1.71365558 C161.295125,2.2992097 150.141906,-0.989156405 147.851573,3.89046131 C145.56124,8.77007903 148.616135,18 148.616135,18 L150.024539,17.8676714 Z" id="Path" fill="#1A2249" fill-rule="evenodd"></path>
                                <path d="M148,17.9373626 C148,19.5593407 150.245879,21 151.626373,21 C153.006868,21 153,19.5593407 153,17.9373626 C153,16.3153846 151.873626,15 150.5,15 C149.126374,15 148,16.3153846 148,17.9373626 Z" id="Path" fill="#FBAD83" fill-rule="evenodd"></path>
                                <path d="M149.012308,18.1784653 C148.913121,18.9501938 149.43438,19.855221 149.822686,19.9885196 C150.210992,20.1218181 149.387952,19.0659531 149.49347,18.2942246 C149.598988,17.522496 150.263751,17.154171 149.883886,17.0208724 C149.504022,16.8875738 149.111495,17.4067367 149.012308,18.1784653 Z" id="Path" fill="#E68D5C" fill-rule="evenodd"></path>
                                <path d="M165.00148,20 C163.897113,20 163,18.6540448 163,17.0017212 C163,15.3493976 163.888231,14 165.00148,14 C166.11473,14 167,15.3459552 167,17.0017212 C167,18.6574871 166.102887,20 165.00148,20 Z M165.00148,14.3442341 C164.059956,14.3442341 163.296077,15.535284 163.296077,17.0017212 C163.296077,18.4681583 164.059956,19.6557659 165.00148,19.6557659 C165.943005,19.6557659 166.703923,18.464716 166.703923,17.0017212 C166.703923,15.5387263 165.940044,14.3442341 165.00148,14.3442341 Z" id="Shape" fill="#1A2249" fill-rule="nonzero"></path>
                                <path d="M160.00148,20 C158.897113,20 158,18.6540448 158,17.0017212 C158,15.3493976 158.888231,14 160.00148,14 C161.11473,14 162,15.3459552 162,17.0017212 C162,18.6574871 161.088083,20 160.00148,20 Z M160.00148,14.3442341 C159.062916,14.3442341 158.296077,15.535284 158.296077,17.0017212 C158.296077,18.4681583 159.062916,19.6557659 160.00148,19.6557659 C160.940044,19.6557659 161.703923,18.464716 161.703923,17.0017212 C161.703923,15.5387263 160.925241,14.3442341 160.00148,14.3442341 Z" id="Shape" fill="#1A2249" fill-rule="nonzero"></path>
                                <rect id="Rectangle" fill="#1A2249" fill-rule="evenodd" x="152" y="15.8321033" width="5" height="1"></rect>
                                <rect id="Rectangle" fill="#1A2249" fill-rule="evenodd" x="162" y="15.8321033" width="1" height="1"></rect>
                                <path d="M164,23 L159,23 C159,23 160.012945,24.9437046 161.699029,24.998907 C163.385113,25.0541093 164,23 164,23 Z" id="Path" fill="#FFFFFF" fill-rule="evenodd"></path>
                                <path d="M165.996769,23 L158,23 C158,23 158.121521,21.1928827 159.502137,20.4868633 C160.882752,19.7808438 162.374762,20.6661117 162.847345,20.6368467 C163.319927,20.6075816 164.606026,19.7003649 165.34528,20.1027594 C166.084534,20.5051539 165.996769,23 165.996769,23 Z" id="Path" fill="#1A2249" fill-rule="evenodd"></path>
                                <path d="M92,36 C92,36 94.2466646,40.1276855 97.1944382,39.9969591 C100.142212,39.8662328 99.998874,36.3725702 99.998874,36.3725702 L92,36 Z" id="Path" fill="#FFFFFF" fill-rule="evenodd"></path>
                                <polygon id="Path" fill="#1A2249" fill-rule="evenodd" points="98 32.3979505 108 34 108 18"></polygon>
                                <path d="M91.3741497,24 L91,36.3555619 C92.5369923,37.5194147 94.4404344,38.0977893 96.3673469,37.986469 C98.707483,37.8304986 99.744898,36.742097 99.744898,36.742097 L101,30.1133584 L91.3741497,24 Z" id="Path" fill="#FBAD83" fill-rule="evenodd"></path>
                                <path d="M91,26.1817311 C91.0926696,26.4069287 91.2013055,26.6252996 91.3250883,26.8351964 C93.0353357,29.6668796 96.4840989,33.826573 100.113074,35 L101,30.3238582 L91,24 L91,26.1817311 Z" id="Path" fill="#E68D5C" fill-rule="evenodd"></path>
                                <path d="M108.553549,28.6774575 C105.301868,35.6408698 97.1043788,30.0397205 93.6445898,26.5282561 C90.1848008,23.0167918 90.7863619,11.093684 91.7423562,8.55431993 C92.6983505,6.01495588 100.690983,3.95172259 104.908414,5.57850268 C109.125845,7.20528278 111.808482,21.7173516 108.553549,28.6774575 Z" id="Path" fill="#FBAD83" fill-rule="evenodd"></path>
                                <path d="M96.7628699,35 L88.2848045,32.1032728 C88.2848045,32.1032728 87.040686,12.4399247 89.7529981,7.50975574 C92.4653101,2.57958681 99.6357134,0.923832406 104.264369,2.68075307 C111,5.23688717 110.903012,14.2575451 111,15.0533863 C109.437593,14.7651145 107.837306,14.753703 106.271012,15.0196642 C104.533207,15.3408577 102.757009,15.3931652 101.003575,15.1747858 L97.6993032,14.773493 L96.7628699,35 Z" id="Path" fill="#1A2249" fill-rule="evenodd"></path>
                                <path d="M92,22.4470267 C92,23.8140807 93.8013696,25 94.9041092,25 C96.0068488,25 95.9999995,23.8004101 95.9999995,22.4470267 C95.9999995,21.0936432 95.106164,20 93.9999997,20 C92.8938355,20 92,21.0970608 92,22.4470267 Z" id="Path" fill="#FBAD83" fill-rule="evenodd"></path>
                                <path d="M98,26 C98,27.1045695 97.1045695,28 96,28 C94.8954305,28 94,27.1045695 94,26 C94,24.8954305 94.8954305,24 96,24 C97.1045695,24 98,24.8954305 98,26 Z" id="Path" fill="#FFFFFF" fill-rule="evenodd"></path>
                                <path d="M109.001686,24 C107.3457,24 106,22.2862286 106,20.180018 L106,20 L106.168634,20 L112,20 L112,20.180018 C112,22.2754275 110.6543,24 109.001686,24 Z M106.340641,20.3456346 C106.404722,22.1746175 107.575042,23.639964 109.001686,23.639964 C110.428331,23.639964 111.595278,22.1746175 111.659359,20.3456346 L106.340641,20.3456346 Z" id="Shape" fill="#1A2249" fill-rule="nonzero"></path>
                                <path d="M103.010084,24 C101.348302,24 100,22.2800718 100,20.1795332 L100,20 L100.168538,20 L106,20 L105.999943,20.1795332 C106.010056,22.2800718 104.665124,24 103.010084,24 Z M100.337075,20.3447038 C100.404491,22.1687612 101.570772,23.6301616 102.996601,23.6301616 C104.42243,23.6301616 105.588711,22.1687612 105.656126,20.3447038 L100.337075,20.3447038 Z" id="Shape" fill="#1A2249" fill-rule="nonzero"></path>
                                <rect id="Rectangle" fill="#1A2249" fill-rule="evenodd" x="96" y="19.8321033" width="11" height="1"></rect>
                                <path d="M167.796314,74 C167.796314,74 170.087365,74.5006429 170.747161,76.2323189 C171.406957,77.9639949 170.660956,80.4226318 169.82212,81.3759108 C168.983284,82.3291899 166.609344,81.9657094 165.90313,81.7393913 C165.196916,81.5130733 167.487967,79.1744535 166.917691,78.4303472 C166.347415,77.6862409 165.816926,77.6862409 165.816926,77.6862409 L164.543752,77.6862409 L164,76.4209173 L167.796314,74 Z" id="Path" fill="#FBAD83" fill-rule="evenodd"></path>
                                <path d="M144.661383,40.3761795 C143.361257,37.4484376 139.049961,37.1205034 137.618475,39.9840109 C137.59153,40.0347223 136.365505,41.8400505 136.338559,41.890762 C133.751781,47.1444698 146.83724,63.1591507 146.83724,63.1591507 L164.503452,77 C164.503452,77 167.120544,75.8201132 167.925544,74.83293 C168.313137,74.3768985 168.671987,73.8970235 169,73.3961052 L152.613704,59.5653981 L144.661383,40.3761795 Z" id="Path" fill="#F0F1F4" fill-rule="evenodd"></path>
                                <path d="M127.134549,81 C127.134549,81 126.052452,84.4773393 130.025726,90.6020081 C133.999,96.7266769 167.212355,100.05341 167.212355,100.05341 L162.039729,127.396876 L168.016391,129 C168.016391,129 178.673208,103.785107 177.966327,96.6563938 C177.450404,91.4989541 162.914117,86.4686933 154.920667,84.0723748 C151.773533,83.1364982 148.533903,82.5451021 145.258843,82.3086041 L127.134549,81 Z" id="Path" fill="#303D72" fill-rule="evenodd"></path>
                                <path d="M163.151142,127 L162,131.86661 L165.509238,136.835174 L171.83354,139 C172.279875,137.71737 171.807266,136.301492 170.671934,135.519966 L168.428952,133.990654 L168.080121,128.440952 L163.151142,127 Z" id="Path" fill="#303D72" fill-rule="evenodd"></path>
                                <path d="M71.7631231,79 C66.1405202,79.0713527 62.2482125,79.5096623 62.2482125,79.5096623 C62.2482125,79.5096623 62.1317174,79.5504353 62.0049433,83.0093438 C61.813069,88.2486728 67.2129606,92.1424931 77.1424567,93.6409004 C80.1816089,94.0995965 83.6524784,94.5752814 87,95 L71.7631231,79 Z" id="Path" fill="#50CAD3" fill-rule="evenodd"></path>
                                <path d="M141.571888,85.4499179 L153,83.5155993 C150.455664,82.8879043 147.860597,82.4780467 145.244014,82.2906404 L127.13444,81 C127.13444,81 126.053221,84.4121511 130.023268,90.4220033 C130.635847,91.3481117 131.941343,92.2085386 133.705437,93 L141.571888,85.4499179 Z" id="Path" fill="#27345E" fill-rule="evenodd"></path>
                            </g>
                        </g>
                    </g>
                </g>
            </g>
        </g>
    </g>
</svg>