<?xml version="1.0" encoding="UTF-8"?>
<svg width="186px" height="152px" viewBox="0 0 186 152" version="1.1" xmlns="http://www.w3.org/2000/svg" xmlns:xlink="http://www.w3.org/1999/xlink">
    <!-- Generator: Sketch 52.6 (67491) - http://www.bohemiancoding.com/sketch -->
    <title>all-image-1@2x</title>
    <desc>Created with Sketch.</desc>
    <defs>
        <radialGradient cx="13.2682435%" cy="91.5245867%" fx="13.2682435%" fy="91.5245867%" r="215.853901%" gradientTransform="translate(0.132682,0.915246),scale(0.819744,1.000000),rotate(-11.091336),translate(-0.132682,-0.915246)" id="radialGradient-1">
            <stop stop-color="#F76449" offset="0%"></stop>
            <stop stop-color="#FBA26C" offset="87.8093389%"></stop>
            <stop stop-color="#FFBC93" offset="100%"></stop>
        </radialGradient>
        <rect id="path-2" x="-8.52651283e-14" y="-4.26325641e-14" width="185.423729" height="152"></rect>
    </defs>
    <g id="Page-1" stroke="none" stroke-width="1" fill="none" fill-rule="evenodd">
        <g id="wed-dev-exercise" transform="translate(-208.000000, -1390.000000)">
            <g id="=Section-All" transform="translate(208.000000, 1319.000000)">
                <g id="group-1" transform="translate(0.000000, 71.000000)">
                    <g id="all-image-1">
                        <mask id="mask-3" fill="white">
                            <use xlink:href="#path-2"></use>
                        </mask>
                        <use id="Rectangle" fill="url(#radialGradient-1)" fill-rule="nonzero" xlink:href="#path-2"></use>
                        <g id="teamwork_white_9" mask="url(#mask-3)">
                            <g transform="translate(-198.000000, 13.000000)">
                                <path d="M302.73,114.72 C302.73,114.72 287.82,116.85 280.59,126.99 C273.36,137.13 309.86,203.99 309.86,203.99 L384.86,231.41 C384.86,231.41 388.3,228.23 389.18,224.26 C389.725838,221.676934 390.033793,219.049278 390.1,216.41 L329.43,188.64 C329.43,188.64 310.05,123.64 307.63,119.26 C304.79,114.12 302.73,114.72 302.73,114.72 Z" id="Path" fill="#F89900" fill-rule="evenodd"></path>
                                <path d="M273.77,110.05 C273.77,110.05 260,107.33 246.7,118 C205.37,151 184.82,239 184.82,239 C184.82,239 198.65,236.2 231.93,240.58 C265.84,245.04 268.22,243.95 268.22,243.95 C268.22,243.95 309,133.93 308.59,123.35 C308.18,112.77 298.38,111 298.38,111 L273.77,110.05 Z" id="Path" fill="#F9C200" fill-rule="evenodd"></path>
                                <path d="M184.82,238.91 C184.82,238.91 197.23,236.4 226.82,239.85 L262.36,169.73 L250.79,115.1 C249.364947,115.976536 247.998703,116.945267 246.7,118 C205.37,151 184.82,238.91 184.82,238.91 Z" id="Path" fill="#EDB607" fill-rule="evenodd"></path>
                                <path d="M262.84,111.39 C262.84,111.39 247.93,113.52 240.7,123.65 C233.47,133.78 270.37,204.3 270.37,204.3 L335,228.1 C335,228.1 343.17,221.1 344.06,217.1 L344.94,213.1 L284.3,185.35 C284.3,185.35 270.16,120.35 267.73,115.94 C264.9,110.78 262.84,111.39 262.84,111.39 Z" id="Path" fill="#F9C200" fill-rule="evenodd"></path>
                                <path d="M446.28,100.83 L436.82,104.12 C423.540336,108.740724 412.401267,118.045207 405.49,130.29 C394.69,149.41 381.27,183.73 376.34,240.67 C376.34,240.67 428.02,267.5 464.47,254.22 C464.47,254.22 467.74,158.06 482.2,133.09 C496.66,108.12 472.2,101.19 472.2,101.19 L446.28,100.83 Z" id="Path" fill="#F0F1F4" fill-rule="evenodd"></path>
                                <path d="M433.39,171.66 L410.89,122.37 C408.874036,124.856095 407.067839,127.505184 405.49,130.29 C394.69,149.41 381.27,183.73 376.34,240.67 C386.979966,245.91058 398.101712,250.110119 409.55,253.21 L433.39,171.66 Z" id="Path" fill="#E2E2E2" fill-rule="evenodd"></path>
                                <path d="M272.67,109.84 C272.67,109.84 279.88,122.47 289.34,122.07 C298.8,121.67 298.34,110.98 298.34,110.98 L272.67,109.84 Z" id="Path" fill="#FFFFFF" fill-rule="evenodd"></path>
                                <polygon id="Path" fill="#1A2249" fill-rule="evenodd" points="292.87 98.31 322.9 103 322.9 56.16"></polygon>
                                <path d="M273.77,73.4 L272.67,109.84 C277.188757,113.272527 282.784877,114.978315 288.45,114.65 C295.33,114.19 298.38,110.98 298.38,110.98 L302.07,91.43 L273.77,73.4 Z" id="Path" fill="#FBAD83" fill-rule="evenodd"></path>
                                <path d="M273.77,79.64 C274.032255,80.2809944 274.339695,80.9025575 274.69,81.5 C279.53,89.56 289.29,101.4 299.56,104.74 L302.07,91.43 L273.77,73.43 L273.77,79.64 Z" id="Path" fill="#E68D5C" fill-rule="evenodd"></path>
                                <path d="M324.35,88.26 C314.35,109.32 289.14,92.38 278.5,81.76 C267.86,71.14 269.71,35.08 272.65,27.4 C275.59,19.72 300.17,13.48 313.14,18.4 C326.11,23.32 334.36,67.21 324.35,88.26 Z" id="Path" fill="#FBAD83" fill-rule="evenodd"></path>
                                <path d="M287.7,106.9 L262.35,98.31 C262.35,98.31 258.63,40 266.74,25.38 C274.85,10.76 296.29,5.85 310.13,11.06 C330.27,18.64 329.98,45.39 330.27,47.75 C325.598297,46.8951544 320.813326,46.8613144 316.13,47.65 C310.933844,48.602472 305.622888,48.7575857 300.38,48.11 L290.5,46.92 L287.7,106.9 Z" id="Path" fill="#1A2249" fill-rule="evenodd"></path>
                                <path d="M275,68.25 C275,72.25 280.26,75.72 283.48,75.72 C286.7,75.72 286.68,72.21 286.68,68.25 C286.68,64.29 284.07,61.09 280.84,61.09 C277.61,61.09 275,64.3 275,68.25 Z" id="Path" fill="#FBAD83" fill-rule="evenodd"></path>
                                <path d="M290,78.49 C290,81.6214545 287.461455,84.16 284.33,84.16 C281.198545,84.16 278.66,81.6214545 278.66,78.49 C278.66,75.3585455 281.198545,72.82 284.33,72.82 C287.461455,72.82 290,75.3585455 290,78.49 Z" id="Path" fill="#FFFFFF" fill-rule="evenodd"></path>
                                <path d="M326.64,74 C321.73,74 317.74,69.24 317.74,63.39 L317.74,62.89 L318.24,62.89 L335.53,62.89 L335.53,63.39 C335.53,69.21 331.54,74 326.64,74 Z M318.75,63.85 C318.94,68.93 322.41,73 326.64,73 C330.87,73 334.33,68.93 334.52,63.85 L318.75,63.85 Z" id="Shape" fill="#1A2249" fill-rule="nonzero"></path>
                                <path d="M305.93,74 C301,74 297,69.21 297,63.36 L297,62.86 L297.5,62.86 L314.800168,62.86 L314.8,63.36 C314.83,69.21 310.84,74 305.93,74 Z M298,63.82 C298.2,68.9 301.66,72.97 305.89,72.97 C310.12,72.97 313.58,68.9 313.78,63.82 L298,63.82 Z" id="Shape" fill="#1A2249" fill-rule="nonzero"></path>
                                <rect id="Rectangle" fill="#1A2249" fill-rule="evenodd" x="285.25" y="62.82" width="33.85" height="1"></rect>
                            </g>
                        </g>
                    </g>
                </g>
            </g>
        </g>
    </g>
</svg>