<?xml version="1.0" encoding="UTF-8"?>
<svg width="186px" height="152px" viewBox="0 0 186 152" version="1.1" xmlns="http://www.w3.org/2000/svg" xmlns:xlink="http://www.w3.org/1999/xlink">
    <!-- Generator: Sketch 52.6 (67491) - http://www.bohemiancoding.com/sketch -->
    <title>all-image-2@2x</title>
    <desc>Created with Sketch.</desc>
    <defs>
        <linearGradient x1="-17.3546143%" y1="71.5073444%" x2="100%" y2="0%" id="linearGradient-1">
            <stop stop-color="#006CAC" offset="0%"></stop>
            <stop stop-color="#2BB8D3" offset="100%"></stop>
        </linearGradient>
        <rect id="path-2" x="-8.52651283e-14" y="-5.68434189e-14" width="185.423729" height="152"></rect>
    </defs>
    <g id="Page-1" stroke="none" stroke-width="1" fill="none" fill-rule="evenodd">
        <g id="wed-dev-exercise" transform="translate(-208.000000, -1580.000000)">
            <g id="=Section-All" transform="translate(208.000000, 1319.000000)">
                <g id="group-2" transform="translate(0.000000, 261.000000)">
                    <g id="all-image-2">
                        <mask id="mask-3" fill="white">
                            <use xlink:href="#path-2"></use>
                        </mask>
                        <use id="Rectangle" fill="url(#linearGradient-1)" fill-rule="nonzero" xlink:href="#path-2"></use>
                        <g id="teamwork_white_14" mask="url(#mask-3)">
                            <g transform="translate(-265.000000, -2.000000)">
                                <path d="M429,71.1900167 L424.579851,89.0669345 C420.29957,91.3583096 415.192192,91.626663 410.686892,89.7969026 L403,86.7091377 L406.393246,67 L429,71.1900167 Z" id="Path" fill="#FBAD83" fill-rule="evenodd"></path>
                                <path d="M406.892386,67 L404,84 C407.257051,82.9266047 410.355012,81.429498 413.21225,79.5481295 C414.289295,78.8471917 415.325005,78.0861125 416.314334,77.2686003 C418.216078,75.6893653 419.763505,72.9810845 421,69.6225305 L406.892386,67 Z" id="Path" fill="#E68D5C" fill-rule="evenodd"></path>
                                <ellipse id="Oval" fill="#19192B" fill-rule="evenodd" cx="430" cy="55" rx="7" ry="11"></ellipse>
                                <ellipse id="Oval" fill="#19192B" fill-rule="evenodd" cx="433" cy="55" rx="7" ry="11"></ellipse>
                                <ellipse id="Oval" fill="#19192B" fill-rule="evenodd" cx="436" cy="55" rx="4" ry="6"></ellipse>
                                <path d="M434,55.0035821 C434,51.6865672 435.789573,49 438.003791,49 C440.218009,49 442,51.6865672 442,55.0035821 C442,58.320597 440.210427,61 438.003791,61 C435.797156,61 434,58.2847761 434,55.0035821 Z" id="Path" fill="#19192B" fill-rule="evenodd"></path>
                                <path d="M389.496235,59 C386.4846,59 384,55.8616852 384,51.9962904 C384,48.1308956 386.469541,45 389.496235,45 C392.52293,45 395,48.1383148 395,51.9962904 C395,55.854266 392.530459,59 389.496235,59 Z M389.496235,45.7419184 C386.883641,45.7419184 384.752909,48.5537891 384.752909,51.9962904 C384.752909,55.4387917 386.883641,58.2580816 389.496235,58.2580816 C392.10883,58.2580816 394.247091,55.4462109 394.247091,51.9962904 C394.247091,48.5463699 392.116359,45.7419184 389.496235,45.7419184 Z" id="Shape" fill="#313154" fill-rule="nonzero"></path>
                                <path d="M393.00921,70.4376519 C398.470418,84.8060771 414.353554,80.3318586 423.862828,74.126154 C424.957846,73.4107508 426.011956,72.6359741 427.020319,71.8053805 C435.609577,64.6539061 437.081601,34.7021053 435.374054,28.8819837 C433.666506,23.0618622 415.744617,16.877983 405.771656,19.7080171 C395.798695,22.5380512 386.885591,54.30864 393.00921,70.4376519 Z" id="Path" fill="#FBAD83" fill-rule="evenodd"></path>
                                <path d="M421.299622,72.9991071 C427.012346,73.0665877 432.061244,69.3029624 433.618969,63.8158357 C437.076003,51.5544137 441.448565,30.9139876 433.618969,25.342608 C422.259096,17.2999341 412.569146,14.9968047 402.578903,18.7622384 C392.58866,22.5276721 392.105261,31.9229776 393.67997,34.9572592 C395.254678,37.9915407 398.68974,35.7542151 399.810346,40.250801 C400.366987,42.4442575 399.246381,46.9993356 397.964641,51.0279841 C397.32303,53.0732299 397.545876,55.2913293 398.581576,57.1686444 C399.617276,59.0459595 401.376,60.419664 403.450486,60.9716538 C402.604488,63.7738026 403.129138,66.8100297 404.866666,69.1673012 C406.604194,71.5245726 409.351896,72.9278829 412.283501,72.955238 L421.299622,72.9991071 Z" id="Path" fill="#1A2249" fill-rule="evenodd"></path>
                                <path d="M405.902934,58.4477256 C405.42365,62.2823052 401.673965,65.2453893 399.559481,64.9839407 C397.444997,64.7224921 397.938377,61.3018729 398.41766,57.4672934 C398.896943,53.6327139 400.947992,50.7422543 403.013139,51.0182278 C405.078285,51.2942013 406.375168,54.6131461 405.902934,58.4477256 Z" id="Path" fill="#CFDCE3" fill-rule="evenodd"></path>
                                <path d="M308.529723,163 L181.152424,163 C178.683557,163 176.682146,160.994278 176.682146,158.520094 L169,61.4799059 C169.004028,59.0073962 171.003082,57.0040368 173.470277,57 L300.862209,57 C303.331075,57 305.332487,59.0057222 305.332487,61.4799059 L313,158.520094 C312.995972,160.992604 310.996918,162.995963 308.529723,163" id="Path" fill="#313154" fill-rule="evenodd"></path>
                                <path d="M312.529723,163 L185.137791,163 C182.668925,163 180.667513,160.994278 180.667513,158.520094 L173,61.4799059 C173.004028,59.0073962 175.003082,57.0040368 177.470277,57 L304.862209,57 C307.329405,57.0040368 309.328458,59.0073962 309.332487,61.4799059 L317,158.520094 C316.995972,160.992604 314.996918,162.995963 312.529723,163" id="Path" fill="#A9C2DC" fill-rule="evenodd"></path>
                                <path d="M218.227375,44.0364437 L160.268652,44.0364437 C159.135271,44.036442 158.048417,44.4866745 157.247681,45.2878898 C156.446944,46.089105 155.998069,47.1755206 156.000006,48.3076421 L163.296837,140.736084 C163.296835,141.868207 163.747567,142.953855 164.549673,143.753703 C165.351778,144.553551 166.4394,145.001929 167.572779,144.999994 L176.08818,144.999994 L169.469955,61.4710966 C169.473972,59.0132065 171.467698,57.0216927 173.928318,57.0176798 L214.870833,57.0176798 L218.205484,44.0364437 M249.997774,44.0364437 L242.482039,44.0364437 L239.147387,57.0176798 L246.685013,57.0176798 L250.019664,44.0364437 M282.008968,44.0364437 L274.281625,44.0364437 L270.946973,57.0176798 L287,57.0176798 L286.306801,48.2711984 C286.308739,47.1390769 285.859863,46.0526614 285.059126,45.2514461 C284.25839,44.4502308 283.171536,43.9999983 282.038155,44" id="Shape" fill="#FFA9AD" fill-rule="nonzero"></path>
                                <path d="M246.886642,57.0291608 L239.31773,57.0291608 L238.585019,59.9452407 C240.224362,60.241472 241.794407,60.8371591 243.215756,61.7021788 C243.962855,62.3182034 244.614642,63.0403999 245.150115,63.8454975 L246.908623,57.0072902 M287.361633,57.0072902 L271.241977,57.0072902 L255.180937,119.345787 L255.312825,119.484301 C259.540572,124.288543 263.614448,145 263.614448,145 L188.70201,145 C188.70201,145 191.728109,125.316461 197.01096,121.25582 C197.542366,120.85639 198.100521,120.493468 198.681543,120.16958 L214.962396,57 L177.476868,57 C175.006035,57.0040137 173.004034,58.9959279 173,61.454312 L179.645695,145 L289.713637,145 C292.08093,145 294,143.090599 294,140.735233 L287.339651,57.0291608" id="Shape" fill="#EE9CA6" fill-rule="nonzero"></path>
                                <path d="M345.573496,153 L276.568421,153 C275.926816,153 275.31149,152.746383 274.857807,152.294942 C274.404125,151.843501 274.149248,151.231216 274.149248,150.592782 L270,98.4072178 C270,97.768784 270.254876,97.1564987 270.708559,96.7050578 C271.162242,96.2536169 271.777568,96 272.419173,96 L341.424248,96 C342.065853,96 342.681179,96.2536169 343.134862,96.7050578 C343.588545,97.1564987 343.843421,97.768784 343.843421,98.4072178 L348,150.600077 C347.991937,151.927874 346.907912,153.000024 345.573496,153 Z" id="Path" fill="#F0F1F4" fill-rule="evenodd"></path>
                                <rect id="Rectangle" fill="#313154" fill-rule="evenodd" x="385" y="50" width="22" height="1"></rect>
                                <path d="M425.39187,86 C425.39187,86 416.978504,88.1845509 411.08769,87.645695 C405.196875,87.1068391 403.571069,86.4514738 403.571069,86.4514738 C403.571069,86.4514738 384.236366,89.0510894 376.595805,94.6508214 C368.955244,100.250553 362.167684,158.221251 362.568668,168.76535 C362.969651,179.309449 362,211 362,211 L443.151801,211 C443.151801,211 449.560249,105.995922 443.151801,97.4033555 C436.743353,88.8107888 425.39187,86 425.39187,86 Z" id="Path" fill="#F9C200" fill-rule="evenodd"></path>
                                <path d="M404.826087,211 L409,174.85409 L371.318841,110 L369.144928,115.264746 C365.086957,134.821601 362.304348,161.83077 362.565217,168.707025 C362.963768,179.265685 362,211 362,211 L404.826087,211 Z" id="Path" fill="#EDB607" fill-rule="evenodd"></path>
                                <path d="M374.753827,96 L331.360131,161.686671 L276.878156,164.272125 C276.878156,164.272125 272.652305,171.734683 276.878156,178 L345.158228,178 L366.800147,148.318703 C374.784515,137.367907 378.283292,123.765958 376.577461,110.308133 L374.753827,96 Z" id="Path" fill="#F9C200" fill-rule="evenodd"></path>
                                <path d="M453.389454,110 L376.09893,110 L366.429392,213.434692 L362.774993,224.589342 L345,236 L420.967632,236 L421.281911,235.890282 L425.089794,235.890282 C436.457865,235.890283 445.674638,226.66956 445.678674,215.292581 L457,113.62069 C456.980271,111.632117 455.376426,110.023766 453.389454,110 Z" id="Path" fill="#A9C2DC" fill-rule="evenodd"></path>
                                <path d="M372.763176,113.811042 L361.434405,214.153386 C361.434405,222.229391 354.885582,228.776287 346.8072,228.776287 L329.61292,228.776287 C327.617559,228.776287 326,230.39337 326,232.388144 C326,234.382917 327.617559,236 329.61292,236 L348.065139,236 C359.440686,236.000001 368.66352,226.783154 368.667558,215.410956 L379.996329,113.781796 C380.056193,112.451311 379.380269,111.195463 378.23664,110.512341 C377.093012,109.82922 375.666493,109.82922 374.522864,110.512341 C373.379236,111.195463 372.703312,112.451311 372.763176,113.781796 L372.763176,113.811042 Z" id="Path" fill="#303D72" fill-rule="evenodd"></path>
                                <path d="M429.175878,17.487931 C425.804742,13.9832243 421.132704,12 416.247525,12 C411.362347,12 406.690309,13.9832243 403.319173,17.487931 C402.876974,17.9537372 402.46021,18.4426409 402.070664,18.9525498 C399.421192,22.3147934 397.987686,26.4616902 398.00008,30.728085 L398,47 L402.262742,47 L402.262742,30.6987926 C402.249275,26.8804205 403.729535,23.2055363 406.392427,20.446461 C407.729578,19.0634905 409.342193,17.971205 411.127898,17.2389458 C412.767249,16.5662457 414.524985,16.2227478 416.299239,16.2283588 C420.033174,16.2349393 423.600895,17.7596814 426.169112,20.446461 C426.620312,20.9042345 427.037567,21.3937142 427.417622,21.9110798 C429.431238,23.0253139 431.38201,24.247647 433.261237,25.5726268 C433.52202,25.7678528 433.768864,25.9807309 434,26.209736 C433.207045,22.9274047 431.541229,19.9156817 429.175878,17.487931 Z" id="Path" fill="#19192B" fill-rule="evenodd"></path>
                                <path d="M410,55.0035772 C410,61.0777236 406.856699,66 402.981893,66 C399.107087,66 396,61.0491057 396,55.0035772 C396,48.9580488 399.143301,44 403.018107,44 C406.892913,44 410,48.900813 410,55.0035772 Z" id="Path" fill="#19192B" fill-rule="evenodd"></path>
                                <path d="M408,55.0035772 C408,61.0777236 404.870418,66 400.996386,66 C397.122354,66 394,61.0777236 394,55.0035772 C394,48.9294309 397.129582,44 400.996386,44 C404.863191,44 408,48.900813 408,55.0035772 Z" id="Path" fill="#60D6E6" fill-rule="evenodd"></path>
                                <path d="M401,55.0178678 C401,58.3198332 399.210427,61 397.003791,61 C394.797156,61 393,58.3198332 393,55.0178678 C393,51.7159023 394.766825,49 397.041706,49 C399.316588,49 401,51.6801668 401,55.0178678 Z" id="Path" fill="#19192B" fill-rule="evenodd"></path>
                                <ellipse id="Oval" fill="#60D6E6" fill-rule="evenodd" cx="395" cy="55" rx="4" ry="6"></ellipse>
                                <path d="M392.591486,73.9999924 L389.591971,73.9999924 C388.39483,74.0024109 387.275457,73.4303697 386.608276,72.4752128 C385.941095,71.5200558 385.81419,70.3078865 386.270009,69.2441674 L386.270009,69.1721094 L393.86628,54.6019911 C394.044437,54.2557366 394.401297,54.0271165 394.802434,54.0022497 C395.20357,53.9773829 395.588041,54.1600474 395.811021,54.4814351 C396.034,54.8028228 396.061611,55.2141074 395.883454,55.5603619 L388.384667,70.0944512 C388.2287,70.4829073 388.278661,70.9199424 388.518666,71.2665996 C388.75867,71.6132567 389.158852,71.8263978 389.591971,71.8382537 L392.591486,71.8382537 C393.212706,71.8382537 393.716304,72.3221754 393.716304,72.919123 C393.716304,73.5160707 393.212706,73.9999924 392.591486,73.9999924 Z" id="Path" fill="#19192B" fill-rule="evenodd"></path>
                                <polyline id="Path" fill="#FFB5B9" fill-rule="evenodd" points="274 44 249.38429 44 246 57 270.623116 57 274 44"></polyline>
                                <path d="M271,57 L246.756357,57 L245.005914,63.7994856 C246.085354,65.3725009 246.851173,67.228224 246.501084,68.2213259 C246.319125,68.8981558 245.650484,69.327607 244.954859,69.2144277 C244.830968,69.2213855 244.706781,69.2213855 244.58289,69.2144277 C247.587818,75.3687595 249.228859,85.5244943 248.229647,93.918742 C248.229647,93.918742 248.229647,107.843914 246.581313,110.35204 C245.465405,112.070034 242.577173,112.867415 240.082791,112.867415 C239.052684,112.894734 238.027084,112.722384 237.063276,112.359991 C236.153211,111.93861 235.304395,111.397325 234.53972,110.750731 L234,113.200865 C234,113.200865 250.592746,114.324448 255.005322,119 L270.992706,57.0362446" id="Path" fill="#F1ABB3" fill-rule="evenodd"></path>
                                <polygon id="Path" fill="#00C99C" fill-rule="evenodd" points="331 106 276.506676 106 276 102 330.493324 102"></polygon>
                                <polygon id="Path" fill="#00C99C" fill-rule="evenodd" points="332 122 277.506676 122 277 118 331.493324 118"></polygon>
                                <polygon id="Path" fill="#00C99C" fill-rule="evenodd" points="339 114 276.573519 114 276 110 338.419221 110"></polygon>
                            </g>
                        </g>
                    </g>
                </g>
            </g>
        </g>
    </g>
</svg>