<?xml version="1.0" encoding="UTF-8"?>
<svg width="186px" height="152px" viewBox="0 0 186 152" version="1.1" xmlns="http://www.w3.org/2000/svg" xmlns:xlink="http://www.w3.org/1999/xlink">
    <!-- Generator: Sketch 52.6 (67491) - http://www.bohemiancoding.com/sketch -->
    <title>all-image-5@2x</title>
    <desc>Created with Sketch.</desc>
    <defs>
        <linearGradient x1="-91.7692783%" y1="-119.453803%" x2="50%" y2="98.2546062%" id="linearGradient-1">
            <stop stop-color="#FFB000" offset="0%"></stop>
            <stop stop-color="#FBB312" offset="100%"></stop>
        </linearGradient>
        <rect id="path-2" x="-8.52651283e-14" y="-5.68434189e-14" width="185.423729" height="152"></rect>
    </defs>
    <g id="Page-1" stroke="none" stroke-width="1" fill="none" fill-rule="evenodd">
        <g id="wed-dev-exercise" transform="translate(-775.000000, -1580.000000)">
            <g id="=Section-All" transform="translate(208.000000, 1319.000000)">
                <g id="group-5" transform="translate(567.000000, 261.000000)">
                    <g id="all-image-5">
                        <mask id="mask-3" fill="white">
                            <use xlink:href="#path-2"></use>
                        </mask>
                        <use id="Rectangle" fill="url(#linearGradient-1)" fill-rule="nonzero" xlink:href="#path-2"></use>
                        <g id="teamwork_white_8" mask="url(#mask-3)">
                            <g transform="translate(-99.000000, 1.000000)">
                                <path d="M180.770231,83 C180.770231,83 176.813803,83 175.891476,83.7258634 C174.96915,84.4517268 173.875462,87.4770408 174.011543,88.5313972 C174.147624,89.5857535 182,88.5313972 182,88.5313972 L180.770231,83 Z" id="Path" fill="#A55B3A" fill-rule="evenodd"></path>
                                <path d="M267.735665,47 L284.971872,52.3420505 C286.350162,52.766419 288.682654,54.5637444 288.728092,56.161367 L291,131 L235,129.547162 L239.367111,54.0644874 L255.315903,47.1897177 L267.735665,47 Z" id="Path" fill="#F9C200" fill-rule="evenodd"></path>
                                <path d="M237,107.699381 L258.938129,118 L291,112.917228 L289.555908,65.1011461 L278.63716,63 L277.278606,70.5591232 C275.990939,77.6950982 270.184095,83.1685052 262.948379,84.0664908 L238.182445,87.1381663 L237,107.699381 Z" id="Path" fill="#EDB607" fill-rule="evenodd"></path>
                                <path d="M111.49628,91 L328.50375,91 C331.287529,91 333.957291,92.1105584 335.92572,94.087365 C337.894148,96.0641717 339,98.7452968 339,101.540924 L339,250.459076 C339,253.254703 337.894148,255.935828 335.92572,257.912635 C333.957291,259.889442 331.287529,261 328.50375,261 L111.49628,261 C105.699361,261 101.00003,256.280668 101.00003,250.459076 L101.00003,101.566021 C100.993391,98.7660484 102.096312,96.0784711 104.065461,94.096233 C106.034609,92.113995 108.708166,90.9999921 111.49628,91 Z" id="Path" fill="#F0F1F4" fill-rule="evenodd"></path>
                                <path d="M111,99.9999708 C111,100.808883 110.512723,101.538145 109.765385,101.847703 C109.018047,102.15726 108.157824,101.986151 107.585836,101.414164 C107.013849,100.842176 106.84274,99.9819529 107.152297,99.2346151 C107.461855,98.4872772 108.191117,98 109.000029,98 C110.103541,98.0025108 110.997489,98.8964591 111,99.9999708 Z" id="Path" fill="#60D6E6" fill-rule="evenodd"></path>
                                <path d="M120,99.9999708 C120,100.808883 119.512723,101.538145 118.765385,101.847703 C118.018047,102.15726 117.157824,101.986151 116.585836,101.414164 C116.013849,100.842176 115.84274,99.9819529 116.152297,99.2346151 C116.461855,98.4872772 117.191117,98 118.000029,98 C119.103541,98.0025108 119.997489,98.8964591 120,99.9999708 Z" id="Path" fill="#60D6E6" fill-rule="evenodd"></path>
                                <path d="M129,99.9999757 C128.999998,100.809303 128.512225,101.538852 127.764326,101.84814 C127.016428,102.157428 126.155847,101.985481 125.584221,101.412546 C125.012594,100.839611 124.842614,99.9786405 125.15361,99.231451 C125.464607,98.4842614 126.195269,97.9981575 127.004595,98.0000052 C128.107365,98.002523 129.000003,98.8972033 129,99.9999757 Z" id="Path" fill="#60D6E6" fill-rule="evenodd"></path>
                                <path d="M240,54 L215.526203,82.6924675 L179.409238,82.6924675 C179.409238,82.6924675 178.488452,86.7194804 179.409238,89.206161 L180.324993,91.6727064 C180.324993,91.6727064 213.916085,93.7969558 217.367776,93.9983064 C220.819467,94.1996571 238.752158,76.3801246 238.752158,76.3801246 L240,54 Z" id="Path" fill="#F9C200" fill-rule="evenodd"></path>
                                <polygon id="Rectangle" fill="#FFB0B2" fill-rule="evenodd" transform="translate(235.111304, 119.992617) rotate(-76.290000) translate(-235.111304, -119.992617) " points="214.087626 53.3228217 256.146451 53.3192056 256.134983 186.662412 214.076158 186.666028"></polygon>
                                <polygon id="Path" fill="#FF9398" fill-rule="evenodd" points="175.834162 84 166 124.493625 225 139 217.602006 93.9130237"></polygon>
                                <path d="M121.216414,123.485959 L151.636682,131.469647 L165.538551,106 L171,108.087433 C171,108.087433 161.313376,135.550528 158.438668,140.52673 C155.56396,145.502932 120,136.277667 120,136.277667 L121.216414,123.485959 Z" id="Path" fill="#0CBFD1" fill-rule="evenodd"></path>
                                <path d="M175.509544,84 C173.684859,84.2151527 172.024766,85.128991 170.899223,86.537863 C168.977832,88.9180334 170.441749,92.0570989 172.424136,94.097245 C174.406523,96.1373912 177.131035,96.4182809 178.772858,95.5016935 C180.414681,94.5851061 180.191027,89.8888276 179.367574,87.2770463 C178.544121,84.665265 175.509544,84 175.509544,84 Z" id="Path" fill="#A55B3A" fill-rule="evenodd"></path>
                                <path d="M270.134362,141 L269.893514,140.940306 L195,122.823049 L195.060212,122.579296 L200.860621,99 L201.106486,99.0596944 L276,117.191875 L275.939788,117.435627 L270.134362,141 Z M195.602119,122.454933 L269.763055,140.398081 L275.387846,117.545067 L201.226909,99.6019187 L195.602119,122.454933 Z" id="Shape" fill="#FFFFFF" fill-rule="nonzero"></path>
                                <path d="M287,108.117908 C287,108.117908 283.495112,115.790377 281.930866,118.298013 C280.36662,120.805649 277.687849,121.264303 275.302374,120.88043 C272.916899,120.496557 274.77933,114.803276 275.747207,111.687425 L276.72486,108.571575 L273,107.66424 C273,107.66424 273.816341,106.143705 276.421788,105.670096 C277.956896,105.412508 279.426065,104.844694 280.743017,104 L287,108.117908 Z" id="Path" fill="#A55B3A" fill-rule="evenodd"></path>
                                <path d="M277.034746,61.4587798 C275.880568,67.0108917 303.864316,77.8476047 303.864316,77.8476047 L279.606335,103.695209 C280.130123,105.577078 281.498442,107.111002 283.311853,107.849199 C286.31879,109 287.938688,109 287.938688,109 C287.938688,109 314.768259,90.0773931 317.805569,80.3864341 C320.842879,70.6954751 287.321102,52 285.205109,52 C283.089117,52 278.193986,55.92181 277.034746,61.4587798 Z" id="Path" fill="#F9C200" fill-rule="evenodd"></path>
                                <path d="M138,106 C135.8,106 134,103.757282 134,101 C134,98.2427184 135.785,96 138,96 C140.215,96 142,98.2427184 142,101 C142,103.757282 140.195,106 138,106 Z M138,96.4854369 C136.075,96.4854369 134.5,98.5097087 134.5,101 C134.5,103.490291 136.06,105.514563 138,105.514563 C139.94,105.514563 141.5,103.490291 141.5,101 C141.5,98.5097087 139.92,96.4854369 138,96.4854369 Z" id="Shape" fill="#1A2249" fill-rule="nonzero"></path>
                                <path d="M147.497578,107 C145.559862,107 144,104.983923 144,102.5 C144,100.016077 145.56955,98 147.497578,98 C149.425606,98 151,100.0209 151,102.5 C151,104.9791 149.43045,107 147.497578,107 Z M147.497578,98.4823151 C145.835986,98.4823151 144.484429,100.286174 144.484429,102.5 C144.484429,104.713826 145.835986,106.517685 147.497578,106.517685 C149.15917,106.517685 150.515571,104.71865 150.515571,102.5 C150.515571,100.28135 149.164014,98.4823151 147.497578,98.4823151 Z" id="Shape" fill="#1A2249" fill-rule="nonzero"></path>
                                <path d="M139,111.976911 L138.798526,119.644476 C138.798526,119.644476 137.953317,121.500027 132.65602,121.990751 C130.959432,122.084422 129.298049,121.463514 128.046683,120.268105 L127,108 L139,111.976911 Z" id="Path" fill="#FBAD83" fill-rule="evenodd"></path>
                                <path d="M139,112.897128 L138.682259,117.943595 C138.150969,118.049427 137.59696,118.005643 137.093557,117.818037 C134.366284,116.852206 134.699912,114.080271 133,109 L139,112.897128 Z" id="Path" fill="#E68D5C" fill-rule="evenodd"></path>
                                <path d="M147.553204,90.4498495 C147.553204,90.4498495 148.842035,103.05332 147.041763,109.178607 C145.241492,115.303893 139.630987,117.86996 134.680241,116.740689 C132.844169,116.322254 126.18521,108.946703 125.341333,99.831873 C124.497456,90.7170431 125.305532,87.9694865 126.809168,86.0386348 C128.312804,84.1077831 141.9785,81.7131237 144.464102,83.820424 C146.949704,85.9277243 147.553204,90.4498495 147.553204,90.4498495 Z" id="Path" fill="#FBAD83" fill-rule="evenodd"></path>
                                <path d="M125.372172,83.2410718 C125.372172,83.2410718 122.790686,86.2424807 123.013655,93.786022 C123.236624,101.329563 124.941099,106.877167 127.091512,109.178248 C129.241925,111.479328 136.684139,111.374279 138.983198,110.113687 C141.282257,108.853095 145.459212,104.000817 145.231288,101.10946 C145.137146,99.8688775 145.018229,98.253119 144.914177,96.817445 C144.770074,94.7913152 146.102644,92.9586875 148.060518,92.4904138 L148.972214,92.2753128 C148.972214,92.2753128 149.537069,84.8418232 145.573174,81.7703814 C141.609279,78.6989395 136.847649,78.4538244 132.090975,79.7144162 C127.334301,80.975008 125.372172,83.2410718 125.372172,83.2410718 Z" id="Path" fill="#1A2249" fill-rule="evenodd"></path>
                                <path d="M140,104.425532 C140,106.319149 142.250237,108 143.629876,108 C145.009514,108 144.999999,106.319149 144.999999,104.425532 C144.999999,102.531915 143.882016,101 142.502378,101 C141.12274,101 140,102.531915 140,104.425532 Z" id="Path" fill="#FBAD83" fill-rule="evenodd"></path>
                                <path d="M141.044193,104.247474 C141.185543,103.416028 142.270612,102.8904 142.865114,103.019418 C143.459616,103.148435 141.904765,103.631057 141.763415,104.452947 C141.622065,105.274837 142.449378,106.115841 141.859034,105.986823 C141.227737,105.749009 140.869426,104.984164 141.044193,104.247474 Z" id="Path" fill="#E68D5C" fill-rule="evenodd"></path>
                                <path d="M134.999999,89.4949066 C135.001997,93.7425967 132.444525,97.5730504 128.520553,99.1994944 C124.596581,100.825938 120.079212,99.9279301 117.075641,96.9243592 C114.07207,93.9207884 113.174062,89.4034193 114.800506,85.4794474 C116.42695,81.5554755 120.257403,78.9980027 124.505093,79.0000012 C130.30127,79.0000012 134.999999,83.6987304 134.999999,89.4949066 Z" id="Path" fill="#1A2249" fill-rule="evenodd"></path>
                                <rect id="Rectangle" fill="#1A2249" fill-rule="evenodd" x="144" y="101" width="7" height="1"></rect>
                                <path d="M202,137.431595 L205.529783,134.248319 L213.522219,136.202609 C213.522219,136.202609 214.288686,133.05459 215.231642,132.404839 C216.174598,131.755088 218,132.082482 218,132.082482 C218,132.082482 216.769619,137.47189 215.942641,139.390922 C215.115663,141.309954 208.046013,141.909337 206.866057,141.733048 C206.28947,141.60438 205.685469,141.69983 205.176804,142 L202,137.431595 Z" id="Path" fill="#FBAD83" fill-rule="evenodd"></path>
                                <path d="M138.535797,119 L151.659238,124.387622 L158,185.519507 C158,185.519507 126.599076,197.850616 115,185.519507 L118.272171,127.977691 C118.42999,125.04964 120.266547,122.487643 122.964434,121.431983 L127.671594,119.594149 L138.535797,119 Z" id="Path" fill="#60D6E6" fill-rule="evenodd"></path>
                                <path d="M140,190 C146.137065,189.00501 152.164861,187.416912 158,185.257676 L153.065,138.146897 L144.41,136 L140,190 Z" id="Path" fill="#50CAD3" fill-rule="evenodd"></path>
                                <path d="M152.328856,125 L176.348427,149.099398 L202.358404,137.047216 C203.354009,138.103922 204.175604,139.310617 204.792786,140.622647 L206,143.041029 C206,143.041029 180.314275,158.186952 174.986569,159.925009 C169.658864,161.663065 141,132.612689 141,132.612689 L152.328856,125 Z" id="Path" fill="#60D6E6" fill-rule="evenodd"></path>
                                <path d="M166,106.203978 C166,106.203978 166.247629,102.194727 168.19705,99.7779833 C170.14647,97.3612396 171.727081,97 171.727081,97 L170.425711,102.250694 C170.425711,102.250694 170.120126,103.008788 171.384615,103.074931 C172.649104,103.141073 172.786091,100.69889 174.324552,100.464847 C175.863014,100.230805 176,100.464847 176,100.464847 C176,100.464847 174.419389,104.13321 173.128556,105.456059 C171.837724,106.778908 170.799789,108 170.799789,108 L166,106.203978 Z" id="Path" fill="#FBAD82" fill-rule="evenodd"></path>
                                <path d="M269,47 C269,47 267.334802,53.4594697 261.167401,52.9739384 C255,52.4884072 255,47.476011 255,47.476011 L269,47 Z" id="Path" fill="#FFFFFF" fill-rule="evenodd"></path>
                                <path d="M269,29 L269,46.9263713 C269,46.9263713 265.969697,49.277863 260.70202,48.9726694 C255.80303,48.6924916 255.257576,47.2465744 255.257576,47.2465744 L253,37.7405444 L269,29 Z" id="Path" fill="#A55B3A" fill-rule="evenodd"></path>
                                <path d="M254.625447,45.878215 C257.168565,46.4677466 260.111943,44.821124 262.308493,43.0017077 C266.359909,39.6474764 268,33 268,33 L254.59616,37.192789 L253,38.1075794 L254.625447,45.878215 Z" id="Path" fill="#8E4A2F" fill-rule="evenodd"></path>
                                <path d="M244.131398,7.48290189 C244.131398,7.48290189 241.847722,8.37775647 242.008065,14.1303931 C242.080948,16.850751 243.047866,22 243.047866,22 L249,6 L244.131398,7.48290189 Z" id="Path" fill="#1A2249" fill-rule="evenodd"></path>
                                <path d="M244.142211,37.4851392 C248.947508,47.6262884 260.881326,41.6351482 265.984473,36.5247654 C271.087619,31.4143825 270.387674,11.8735125 268.962963,8.16139406 C267.538252,4.44927564 255.783144,1.46863364 249.528314,3.85712807 C243.273484,6.24562249 239.331949,27.3439899 244.142211,37.4851392 Z" id="Path" fill="#A55B3A" fill-rule="evenodd"></path>
                                <path d="M262.284534,20 C262.284534,20 260.94162,31.5018228 257.838333,32.4097272 C255.182684,33.1952175 251.490929,29.3493752 246.707742,29.1453517 C244.042033,29.0280383 243.081372,29.2830676 242,30.0277532 C242.245398,32.5552039 242.888984,35.0263746 243.906233,37.347095 C248.774924,47.7420904 260.866176,41.6009842 266.036645,36.3626818 C268.551464,33.8123885 269.668044,27.8242998 270,21.8770159 L262.284534,20 Z" id="Path" fill="#1A2249" fill-rule="evenodd"></path>
                                <path d="M264.474774,24.8741585 C264.474774,24.8741585 262.994046,25.0241363 262.406691,24.1392671 C261.819336,23.254398 263.527108,18.2701349 261.789721,12.9859162 C260.550846,9.2114743 254.924082,7.02679732 250.314083,7.94166205 C245.704085,8.85652678 244.549118,9.27146543 244.075285,7.91166649 C243.601452,6.55186754 245.457297,3.37233765 247.03674,2.10752466 C248.616183,0.842711671 256.128407,-1.39195792 262.372141,1.19265993 C268.615875,3.77727778 269.864622,5.49702351 271.256505,9.59641739 C272.648389,13.6958113 271.750081,23.964293 271.256505,24.6241954 C270.76293,25.2840979 264.474774,24.8741585 264.474774,24.8741585 Z" id="Path" fill="#1A2249" fill-rule="evenodd"></path>
                                <path d="M272,23.8971193 C272,26.5977366 268.391753,29 266.190722,29 C263.989691,29 264,26.5977366 264,23.8971193 C264,21.1965021 265.78866,19 268,19 C270.21134,19 272,21.191358 272,23.8971193 Z" id="Path" fill="#A55B3A" fill-rule="evenodd"></path>
                                <path d="M242,30 C242,30 242,42.4951634 243.412455,44.7463163 C244.824911,46.9974693 249.481144,47.48817 251.585215,46.5472387 C253.689287,45.6063073 257.108403,42.2219898 257.960747,39.3536669 C258.813091,36.4853439 245.501915,32.3927985 245.501915,32.3927985 L242,30 Z" id="Path" fill="#1A2249" fill-rule="evenodd"></path>
                                <path d="M269.963549,21.9634121 C270.262172,23.2560114 268.661551,24.7622183 267.514837,24.9813029 C266.368123,25.2003876 268.834752,23.4477105 268.536129,22.1551112 C268.237506,20.8625118 266.206867,20.2600291 267.341635,20.0354673 C268.476404,19.8109056 269.670898,20.6762899 269.963549,21.9634121 Z" id="Path" fill="#8E4A2F" fill-rule="evenodd"></path>
                                <path d="M245,34.452899 C245,34.452899 250.247438,34.6020243 251.123719,34.2982506 L252,34 C252,34 252,36.7615794 249.545388,37.7226091 C247.090776,38.6836387 245.773792,36.9162279 245.445827,35.9386288 C245.117862,34.9610296 245,34.452899 245,34.452899 Z" id="Path" fill="#FFFFFF" fill-rule="evenodd"></path>
                                <path d="M245.525559,19 C245.47155,18.9995157 245.418033,18.9918292 245.367265,18.977265 C244.131712,18.7002469 242.822954,18.7002469 241.587401,18.977265 C241.338805,19.0224761 241.088899,18.9060768 241.018649,18.7123557 C240.948399,18.5186346 241.082383,18.3153673 241.323578,18.2497464 C242.746437,17.9167512 244.260993,17.9167512 245.683853,18.2497464 C245.90184,18.3122107 246.03205,18.4889107 245.993164,18.6694924 C245.954278,18.8500741 245.757431,18.9828271 245.525559,18.9848434 L245.525559,19 Z" id="Path" fill="#1A2249" fill-rule="evenodd"></path>
                                <path d="M254.480011,19.9999773 C254.327336,20.001493 254.18164,19.9271289 254.080877,19.796256 C253.996848,19.6884035 252.116716,17.3216414 248.718822,18.5559528 C248.536605,18.6384108 248.329303,18.5982229 248.181185,18.4517254 C248.033067,18.3052279 247.96879,18.0768087 248.014482,17.8593198 C248.060175,17.6418309 248.20823,17.4714784 248.398464,17.4175103 C252.479088,15.9315432 254.779362,18.8795101 254.873893,19.0113298 C255.006545,19.1882476 255.037361,19.4368178 254.952919,19.6487689 C254.868477,19.8607199 254.684065,19.9976741 254.480011,19.9999773 Z" id="Path" fill="#1A2249" fill-rule="evenodd"></path>
                                <rect id="Rectangle" fill="#1A2249" fill-rule="evenodd" x="239" y="22" width="3" height="1"></rect>
                                <path d="M242,29 C239.805,29 238,26.7572816 238,24 C238,21.2427184 239.785,19 242,19 C244.215,19 246,21.2427184 246,24 C246,26.7572816 244.2,29 242,29 Z M242,19.4854369 C240.08,19.4854369 238.5,21.5097087 238.5,24 C238.5,26.4902913 240.06,28.5145631 242,28.5145631 C243.94,28.5145631 245.5,26.4902913 245.5,24 C245.5,21.5097087 243.92,19.4854369 242,19.4854369 Z" id="Shape" fill="#1A2249" fill-rule="nonzero"></path>
                                <path d="M252,29 C249.805,29 248,26.7572816 248,24 C248,21.2427184 249.79,19 252,19 C254.21,19 256,21.2427184 256,24 C256,26.7572816 254.195,29 252,29 Z M252,19.4854369 C250.08,19.4854369 248.5,21.5097087 248.5,24 C248.5,26.4902913 250.065,28.5145631 252,28.5145631 C253.935,28.5145631 255.5,26.4902913 255.5,24 C255.5,21.5097087 253.92,19.4854369 252,19.4854369 Z" id="Shape" fill="#1A2249" fill-rule="nonzero"></path>
                                <rect id="Rectangle" fill="#1A2249" fill-rule="evenodd" x="256" y="22" width="8" height="1"></rect>
                                <rect id="Rectangle" fill="#1A2249" fill-rule="evenodd" x="246" y="22" width="2" height="1"></rect>
                            </g>
                        </g>
                    </g>
                </g>
            </g>
        </g>
    </g>
</svg>