<?xml version="1.0" encoding="UTF-8"?>
<svg width="186px" height="152px" viewBox="0 0 186 152" version="1.1" xmlns="http://www.w3.org/2000/svg" xmlns:xlink="http://www.w3.org/1999/xlink">
    <!-- Generator: Sketch 52.6 (67491) - http://www.bohemiancoding.com/sketch -->
    <title>all-image-3@2x</title>
    <desc>Created with Sketch.</desc>
    <defs>
        <linearGradient x1="104.363181%" y1="-25.8583086%" x2="-166.717985%" y2="237.379065%" id="linearGradient-1">
            <stop stop-color="#78E0B4" offset="0%"></stop>
            <stop stop-color="#59B193" offset="100%"></stop>
        </linearGradient>
        <rect id="path-2" x="-8.52651283e-14" y="-5.68434189e-14" width="185.423729" height="152"></rect>
    </defs>
    <g id="Page-1" stroke="none" stroke-width="1" fill="none" fill-rule="evenodd">
        <g id="wed-dev-exercise" transform="translate(-208.000000, -1770.000000)">
            <g id="=Section-All" transform="translate(208.000000, 1319.000000)">
                <g id="group-3" transform="translate(0.000000, 451.000000)">
                    <g id="all-image-3">
                        <mask id="mask-3" fill="white">
                            <use xlink:href="#path-2"></use>
                        </mask>
                        <use id="Rectangle" fill="url(#linearGradient-1)" fill-rule="nonzero" xlink:href="#path-2"></use>
                        <g id="teamwork_white_3" mask="url(#mask-3)">
                            <g transform="translate(-106.000000, 23.000000)">
                                <path d="M242,92.0802028 C242,92.0802028 244.062667,91.718037 247.660667,92.5329101 C251.258667,93.3477832 256,102.338549 256,102.338549 C255.783354,102.856788 255.188765,103.122394 254.642,102.945177 C253.666667,102.641863 250.092,98.5674979 250.092,98.5674979 C250.092,98.5674979 250.414,100.604681 247.53,101.134348 C244.646,101.664016 243.246,100.604681 242.779333,100.075013 C242.312667,99.5453456 242,97.4945817 242,97.4945817 L242,92.0802028 Z" id="Path" fill="#FBAD83" fill-rule="evenodd"></path>
                                <path d="M196,134.075921 C196,134.075921 194.826468,193.167796 194.850417,196.846357 C194.874367,200.524918 173.156836,249.844881 173.156836,249.844881 C173.156836,249.844881 168.558506,250.657641 164.779253,248.562318 L161,246.462297 L175.772136,191.241602 C175.772136,191.241602 162.839332,147.756597 163.548241,136.880647 L164.247571,126 L196,134.075921 Z" id="Path" fill="#303D72" fill-rule="evenodd"></path>
                                <path d="M164.715796,126 L164.026779,136.881194 C163.606762,143.53003 168.212794,162.378566 171.85137,176 L195.731,148.029842 C195.886737,139.917042 196,134.079955 196,134.079955 L164.715796,126 Z" id="Path" fill="#26335E" fill-rule="evenodd"></path>
                                <path d="M201.53992,51 L211.411777,87.3271623 L243.453603,91.2255276 C244.182132,92.7784141 244.182132,94.5654397 243.453603,96.1183262 L242.195192,98.6020752 C242.195192,98.6020752 211.855081,100.12874 205.367588,97.2014649 C198.880096,94.2741894 201.53992,51 201.53992,51 Z" id="Path" fill="#26335E" fill-rule="evenodd"></path>
                                <path d="M177.956505,45.7806645 C177.956505,45.7806645 166.951571,48.4236369 163.588821,51.2265045 C160.553796,53.7566097 162.667389,114.563787 163.403585,128.206604 C163.5152,130.189646 163.5152,132.177304 163.403585,134.160346 L162.809879,144.238442 C162.809879,144.238442 190.253342,147.666781 200.332094,144.95797 C210.410846,142.249158 209.997627,144.01741 209.997627,144.01741 C209.997627,144.01741 204.549781,55.5671869 201.519506,50.0790218 C199.006942,45.5455246 185.69368,45 185.69368,45 L177.956505,45.7806645 Z" id="Path" fill="#303D72" fill-rule="evenodd"></path>
                                <path d="M178,45.4012442 C178,45.4012442 185.494949,57.6065319 188.801115,67.5676516 C191.931731,77.0155521 192,81 192,81 L192,45 L178,45.4012442 Z" id="Path" fill="#FFFFFF" fill-rule="evenodd"></path>
                                <path d="M178,29 L178,45.8591628 C178,45.8591628 180.819687,48.2623431 185.778289,47.97636 C190.378105,47.7088275 191.100276,46.0390554 191.100276,46.0390554 L193,37.3073467 L178,29 Z" id="Path" fill="#FBAD83" fill-rule="evenodd"></path>
                                <path d="M191.37338,43.8883904 C188.826747,44.4306359 185.8865,42.9087032 183.6908,41.2318432 C179.640847,38.1378543 178,32 178,32 L191.401834,35.8686253 L193,36.7161687 L191.37338,43.8883904 Z" id="Path" fill="#E68D5C" fill-rule="evenodd"></path>
                                <path d="M200.867436,7.39794967 C200.867436,7.39794967 203.152439,8.24137931 202.991922,13.6188257 C202.921106,16.1724138 201.953284,21 201.953284,21 L196,6 L200.867436,7.39794967 Z" id="Path" fill="#1A2249" fill-rule="evenodd"></path>
                                <path d="M200.934757,36.6200398 C196.286546,46.5171357 184.796168,40.6637104 179.873713,35.6774592 C174.951257,30.691208 175.629896,11.6416548 176.991822,8.03628417 C178.353748,4.43091351 189.737217,1.50420087 195.742705,3.83237486 C201.748194,6.16054885 205.582968,26.7559342 200.934757,36.6200398 Z" id="Path" fill="#FBAD83" fill-rule="evenodd"></path>
                                <path d="M183.450549,20 C183.450549,20 184.745683,30.9916212 187.736264,31.8724663 C190.298273,32.6254468 193.858713,28.9505231 198.464678,28.7516226 C201.031397,28.6427009 201.959184,28.8889586 203,29.5993176 C202.762844,32.0155614 202.139445,34.3774836 201.153846,36.5939856 C196.44427,46.5390113 184.806907,40.657239 179.819466,35.6468403 C177.403454,33.2221484 176.320251,27.4871836 176,21.8043118 L183.450549,20 Z" id="Path" fill="#1A2249" fill-rule="evenodd"></path>
                                <path d="M181.556849,23.8805786 C181.556849,23.8805786 183.017744,24.0202324 183.616472,23.1729991 C184.215199,22.3257658 182.500444,17.5496044 184.234359,12.4662046 C185.470132,8.84917007 191.093381,6.75436244 195.696399,7.62952652 C200.299416,8.50469059 201.444183,8.9050316 201.923165,7.60625088 C202.402147,6.30747015 200.548487,3.24905102 198.948687,2.02009721 C197.348887,0.791143402 189.848028,-1.32693986 183.621262,1.14493313 C177.394495,3.61680613 176.168301,5.30661762 174.755304,9.23554569 C173.342307,13.1644738 174.252373,23.0054145 174.755304,23.6385119 C175.258235,24.2716093 181.556849,23.8805786 181.556849,23.8805786 Z" id="Path" fill="#1A2249" fill-rule="evenodd"></path>
                                <path d="M175,22.4055 C175,24.84 178.596741,27 180.810891,27 C183.025041,27 182.999994,24.84 182.999994,22.4055 C182.999994,19.971 181.211642,18 178.992483,18 C176.773324,18 175,19.9755 175,22.4055 Z" id="Path" fill="#FBAD83" fill-rule="evenodd"></path>
                                <path d="M203,29 C203,29 203,40.7563229 201.580457,42.8799562 C200.160913,45.0035895 195.514274,45.4570014 193.41335,44.5733108 C191.312426,43.6896203 187.896058,40.4926037 187.0396,37.7998922 C186.183142,35.1071807 199.503191,31.2392996 199.503191,31.2392996 L203,29 Z" id="Path" fill="#1A2249" fill-rule="evenodd"></path>
                                <path d="M228.746726,72 L210.420455,72 C209.63208,71.9870776 208.99989,71.3548877 209,70.5795455 L212.813559,43.4204545 C212.813559,42.6359592 213.460297,42 214.258089,42 L232.579545,42 C233.36792,42.0129224 234.00011,42.6451123 234,43.4204545 L230.186441,70.5795455 C230.186445,71.3621955 229.542637,71.9973912 228.746726,72 Z" id="Path" fill="#303D72" fill-rule="evenodd"></path>
                                <path d="M230.746969,72 L212.44314,72 C211.646116,72 211,71.3640408 211,70.5795455 L214.80989,43.4204545 C214.80989,42.6359592 215.456006,42 216.253031,42 L234.55686,42 C235.353884,42 236,42.6359592 236,43.4204545 L232.19011,70.5795455 C232.19011,71.3640408 231.543994,72 230.746969,72 Z" id="Path" fill="#EDF2F7" fill-rule="evenodd"></path>
                                <path d="M225.980244,53.6586509 C225.82678,55.0406042 224.813918,56.0870034 223.719209,55.9942845 C222.6245,55.9015656 221.862296,54.7094652 222.020875,53.3451727 C222.179455,51.9808801 223.187201,50.9168202 224.28191,51.0051239 C225.376619,51.0934276 226.133708,52.2811128 225.980244,53.6586509 Z" id="Path" fill="#A9C2DC" fill-rule="evenodd"></path>
                                <path d="M209.305442,68 C209.305442,68 219.275212,64.5964344 220.775788,62.3354943 C222.276364,60.0745543 222.327468,55.9027553 221.310049,54.7893031 C220.292631,53.6758509 212.840854,56.5640194 211.437839,56.7341977 C210.034824,56.904376 211.484297,56.1458671 211.484297,56.1458671 L211.902414,53 C210.511518,53.5636906 209.246394,54.4210315 208.185817,55.5186386 C206.15098,57.4927066 206.248541,59.7730956 205.960505,60.5850891 C205.672469,61.3970827 204,63.2690438 204,63.2690438 L209.305442,68 Z" id="Path" fill="#FBAD83" fill-rule="evenodd"></path>
                                <path d="M165.925103,50.0469297 C165.925103,50.0469297 169.320975,49.5130653 171.502335,52.0465796 C173.683694,54.5800939 177.836851,87.5438773 177.836851,87.5438773 L204.032219,61.4781835 C204.032219,61.4781835 208.018678,63.9180374 209.009339,66.1846194 L210,68.4418355 C210,68.4418355 187.743463,100.984147 177.832088,103.836107 C167.920713,106.688066 159,71.4998481 159,62.0682441 C159,52.6366402 165.925103,50.0469297 165.925103,50.0469297 Z" id="Path" fill="#303D72" fill-rule="evenodd"></path>
                                <path d="M177.023997,21.5758396 C176.825738,22.603901 177.898671,23.8061382 178.668383,23.9845621 C179.438096,24.162986 177.785935,22.7568358 177.984194,21.7287743 C178.182454,20.7007129 179.539169,20.2121713 178.761682,20.0294992 C177.984194,19.8468271 177.245581,20.5307854 177.023997,21.5758396 Z" id="Path" fill="#E68D5C" fill-rule="evenodd"></path>
                                <path d="M172.441777,124 L172,143.59381 L176.72509,143.957425 C180.474824,144.245812 184.185689,143.060175 187.004964,140.672961 C189.824239,138.285748 191.509492,134.902237 191.673469,131.299925 L192,124.161095 C192,124.161095 175.481393,125.058627 172.441777,124 Z" id="Path" fill="#26335E" fill-rule="evenodd"></path>
                                <path d="M208.044757,121.006512 L201,122.1549 C201,122.1549 204.174635,134.167336 206.04819,137.602892 C206.712081,138.918794 207.687551,140.04652 208.88691,140.88469 C209.116223,141.033203 209.408152,141.038644 209.642676,140.898776 C209.877199,140.758909 210.014737,140.497337 209.998742,140.221603 L208.858523,121.688818 C208.84713,121.485722 208.75285,121.296654 208.598387,121.167143 C208.443923,121.037633 208.243274,120.979416 208.044757,121.006512 Z" id="Path" fill="#26335E" fill-rule="evenodd"></path>
                                <path d="M201,33.4506549 C201,33.4506549 195.747511,33.6008732 194.871266,33.3004366 L194,33 C194,33 194,35.7629437 196.454481,36.7232678 C198.908962,37.6835919 200.223329,35.913162 200.546942,34.936743 C200.870555,33.9603241 201,33.4506549 201,33.4506549 Z" id="Path" fill="#FFFFFF" fill-rule="evenodd"></path>
                                <path d="M199.466048,17.997592 C199.267726,17.9969477 199.091421,17.8944685 199.025976,17.7417961 C198.941694,17.543641 199.069207,17.3271449 199.311555,17.2569291 C200.738832,16.914357 202.256913,16.914357 203.684191,17.2569291 C203.919595,17.3230469 204.050362,17.5278532 203.981798,17.7230412 C203.913235,17.9182291 203.669329,18.0355098 203.426701,17.9899563 C202.184569,17.6995067 200.867356,17.6995067 199.625223,17.9899563 C199.573091,17.9999055 199.519252,18.0024882 199.466048,17.997592 Z" id="Path" fill="#1A2249" fill-rule="evenodd"></path>
                                <path d="M191.442972,19 C191.335764,18.9998629 191.232282,18.9650284 191.151875,18.90201 C190.968078,18.7601701 190.948338,18.512819 191.10777,18.3493462 C191.19157,18.263115 193.17632,16.2837165 196.695942,17.2792951 C196.927231,17.3465264 197.053546,17.5675276 196.978218,17.7731649 C196.904389,17.9782518 196.658221,18.09201 196.426899,18.0279389 C193.449774,17.1852247 191.791406,18.8471356 191.773764,18.862814 C191.690967,18.9488503 191.570355,18.9988705 191.442972,19 Z" id="Path" fill="#1A2249" fill-rule="evenodd"></path>
                                <path d="M141.426778,62 L147.635983,92.2335855 L187,102.311447 L185.594142,109 C185.594142,109 150.447699,106.767322 141.309623,102.311447 C132.171548,97.8555724 131,64.1046899 131,64.1046899 L141.426778,62 Z" id="Path" fill="#F89900" fill-rule="evenodd"></path>
                                <path d="M93.9927257,126 C93.9927257,126 91.4632259,132.442562 91.0106789,143.67805 C90.5581318,154.913538 104.63949,182.087631 104.63949,182.087631 L96.1268423,247.841468 C96.1268423,247.841468 102.386282,250.280471 104.996764,249.973232 L107.61201,249.67072 C107.61201,249.67072 121.926787,188.695629 121.998242,181.638589 C122.069697,174.58155 119.940344,144.325615 119.697398,141.522651 C119.454451,138.719688 120.735874,132.385841 120.735874,132.385841 L93.9927257,126 Z" id="Path" fill="#303D72" fill-rule="evenodd"></path>
                                <path d="M122.03618,57.7616535 L110.199927,61.5652192 L93,128.731771 C93,128.731771 116.981857,138.558042 127.609261,137.975048 C138.236665,137.392053 140.787622,132.803326 140.787622,132.803326 L142.995914,66.0411088 C143.099871,62.9093379 141.212004,60.047065 138.269979,58.8759243 L133.482175,57 L122.03618,57.7616535 Z" id="Path" fill="#F9C200" fill-rule="evenodd"></path>
                                <path d="M141.367788,28 C141.367788,28 143.706318,47.2731409 142.785079,51.0471042 C141.86384,54.8210675 132.4861,54.0480292 127.804316,53.6639108 C123.122533,53.2797924 120.651722,53.9183893 118.610824,52.7660341 C116.569925,51.6136788 120.2974,39.5571625 120.2974,39.5571625 L141.367788,28 Z" id="Path" fill="#E56107" fill-rule="evenodd"></path>
                                <path d="M137.006418,54.999987 C133.997719,55.0061995 131.450686,52.7793997 131.053044,49.7951191 C130.655403,46.8108386 132.5304,43.9940456 135.435618,43.2112155 C135.56687,43.1764604 135.701884,43.2527286 135.739961,43.3831351 C135.774424,43.5132485 135.697802,43.6468771 135.568155,43.6827664 C132.771032,44.4410128 131.040968,47.2401123 131.612269,50.0830592 C132.183571,52.9260061 134.860419,54.8383497 137.733026,54.4557366 C140.605634,54.0731235 142.689385,51.5266984 142.497636,48.6331976 C142.305887,45.7396967 139.904361,43.4908986 137.006418,43.4911988 C136.870867,43.4911988 136.76098,43.3812402 136.76098,43.2455994 C136.763592,43.1110559 136.871963,43.0026132 137.006418,43 C140.316582,43 143,45.685189 143,48.9975375 C143,52.309886 140.316582,54.995075 137.006418,54.995075 L137.006418,54.999987 Z" id="Path" fill="#FFFFFF" fill-rule="evenodd"></path>
                                <path d="M274,182 L314.714957,181.999999 C319.034401,182.00125 323.177291,180.282559 326.231599,177.222285 C329.285907,174.16201 331.001247,170.011029 330.999999,165.683148 L330.999999,106.654121 C330.999999,103.531436 328.473498,101 325.356901,101 L279.643099,101 C276.526501,101 274,103.531436 274,106.654121 L274,182 Z" id="Path" fill="#303D72" fill-rule="evenodd"></path>
                                <path d="M269,177 L313.303028,177 C320.315372,177 326,171.320526 326,164.31454 L326,106.637982 C326,103.524211 323.473499,101 320.356901,101 L274.643099,101 C271.526501,101 269,103.524211 269,106.637982 L269,177 Z" id="Path" fill="#A9C2DC" fill-rule="evenodd"></path>
                                <path d="M263.748816,88 L247.80401,131.329211 L215,136.578531 L215,145 C215,145 246.908662,145 249.170844,145 C251.433025,145 257.74332,142.932229 261.434247,131.06604 C265.125175,119.199852 263.748816,88 263.748816,88 Z" id="Path" fill="#0CBFD1" fill-rule="evenodd"></path>
                                <path d="M290.367814,78 L309.498631,85.1635562 L314,160.726756 C297.498134,161.953847 280.339029,163.128822 261.014351,159.992397 C258.475238,159.580208 259.454002,159.992397 257,159.518617 C261.052178,135.161578 259.364164,112.78494 263.274492,88.8685172 C263.670808,86.4517373 265.183773,84.364827 267.355039,83.2400087 L277.071754,78.1895121 L290.367814,78 Z" id="Path" fill="#60D6E6" fill-rule="evenodd"></path>
                                <path d="M274.896723,133.146788 L260.768478,136.626058 L259.241228,140.410938 C258.768395,146.69243 258.087516,153.044448 257,159.537517 C259.454002,160.007688 258.475238,159.608043 261.014351,160.007688 C280.339029,163.120224 297.498134,161.954199 314,160.736454 L310.893488,108.965866 L296.330236,97 L295.058316,109.939121 C293.961814,121.141456 285.883557,130.4402 274.896723,133.146788 Z" id="Path" fill="#0CBFD1" fill-rule="evenodd"></path>
                                <path d="M290,62 L290,78.861596 C290,78.861596 287.182552,81.2657181 282.222912,80.9757267 C277.635827,80.7091218 276.904688,79.0393326 276.904688,79.0393326 L275,70.2974955 L289.990686,62" id="Path" fill="#A55B3A" fill-rule="evenodd"></path>
                                <path d="M276.635926,77 C278.533276,76.2502893 280.302915,75.2289254 281.885325,73.9702602 C284.269109,72.1889237 286.049659,69.7623963 287,67 L276.607057,68.9098513 L275,69.7788104 L276.626303,77" id="Path" fill="#8E4A2F" fill-rule="evenodd"></path>
                                <rect id="Rectangle" fill="#1A2249" fill-rule="evenodd" x="263" y="51.7643885" width="9" height="1"></rect>
                                <path d="M266.488038,39.8259912 C266.488038,39.8259912 265,43.4509125 265,46.6227187 C265,49.1762115 266.043062,54 266.043062,54 L272,39 L266.488038,39.8259912 Z" id="Path" fill="#1A2249" fill-rule="evenodd"></path>
                                <path d="M266.053885,68.6266254 C270.693341,78.5110016 282.200133,72.6691491 287.126905,67.6720743 C292.053677,62.6749995 291.366001,43.646024 290.00949,40.037821 C288.65298,36.429618 277.25452,33.503919 271.249133,35.8330236 C265.243747,38.1621282 261.419139,58.7422491 266.068015,68.6123071" id="Path" fill="#A55B3A" fill-rule="evenodd"></path>
                                <path d="M265.004826,62.0092843 C265.243649,64.3479741 265.870989,66.6346685 266.862934,68.782205 C268.75,72.6073501 271.751931,74 275,74 C271.751931,74 268.725869,72.6073501 266.858108,68.7729207 C265.866714,66.6251978 265.239398,64.3385903 265,62" id="Path" fill="#DCDDE3" fill-rule="evenodd"></path>
                                <path d="M292,54.0095034 L286.749867,54.0095034 C286.749867,54.0095034 283.265689,63.109052 280.26834,63.9881207 C280.029171,64.0551746 279.781791,64.0887589 279.533322,64.0879069 C277.041895,64.0879069 273.719993,61.0705631 269.534205,60.8947493 C269.147605,60.8947493 268.799187,60.8947493 268.479406,60.8947493 C266.689588,60.8947493 265.88775,61.1608458 265,61.7548111 C265.236749,64.1485926 265.857123,66.4891646 266.837546,68.6875742 C268.698957,72.5744833 271.667668,74 274.879795,74 C279.743327,74 285.170055,70.7023046 288.176949,67.7134711 C290.59201,65.3376099 291.675446,59.6355429 291.995227,54" id="Path" fill="#90523C" fill-rule="evenodd"></path>
                                <path d="M290.334473,55.800813 C288.623103,55.642034 287.04985,54.8038035 285.973983,53.4775408 C284.898116,52.1512781 284.411509,50.4502382 284.625283,48.7628726 C284.893725,46.6334688 285.526482,45.950542 284.965629,43.9349593 C283.853512,39.9180217 278.983204,40.2926829 275.694787,41.7913279 C272.40637,43.2899729 268.806368,43.2852304 265.987726,41.1700542 C263.905848,39.5619149 263.384837,36.6593817 264.779736,34.4403794 C266.615689,31.5142276 273.120618,28 273.120618,28 C273.120618,28 272.329672,29.7547425 272.593321,30.6653117 C272.856969,31.5758808 290.147522,26.4397019 293.685207,34.0514905 C297.222891,41.6632791 292.501185,56 292.501185,56 L290.334473,55.800813 Z" id="Path" fill="#1A2249" fill-rule="evenodd"></path>
                                <path d="M293,55.4089069 C293,57.8410931 289.850445,60 287.916352,60 C285.982259,60 286.000003,57.8410931 286.000003,55.4089069 C286.000003,52.9767206 287.565908,51 289.500001,51 C291.434094,51 293,52.9767206 293,55.4089069 Z" id="Path" fill="#A55B3A" fill-rule="evenodd"></path>
                                <path d="M290.975578,55.5706023 C291.175412,56.6006941 290.105715,57.8031862 289.341646,57.9842065 C288.577577,58.1652269 290.219346,56.7515444 290.023431,55.7214525 C289.827515,54.6913607 288.45611,54.2043298 289.23977,54.0276195 C290.023431,53.8509092 290.775745,54.5405104 290.975578,55.5706023 Z" id="Path" fill="#8E4A2F" fill-rule="evenodd"></path>
                                <path d="M266.497598,57 C264.575841,57 263,54.9782262 263,52.4976102 C263,50.0169942 264.571036,48 266.497598,48 C268.424159,48 270,50.0169942 270,52.4976102 C270,54.9782262 268.448181,57 266.497598,57 Z M266.497598,48.4779607 C264.835278,48.4779607 263.480439,50.2798725 263.480439,52.4976102 C263.480439,54.7153478 264.854496,56.5220393 266.497598,56.5220393 C268.1407,56.5220393 269.519561,54.7153478 269.519561,52.4976102 C269.519561,50.2798725 268.18394,48.4875199 266.497598,48.4875199 L266.497598,48.4779607 Z" id="Shape" fill="#1A2249" fill-rule="nonzero"></path>
                                <path d="M274.5,57 C272.579561,57 271,54.9782262 271,52.4976102 C271,50.0169942 272.569959,48 274.5,48 C276.430041,48 278,50.0169942 278,52.4976102 C278,54.9782262 276.420439,57 274.5,57 Z M274.5,48.4779607 C272.834019,48.4779607 271.48011,50.2798725 271.48011,52.4976102 C271.48011,54.7153478 272.843621,56.5220393 274.5,56.5220393 C276.156379,56.5220393 277.51989,54.7153478 277.51989,52.4976102 C277.51989,50.2798725 276.170782,48.4875199 274.5,48.4875199 L274.5,48.4779607 Z" id="Shape" fill="#1A2249" fill-rule="nonzero"></path>
                                <rect id="Rectangle" fill="#1A2249" fill-rule="evenodd" x="278" y="51.7643885" width="8" height="1"></rect>
                                <rect id="Rectangle" fill="#1A2249" fill-rule="evenodd" x="270" y="51.7643885" width="2" height="1"></rect>
                                <path d="M268,64 L276,64 C276,64 274.378056,67.8851939 271.677996,67.9977306 C268.977937,68.1102672 268,64 268,64 Z" id="Path" fill="#FFFFFF" fill-rule="evenodd"></path>
                                <path d="M265.002251,64 L277,64 C277,64 276.813482,61.5934664 274.747799,60.6488457 C272.682116,59.7042251 270.439241,60.88725 269.730474,60.8512644 C269.021707,60.8152789 267.095912,59.6007666 266.000121,60.1360516 C264.904329,60.6713367 265.002251,64 265.002251,64 Z" id="Path" fill="#1A2249" fill-rule="evenodd"></path>
                                <path d="M237,137 L155.518316,136.999997 C154.584818,137.00124 153.689194,136.633553 153.029111,135.978084 C152.369027,135.322616 151.998751,134.433253 152.000003,133.506282 L152.000003,76.4937181 C151.998751,75.5667466 152.369027,74.6773839 153.029111,74.0219156 C153.689194,73.3664472 154.584818,72.9987597 155.518316,73.0000031 L237,73 L237,137 Z" id="Path" fill="#A9C2DC" fill-rule="evenodd"></path>
                                <path d="M237,137 C235.343146,137 234,135.848321 234,134.427653 L234,75.5723473 C234,74.1516791 235.343146,73 237,73 L237,137 Z" id="Path" fill="#303D72" fill-rule="evenodd"></path>
                                <polygon id="Path" fill="#A9C2DC" fill-rule="evenodd" points="195.706602 145 176 145 183.293398 102 203 102"></polygon>
                                <polygon id="Path" fill="#303D72" fill-rule="evenodd" points="203 102 203 137 197 137"></polygon>
                                <path d="M197,92 C197,94.7603143 195.43222,97 193.497708,97 C191.563196,97 190,94.7603143 190,92 C190,89.2396857 191.56778,87 193.497708,87 C195.427636,87 197,89.2347741 197,92 Z" id="Path" fill="#FFFFFF" fill-rule="evenodd"></path>
                                <polygon id="Path" fill="#F0F1F4" fill-rule="evenodd" points="247.666056 145 257.338704 145 259 126 246 126"></polygon>
                                <path d="M134,49.2594201 L133.118329,57.1679219 C133.118329,57.1679219 132.078886,58.9985487 126.589327,58.9985487 C125.002538,59.0258459 123.431398,58.6677268 122,57.9524762 L122,44 L134,49.2594201 Z" id="Path" fill="#FBAD83" fill-rule="evenodd"></path>
                                <path d="M134,48.6725933 L133.392265,53.9729188 C132.381368,54.0469438 131.365186,53.9690039 130.376966,53.7416491 C129.077348,53.4395824 125.356141,49.5551943 123,44 L134,48.6725933 Z" id="Path" fill="#E68D5C" fill-rule="evenodd"></path>
                                <path d="M140.552572,24.6590951 C140.552572,24.6590951 141.841784,37.6516471 140.043427,43.9414284 C138.24507,50.2312097 132.639803,52.8942793 127.688483,51.7360102 C125.852758,51.3087798 119.201174,43.7135722 118.34637,34.3287438 C117.491567,24.9439154 118.309002,22.1099536 119.813082,20.1304526 C121.317162,18.1509516 134.965989,15.6730151 137.441649,17.8423963 C139.917308,20.0117775 140.552572,24.6590951 140.552572,24.6590951 Z" id="Path" fill="#FBAD83" fill-rule="evenodd"></path>
                                <path d="M137,24.0555656 C137,24.0555656 141.031831,29.8352278 142.01739,29.9951394 C143.002948,30.155051 143.141823,26.340017 142.890953,22.8676508 C142.49225,17.4169496 138.774006,15 138.774006,15 L137,24.0555656 Z" id="Path" fill="#F76A00" fill-rule="evenodd"></path>
                                <path d="M140,18.7350156 C140,18.7350156 138.740547,25.7400997 136.137676,29.9289025 C133.534805,34.1177053 123.669086,32.5837106 121.947833,32.7214377 C120.22658,32.8591648 122.199724,46.9310727 123.445184,51.6280409 C124.690643,56.3250092 115.715871,54.9524876 112.85178,54.2923475 C109.98769,53.6322073 108.485675,28.9173209 112.226718,19.333416 C115.967762,9.74951111 131.421722,10.1246987 135.661882,12.2096017 C138.140687,13.4493363 139.790705,15.931301 140,18.7350156 Z" id="Path" fill="#F76A00" fill-rule="evenodd"></path>
                                <path d="M112.938801,54.3221912 C115.899998,54.9403918 125.163973,56.2967424 123.87838,51.7340529 C122.79224,47.335522 122.067776,42.8621528 121.71165,38.3550848 L110.059457,34 C109.698335,43.6836049 111.022448,53.9254356 112.938801,54.3221912 Z" id="Path" fill="#E56107" fill-rule="evenodd"></path>
                                <path d="M118,40.4146341 C118,42.3121951 120.249782,44 121.629242,44 C123.008703,44 122.999999,42.3121951 122.999999,40.4146341 C122.999999,38.5170732 121.877284,37 120.497824,37 C119.118364,37 118,38.5170732 118,40.4146341 Z" id="Path" fill="#FBAD83" fill-rule="evenodd"></path>
                                <path d="M119.024333,40.2420265 C119.166534,39.4135253 120.269555,38.8859009 120.865264,39.0210774 C121.460972,39.1562539 119.896757,39.6271914 119.754556,40.4600531 C119.612355,41.2929147 120.446346,42.1170553 119.850638,41.9862393 C119.25493,41.8554234 118.901348,41.0923302 119.024333,40.2420265 Z" id="Path" fill="#E68D5C" fill-rule="evenodd"></path>
                                <path d="M129.443705,36.9999944 C129.293874,37.000775 129.153821,36.9198108 129.071415,36.7847742 C128.938759,36.5640671 128.996184,36.2691835 129.199944,36.1247656 L132.120645,34.0777823 C132.225403,34.0039855 132.354184,33.9814029 132.475206,34.0156076 L134.6336,34.6277895 C134.797818,34.6589751 134.93192,34.7869834 134.980643,34.959064 C135.029367,35.1311447 134.984466,35.3181737 134.864444,35.4430791 C134.744422,35.5679845 134.569592,35.6096265 134.411999,35.550845 L132.43975,34.9960552 L129.683034,36.9091237 C129.613168,36.9639338 129.529982,36.9955184 129.443705,36.9999944 Z" id="Path" fill="#F76A00" fill-rule="evenodd"></path>
                                <path d="M142.532055,36 C142.442492,35.9997803 142.354883,35.975211 142.27965,35.9292159 L140.639023,34.9205418 L138.559026,35.4337268 C138.316776,35.4795058 138.078716,35.3389646 138.015604,35.112913 C137.952493,34.8868614 138.086124,34.6533576 138.320644,34.5798931 L140.60163,34.0136199 C140.727807,33.9832832 140.861635,34.004127 140.970888,34.0711321 L142.789133,35.1859823 C143.004024,35.31957 143.064586,35.5923397 142.924683,35.7964956 C142.838868,35.9230931 142.690972,35.9997494 142.532055,36 Z" id="Path" fill="#F76A00" fill-rule="evenodd"></path>
                                <path d="M122.006418,54.985258 C118.997719,54.991473 116.450686,52.7637589 116.053044,49.7782531 C115.655403,46.7927473 117.5304,43.9747977 120.435618,43.1916462 C120.523305,43.1688233 120.616493,43.1945643 120.68008,43.2591728 C120.743667,43.3237813 120.767993,43.4174417 120.743894,43.5048731 C120.719795,43.5923044 120.650932,43.6602238 120.563246,43.6830467 C117.76658,44.4414839 116.036548,47.2409907 116.607126,50.0847675 C117.177704,52.9285443 119.853388,54.8421898 122.725697,54.4607613 C125.598006,54.0793327 127.682762,51.5335241 127.492975,48.63918 C127.303188,45.744836 124.903887,43.4936845 122.006418,43.4914005 C121.870867,43.4914005 121.76098,43.3813967 121.76098,43.2457002 C121.76098,43.1100037 121.870867,43 122.006418,43 C125.316582,43 128,45.6862915 128,49 C128,52.3137085 125.316582,55 122.006418,55 L122.006418,54.985258 Z" id="Path" fill="#FFFFFF" fill-rule="evenodd"></path>
                                <path d="M92,128.133705 C92,128.133705 109.316547,135.244577 121,137 L108.657456,63 L92,128.133705 Z" id="Path" fill="#EDB607" fill-rule="evenodd"></path>
                                <path d="M296.363423,98.4170927 L306.770242,134.316924 L260.540314,137.054609 C260.540314,137.054609 259.324608,141.595503 260.540314,145 L311.06069,145 C313.31189,145.000481 315.457411,144.052003 316.963135,142.390686 C318.468859,140.729369 319.193144,138.511491 318.955681,136.289184 C317.304781,120.670762 313.752272,89.3634793 311.812819,87.7340168 C308.80104,85.3416376 304.849149,84.4552277 301.093795,85.3297377 C299.797673,85.6349684 298.728609,86.6774488 297.867681,87.9594179 C295.846646,91.0580165 295.296765,94.8808102 296.363423,98.4170927 Z" id="Path" fill="#60D6E6" fill-rule="evenodd"></path>
                                <path d="M111.430343,61.0065435 C108.904193,61.0581057 106.859948,63.1275072 106.779341,65.7147821 C106.465272,74.9088602 105.790946,95.9989302 106.063447,100.390132 C106.409848,106.068409 117.49004,138.628601 117.49004,138.628601 C119.128638,139.1238 120.871939,139.1238 122.510536,138.628601 L125,137.772127 C125,137.772127 117.716355,102.992676 117.49004,100.390132 C117.263725,97.7875877 119.748571,68.6864142 119.023439,64.0728135 C118.612377,61.4087548 114.695744,60.935565 111.430343,61.0065435 Z" id="Path" fill="#F9C200" fill-rule="evenodd"></path>
                            </g>
                        </g>
                    </g>
                </g>
            </g>
        </g>
    </g>
</svg>