<?xml version="1.0" encoding="UTF-8"?>
<svg width="668px" height="477px" viewBox="0 0 668 477" version="1.1" xmlns="http://www.w3.org/2000/svg" xmlns:xlink="http://www.w3.org/1999/xlink">
    <!-- Generator: Sketch 52.6 (67491) - http://www.bohemiancoding.com/sketch -->
    <title>featured-graphic@2x</title>
    <desc>Created with Sketch.</desc>
    <defs>
        <linearGradient x1="40.8202282%" y1="12.8180298%" x2="106.560726%" y2="201.156304%" id="linearGradient-1">
            <stop stop-color="#78E0B4" offset="0%"></stop>
            <stop stop-color="#59B193" offset="100%"></stop>
        </linearGradient>
        <rect id="path-2" x="0" y="0" width="668" height="477"></rect>
    </defs>
    <g id="Page-1" stroke="none" stroke-width="1" fill="none" fill-rule="evenodd">
        <g id="wed-dev-exercise" transform="translate(0.000000, -185.000000)">
            <g id="=Section-Featured" transform="translate(0.000000, 185.000000)">
                <g id="featured-graphic">
                    <mask id="mask-3" fill="white">
                        <use xlink:href="#path-2"></use>
                    </mask>
                    <use id="Rectangle" fill="url(#linearGradient-1)" fill-rule="nonzero" xlink:href="#path-2"></use>
                    <g id="teamwork_white_15" mask="url(#mask-3)">
                        <g transform="translate(139.000000, 28.000000)">
                            <path d="M143.877376,327.066426 L141,342 L167,342 C166.991087,339.191237 165.217082,336.70532 162.600245,335.834614 L152.74065,332.581112 L154.015941,324 L143.877376,327.066426 Z" id="Path" fill="#222747" fill-rule="evenodd"></path>
                            <path d="M149.681444,170 C149.681444,170 147.718066,184.07068 146.716664,197.589568 C145.715262,211.108457 152.756615,250.963559 152.756615,250.963559 L141,328.679432 C141,328.679432 147.69441,331.722168 150.777466,330.839301 L153.860522,329.956435 L173.234098,250.490595 L186,178.59218 L149.681444,170 Z" id="Path" fill="#303D72" fill-rule="evenodd"></path>
                            <path d="M186,178.467625 L150.682881,170 L150.067383,170.181168 C149.934934,171.150022 149.514214,174.363781 149,178.759069 L172.614866,188.699668 L161.761845,233.68442 L166.436513,279 L173.355022,250.312473 L186,178.467625 Z" id="Path" fill="#27345E" fill-rule="evenodd"></path>
                            <path d="M215.789672,72 L227.168299,115.852515 L264.81436,121.675028 C265.06188,124.652841 265.06188,127.645911 264.81436,130.623724 L264.3589,134 C264.3589,134 227.058361,131.655364 219.056414,128.912139 C211.054466,126.168915 205,85.0283625 205,85.0283625 L215.789672,72 Z" id="Path" fill="#F89900" fill-rule="evenodd"></path>
                            <polygon id="Rectangle" fill="#1A2249" fill-rule="evenodd" transform="translate(137.536064, 386.334817) rotate(-85.750000) translate(-137.536064, -386.334817) " points="48.1640794 385.92124 226.907879 385.95965 226.908048 386.748393 48.1642484 386.709984"></polygon>
                            <polygon id="Rectangle" fill="#1A2249" fill-rule="evenodd" transform="translate(200.542340, 386.334567) rotate(-85.750000) translate(-200.542340, -386.334567) " points="111.170356 385.92099 289.914156 385.9594 289.914325 386.748144 111.170525 386.709734"></polygon>
                            <rect id="Rectangle" fill="#1A2249" fill-rule="evenodd" x="128" y="436" width="69" height="1"></rect>
                            <rect id="Rectangle" fill="#1A2249" fill-rule="evenodd" x="132" y="386" width="69" height="1"></rect>
                            <rect id="Rectangle" fill="#1A2249" fill-rule="evenodd" x="135" y="340" width="69" height="1"></rect>
                            <path d="M319.399655,385.680825 C331.012382,397.682722 350.31881,398.154212 362.522891,386.733954 C374.726973,375.313696 375.207763,356.325849 363.596794,344.322307 C351.985825,332.318764 332.679467,331.844539 320.473712,343.263067 C308.274161,354.687714 307.793432,373.673122 319.399655,385.680825 Z" id="Path" fill="#00C99C" fill-rule="evenodd"></path>
                            <path d="M319.20038,385.674956 C328.696402,395.646859 343.763789,397.88599 355.75303,391.106963 C367.742271,384.327936 373.579691,370.268687 369.914289,357 L311,366.641797 C311.373813,373.760482 314.282295,380.511095 319.20038,385.674956 Z" id="Path" fill="#08BF8B" fill-rule="evenodd"></path>
                            <polygon id="Rectangle" fill="#303D72" fill-rule="evenodd" transform="translate(340.602612, 412.003315) rotate(-1.820000) translate(-340.602612, -412.003315) " points="340.202373 348.499605 340.991127 348.499678 341.00285 475.507026 340.214096 475.506953"></polygon>
                            <polygon id="Rectangle" fill="#303D72" fill-rule="evenodd" transform="translate(348.268176, 362.774126) rotate(-41.600000) translate(-348.268176, -362.774126) " points="336.2702 362.363096 360.265016 362.397678 360.266151 363.185156 336.271336 363.150573"></polygon>
                            <polygon id="Rectangle" fill="#303D72" fill-rule="evenodd" transform="translate(334.079852, 358.888073) rotate(-66.530000) translate(-334.079852, -358.888073) " points="333.680792 353.562056 334.467625 353.562892 334.478911 364.21409 333.692079 364.213255"></polygon>
                            <polygon id="Path" fill="#FF9398" fill-rule="evenodd" points="269.444338 356 316 398.331045 316 476 258 451.575502"></polygon>
                            <polygon id="Path" fill="#F4828B" fill-rule="evenodd" points="294 377.91805 279.050442 459 258 450.231218 269.476991 356"></polygon>
                            <polygon id="Path" fill="#FF9398" fill-rule="evenodd" points="190.555662 356 144 398.331045 144 476 202 451.575502"></polygon>
                            <polygon id="Path" fill="#F4828B" fill-rule="evenodd" points="190.357907 356 162 381.391304 171.452636 464 202 451.399209"></polygon>
                            <path d="M178.320418,62 L155.857066,69.0490416 C154.057798,69.612965 151.017113,71.9704778 150.954257,74.0616935 L148,172.387992 C171.554993,181.835908 197.984162,181.132674 221,170.445589 C219.09859,137.393416 217.202418,104.338633 215.311484,71.2812382 L194.513831,62.2271358 L178.320418,62 Z" id="Path" fill="#F9C200" fill-rule="evenodd"></path>
                            <g id="Group" stroke-width="1" fill="none" fill-rule="evenodd" transform="translate(148.000000, 92.000000)">
                                <polygon id="Path" fill="#EDB607" points="2.4411828 1.50857143 1.90741935 19.36 8.83064516 0.306428571"></polygon>
                                <path d="M73,78.7128571 C72.4348387,68.86 71.8722939,59.0097619 71.3123656,49.1621429 L42.6853763,52.9571429 L35.9034409,77.4242857 L22.7163441,75.8528571 L29.1764516,33.6364286 L1.75827957,24.915 L0.086344086,80.5985714 C9.74648545,84.5071798 19.999917,86.7442589 30.4088172,87.2142857 C45.0774414,87.7878294 59.6731189,84.8744538 73,78.7128571 Z" id="Path" fill="#EDB607"></path>
                            </g>
                            <path d="M177,62 C177,62 179.143234,71.6936112 187.091387,70.9604093 C195.039541,70.2272074 194.999998,62.7161507 194.999998,62.7161507 L177,62 Z" id="Path" fill="#FFFFFF" fill-rule="evenodd"></path>
                            <path d="M178,40 L178,63.3005814 C178,63.3005814 181.962264,66.3607244 188.904151,65.9646145 C195.338868,65.5995721 196.036226,63.7199919 196.036226,63.7199919 L199,51.3473831 L178,40 Z" id="Path" fill="#A55B3A" fill-rule="evenodd"></path>
                            <path d="M196.715618,61.8238288 C193.158508,62.6637831 189.038462,60.3623085 185.962704,57.8424458 C180.292541,53.2058984 178,44 178,44 L196.764569,49.8040838 L199,51.0724146 L196.715618,61.8238288 Z" id="Path" fill="#8E4A2F" fill-rule="evenodd"></path>
                            <path d="M209.957501,10.9644903 C209.957501,10.9644903 213.212617,12.1431844 212.988983,19.672394 C212.706174,23.1407335 212.208312,26.5894854 211.49809,30 L203,9 L209.957501,10.9644903 Z" id="Path" fill="#1A2249" fill-rule="evenodd"></path>
                            <path d="M210.178675,49.6876361 C203.819566,63.1275597 188.054925,55.1990283 181.304245,48.4200159 C174.553564,41.6410034 175.485502,15.7532068 177.388537,10.8480677 C179.291571,5.94292857 194.8291,1.96685275 203.059918,5.13196657 C211.290736,8.2970804 216.529954,36.2555859 210.178675,49.6876361 Z" id="Path" fill="#A55B3A" fill-rule="evenodd"></path>
                            <path d="M186.201973,27 C186.201973,27 187.978988,41.9970594 192.080403,43.1958715 C195.586835,44.2279613 200.457762,39.2262951 206.780446,38.9404856 C210.294811,38.7975809 211.540309,39.1310253 213,40.0996019 C212.673711,43.3898622 211.821975,46.6064104 210.477273,49.6265851 C204.043525,63.1787188 188.074185,55.183992 181.235849,48.3483815 C177.927744,45.0377549 176.436321,37.2335678 176,29.4611373 L186.201973,27 Z" id="Path" fill="#1A2249" fill-rule="evenodd"></path>
                            <path d="M182.970039,31.8455765 C182.970039,31.8455765 184.90972,32.0289852 185.704289,30.8979651 C186.498857,29.766945 184.22421,23.3858519 186.483277,16.6226573 C188.119154,11.7852538 195.566285,8.98062964 201.650186,10.1651439 C207.734088,11.3496582 209.276485,11.8616741 209.899676,10.1269338 C210.522867,8.39219351 208.123582,4.31135072 205.996943,2.69124085 C203.870304,1.07113097 193.977148,-1.77934536 185.743238,1.52965264 C177.509328,4.83865063 175.834503,7.03191258 173.9883,12.2819856 C172.142096,17.5320586 173.326159,30.6763463 173.9883,31.5169693 C174.65044,32.3575924 182.970039,31.8455765 182.970039,31.8455765 Z" id="Path" fill="#1A2249" fill-rule="evenodd"></path>
                            <path d="M173,31.3764562 C173,34.8835071 177.495765,38 180.259428,38 C183.023092,38 182.999997,34.8835071 182.999997,31.3764562 C182.999997,27.8694053 180.759813,25 177.996149,25 C175.232486,25 173,27.8694053 173,31.3764562 Z" id="Path" fill="#A55B3A" fill-rule="evenodd"></path>
                            <path d="M213,40 C213,40 213,56.1631661 211.048746,59.0784761 C209.097492,61.993786 202.707934,62.6268694 199.853025,61.4232294 C196.998116,60.2195894 192.255928,55.8270848 191.056387,52.1145588 C189.856845,48.4020327 208.193837,43.1028902 208.193837,43.1028902 L213,40 Z" id="Path" fill="#1A2249" fill-rule="evenodd"></path>
                            <path d="M175.048838,29.3578384 C174.64893,30.927968 176.791295,32.7100652 178.324276,32.9769872 C179.857257,33.2439092 176.562776,31.1320849 176.962684,29.5855072 C177.362592,28.0389295 180.066733,27.3088192 178.533752,27.0418972 C177.000771,26.7749751 175.448746,27.8112607 175.048838,29.3578384 Z" id="Path" fill="#8E4A2F" fill-rule="evenodd"></path>
                            <path d="M209,46.4489834 C209,46.4489834 202.244094,46.6008454 201.125984,46.2971213 L200,46 C200.067063,47.6578413 201.305954,49.1226367 203.149606,49.7239208 C206.299213,50.6813118 208,48.9183919 208.417323,47.9411928 C208.834646,46.9639937 209,46.4489834 209,46.4489834 Z" id="Path" fill="#FFFFFF" fill-rule="evenodd"></path>
                            <path d="M213.116392,24.9744845 C213.034218,24.9868776 212.950377,24.9868776 212.868202,24.9744845 C210.984831,24.4861787 208.990015,24.4861787 207.106644,24.9744845 C206.661253,25.0788345 206.202515,24.8545639 206.050212,24.4580104 C205.89791,24.0614569 206.102613,23.624289 206.521624,23.451254 C208.752107,22.849582 211.125236,22.849582 213.355718,23.451254 C213.82478,23.573115 214.098065,24.0184154 213.96733,24.4478356 C213.835308,24.7711034 213.493786,24.9824727 213.116392,24.9744845 Z" id="Path" fill="#1A2249" fill-rule="evenodd"></path>
                            <path d="M195.774956,26.9999664 C195.470847,26.9965583 195.196013,26.7939026 195.070166,26.4802714 C194.944319,26.1666402 194.990245,25.7988224 195.18794,25.5370312 C195.305344,25.3774382 198.232594,21.6536032 203.406156,23.524387 C203.689668,23.6042454 203.91032,23.8563219 203.978417,24.1781475 C204.046513,24.4999732 203.950719,24.837973 203.729974,25.0547503 C203.509229,25.2715276 203.200281,25.330995 202.928717,25.208979 C198.772648,23.7105788 196.463721,26.5832515 196.369798,26.6985131 C196.219627,26.8921702 196.002493,27.0022092 195.774956,26.9999664 Z" id="Path" fill="#1A2249" fill-rule="evenodd"></path>
                            <rect id="Rectangle" fill="#1A2249" fill-rule="evenodd" x="213" y="30" width="4" height="1"></rect>
                            <path d="M211.504071,39 C208.467061,39 206,35.8576349 206,32 C206,28.1423651 208.442635,25 211.504071,25 C214.565507,25 217,28.1423651 217,32 C217,35.8576349 214.532939,39 211.504071,39 Z M211.504071,25.8036739 C208.914878,25.8036739 206.814212,28.5843858 206.814212,32 C206.814212,35.4156142 208.914878,38.1963261 211.504071,38.1963261 C214.093264,38.1963261 216.185788,35.4156142 216.185788,32 C216.185788,28.5843858 214.085122,25.8036739 211.504071,25.8036739 Z" id="Shape" fill="#1A2249" fill-rule="nonzero"></path>
                            <path d="M199.495929,39 C196.467061,39 194,35.8576349 194,32 C194,28.1423651 196.442635,25 199.495929,25 C202.549223,25 205,28.1423651 205,32 C205,35.8576349 202.532939,39 199.495929,39 Z M199.495929,25.8036739 C196.914878,25.8036739 194.814212,28.5843858 194.814212,32 C194.814212,35.4156142 196.914878,38.1963261 199.495929,38.1963261 C202.07698,38.1963261 204.185788,35.4156142 204.185788,32 C204.185788,28.5843858 202.085122,25.8036739 199.495929,25.8036739 Z" id="Shape" fill="#1A2249" fill-rule="nonzero"></path>
                            <rect id="Rectangle" fill="#1A2249" fill-rule="evenodd" x="184" y="30" width="11" height="1"></rect>
                            <rect id="Rectangle" fill="#1A2249" fill-rule="evenodd" x="205" y="30" width="2" height="1"></rect>
                            <path d="M193.760282,154 C180.142092,187.675219 168,230.922449 168,278.089796 C168,353.374927 181.848334,418.662974 202.124835,451 L259.875165,451 C280.135794,418.662974 294,353.390671 294,278.089796 C294,230.922449 281.857908,187.675219 268.239718,154 C255.978766,156.381241 243.513605,157.575479 231.01984,157.565889 C218.512819,157.578029 206.034244,156.38378 193.760282,154 Z" id="Path" fill="#E2E2E2" fill-rule="evenodd"></path>
                            <path d="M294,278.089796 C294,230.922449 281.846556,187.675219 268.215635,154 C255.943221,156.381241 243.466406,157.575479 230.960961,157.565889 C228.117214,157.565889 225.289354,157.495044 222.485324,157.376968 C215.641838,186.515449 212.124657,216.323808 212,246.240816 C212,330.420991 225.321128,405.005539 245.807227,451 L259.859149,451 C280.138719,418.631487 294,353.374927 294,278.089796 Z" id="Path" fill="#F8F8F8" fill-rule="evenodd"></path>
                            <path d="M195,135.819227 C206.26323,141.115199 218.021786,145.312741 230.108813,148.352289 C242.192124,151.410659 254.547111,153.302097 267,154 C260.876554,108.262157 248.526681,77 248.526681,77 C248.526681,77 222.543624,98.5803662 195,135.819227 Z" id="Path" fill="#303D72" fill-rule="evenodd"></path>
                            <path d="M250,77 L249.928075,77.0624929 C248.329732,78.3670327 222.916087,99.716178 196,135.649609 C204.907064,139.788045 214.12757,143.248448 223.579399,146 L250,77 Z" id="Path" fill="#27345E" fill-rule="evenodd"></path>
                            <rect id="Rectangle" fill="#FF9398" fill-rule="evenodd" x="224" y="371" width="12" height="105"></rect>
                            <rect id="Rectangle" fill="#F4828B" fill-rule="evenodd" x="224" y="426" width="12" height="49"></rect>
                            <path d="M327,413 C327,437.300529 346.699471,457 371,457 C395.300529,457 415,437.300529 415,413 C415,388.699471 395.300529,369 371,369 C346.701276,369.004358 327.004358,388.701276 327,413 Z" id="Path" fill="#00B98F" fill-rule="evenodd"></path>
                            <polygon id="Rectangle" fill="#303D72" fill-rule="evenodd" transform="translate(369.739085, 434.106450) rotate(-80.670000) translate(-369.739085, -434.106450) " points="327.844397 433.692615 411.633407 433.731587 411.633772 434.520284 327.844763 434.481312"></polygon>
                            <polygon id="Rectangle" fill="#303D72" fill-rule="evenodd" transform="translate(387.287904, 417.814060) rotate(-25.060000) translate(-387.287904, -417.814060) " points="369.541794 417.400869 405.033136 417.440371 405.034013 418.227251 369.542671 418.187749"></polygon>
                            <polygon id="Rectangle" fill="#303D72" fill-rule="evenodd" transform="translate(360.127217, 404.015555) rotate(-53.540000) translate(-360.127217, -404.015555) " points="359.711173 387.862058 360.49845 387.863151 360.543262 420.169053 359.755985 420.16796"></polygon>
                            <path d="M257.999999,203.507847 C257.995583,218.142371 245.905317,230.002888 230.99467,229.999999 C216.084023,229.997111 203.998529,218.131909 204,203.497385 C204.001471,188.862861 216.089351,177.000001 230.999999,177 C238.162229,177 245.030997,179.793033 250.094709,184.764444 C255.158421,189.735856 258.00212,196.478251 257.999999,203.507847 Z" id="Path" fill="#A9C2DC" fill-rule="evenodd"></path>
                            <path d="M247.999999,203.500001 C247.999999,218.135546 235.911687,230 220.999999,230 C206.088311,230 194,218.135546 194,203.500001 C194,188.864455 206.088311,177.000001 220.999999,177.000001 C228.161494,176.997919 235.030282,179.789207 240.094224,184.759372 C245.158166,189.729538 248.00212,196.471126 247.999999,203.500001 Z" id="Path" fill="#303D72" fill-rule="evenodd"></path>
                            <path d="M194,203 C194,203.345799 194,203.691598 194,204.045082 C193.998474,214.783986 200.872805,224.414405 211.291619,228.269333 C221.710433,232.124261 233.521082,229.407226 241,221.434932 L194,203 Z" id="Path" fill="#27345E" fill-rule="evenodd"></path>
                            <circle id="Oval" fill="#303D72" fill-rule="evenodd" cx="230" cy="260" r="6"></circle>
                            <circle id="Oval" fill="#303D72" fill-rule="evenodd" cx="230" cy="284" r="6"></circle>
                            <circle id="Oval" fill="#60D6E6" fill-rule="evenodd" cx="336.5" cy="182.5" r="2.5"></circle>
                            <path d="M343.387539,213.316199 L302.830989,223.954559 L284.263978,190 L277,192.78755 C277,192.78755 289.915495,229.395793 293.749041,236.03394 C297.582587,242.672088 345,230.372222 345,230.372222 L343.387539,213.316199 Z" id="Path" fill="#0CBFD1" fill-rule="evenodd"></path>
                            <path d="M348.450411,307 L339.290596,376.125317 L349,456.059064 C349,456.059064 345.766187,459.690633 341.385406,458.882746 C338.726334,458.388133 336.177704,457.432036 333.858428,456.059064 C333.858428,456.059064 323.280832,388.682861 320.986896,376.125317 C318.69296,363.567774 318,309.415817 318,309.415817 L348.450411,307 Z" id="Path" fill="#1A2249" fill-rule="evenodd"></path>
                            <path d="M320.495929,192 C317.467061,192 315,188.865672 315,185 C315,181.134328 317.442635,178 320.495929,178 C323.549223,178 326,181.142365 326,185 C326,188.857635 323.532939,192 320.495929,192 Z M320.495929,178.803674 C317.914878,178.803674 315.814212,181.584386 315.814212,185 C315.814212,188.415614 317.914878,191.196326 320.495929,191.196326 C323.07698,191.196326 325.185788,188.423651 325.185788,185 C325.185788,181.576349 323.085122,178.803674 320.495929,178.803674 Z" id="Shape" fill="#1A2249" fill-rule="nonzero"></path>
                            <path d="M308,192 C305.243067,192 303,189.30969 303,185.9962 C303,182.682711 305.243067,180 308,180 C310.756933,180 313,182.69031 313,185.9962 C313,189.30209 310.756933,192 308,192 Z M308,180.759975 C305.69168,180.759975 303.815661,183.108296 303.815661,185.9962 C303.815661,188.884104 305.69168,191.240025 308,191.240025 C310.30832,191.240025 312.184339,188.884104 312.184339,185.9962 C312.184339,183.108296 310.30832,180.759975 308,180.759975 Z" id="Shape" fill="#1A2249" fill-rule="nonzero"></path>
                            <path d="M320,198.110367 L320.282227,207.970552 C320.282227,207.970552 321.477539,210.321948 328.973145,210.988177 C331.373975,211.108114 333.72507,210.311621 335.497559,208.777865 L337,193 L320,198.110367 Z" id="Path" fill="#FBAD83" fill-rule="evenodd"></path>
                            <path d="M319,199.196108 L319.43038,205.929525 C320.137115,206.065447 320.872439,206.003828 321.540084,205.752734 C325.177215,204.49214 324.738397,200.77185 327,194 L319,199.196108 Z" id="Path" fill="#E68D5C" fill-rule="evenodd"></path>
                            <path d="M308.562892,169.849633 C308.562892,169.849633 306.937948,186.583889 309.209789,194.640238 C311.48163,202.696588 318.558993,206.147032 324.79693,204.664855 C327.107277,204.107046 335.51694,194.345397 336.571998,182.280795 C337.627056,170.216193 336.625906,166.5745 334.72372,164.024518 C332.821535,161.474536 315.594048,158.295027 312.467378,161.08407 C309.340709,163.873112 308.562892,169.849633 308.562892,169.849633 Z" id="Path" fill="#FBAD83" fill-rule="evenodd"></path>
                            <path d="M337.795731,161.590581 C337.795731,161.590581 341.277042,165.554725 340.982286,175.425915 C340.68753,185.297105 338.39321,192.590817 335.493446,195.614848 C332.593681,198.638879 322.579934,198.482194 319.504908,196.836995 C316.429883,195.191797 310.765783,188.814695 311.076472,185.022905 C311.203934,183.401209 311.363262,181.285955 311.506657,179.397894 C311.700307,176.740743 309.904955,174.337962 307.268539,173.725877 L306.041716,173.436008 C306.041716,173.436008 305.245077,163.690167 310.614421,159.639846 C315.983766,155.589524 322.364841,155.291822 328.769816,156.93702 C335.17479,158.582218 337.795731,161.590581 337.795731,161.590581 Z" id="Path" fill="#1A2249" fill-rule="evenodd"></path>
                            <path d="M319,189.401996 C319,191.852087 316.272727,194 314.643182,194 C313.013636,194 313,191.835753 313,189.401996 C313,186.96824 314.363636,185 316,185 C317.636364,185 319,186.96824 319,189.401996 Z" id="Path" fill="#FBAD83" fill-rule="evenodd"></path>
                            <path d="M317.898922,187.658807 C317.6211,186.550474 315.448135,185.852072 314.267391,186.026673 C313.086648,186.201273 316.182378,186.831353 316.4602,187.939686 C316.738022,189.048019 315.090935,190.156352 316.271678,189.981752 C317.553835,189.678847 318.279188,188.64338 317.898922,187.658807 Z" id="Path" fill="#E68D5C" fill-rule="evenodd"></path>
                            <path d="M325,169 C325,176.731986 331.268014,183 339,183 C346.731986,183 353,176.731986 353,169 C353,161.268014 346.731986,155 339,155 C331.268014,155 325,161.268014 325,169 Z" id="Path" fill="#1A2249" fill-rule="evenodd"></path>
                            <rect id="Rectangle" fill="#1A2249" fill-rule="evenodd" x="304" y="185" width="10" height="1"></rect>
                            <path d="M347.85904,293 C347.85904,293 350.786847,300.652468 347.26234,311.875564 C344.748244,319.905544 331.119618,320.707756 331.119618,320.707756 L309.00194,381.738747 L311.850188,456.816305 C311.850188,456.816305 304.761393,461.259927 299.844586,459.647639 L294.935734,458.035351 C294.935734,458.035351 289.644995,384.892539 290.018927,376.500778 C290.392859,368.109017 299.844586,293 299.844586,293 L347.85904,293 Z" id="Path" fill="#303D72" fill-rule="evenodd"></path>
                            <path d="M291,366 L308.575846,310.222584 L335,299.999892 L330.330284,293 L299.86441,293 C299.86441,293 293.584446,342.640633 291,366 Z" id="Path" fill="#27345E" fill-rule="evenodd"></path>
                            <path d="M236,232.058942 L231.362302,227.923653 C229.638784,228.788049 227.816441,229.444193 225.934537,229.877948 C224.272802,230.253895 222.574768,230.450473 220.870203,230.464237 C220.554176,227.134118 219.463883,226.10225 218.626411,225.523778 C217.393905,224.679523 215,225.109468 215,225.109468 C215,225.109468 216.580135,232.144931 217.694131,234.607343 C218.808126,237.069755 228.059819,237.851474 229.545147,237.648227 C230.303585,237.48618 231.095871,237.611717 231.765237,238 L236,232.058942 Z" id="Path" fill="#FBAD83" fill-rule="evenodd"></path>
                            <path d="M320.28075,207 L302.581633,214.139544 L294,294.768788 C294,294.768788 336.388307,311.039015 352,294.768788 L347.585218,218.851642 C347.360172,214.996218 344.883223,211.627385 341.250965,210.236593 L334.908715,207.817081 L320.28075,207 Z" id="Path" fill="#60D6E6" fill-rule="evenodd"></path>
                            <path d="M283,190.72471 C283,190.72471 282.681132,185.616915 280.146541,182.536761 C277.61195,179.456606 275.559748,179 275.559748,179 L277.252201,185.686567 C277.252201,185.686567 277.65283,186.653952 276.001258,186.739082 C274.349686,186.824212 274.177987,183.705362 272.183019,183.411277 C270.18805,183.117192 270,183.411277 270,183.411277 C270,183.411277 272.044025,188.054726 273.736478,189.765064 C275.428931,191.475401 276.761635,193 276.761635,193 L283,190.72471 Z" id="Path" fill="#FBAD82" fill-rule="evenodd"></path>
                            <path d="M195,131.100387 C195,131.100387 204.821792,136.203961 208.474782,137.534314 C212.127772,138.864666 215.329006,137.153102 217.54884,134.81915 C219.768674,132.485198 213.257161,128.105148 209.759949,125.662279 L206.247159,123.219409 L209.463971,119.251691 C209.463971,119.251691 207.384337,118.34145 204.260992,119.982996 C202.431539,120.963941 200.424211,121.569672 198.357012,121.764579 L195,131.100387 Z" id="Path" fill="#A55B3A" fill-rule="evenodd"></path>
                            <path d="M167.324616,75.3037184 C172.946915,80.0936716 152.597667,113.365062 152.597667,113.365062 L198.397293,120.800447 C199.355671,123.148825 199.163236,125.804666 197.876125,127.993203 C195.680902,131.562188 193.99895,132.837944 193.99895,132.837944 C193.99895,132.837944 151.081542,134.536342 140.231768,126.936596 C129.381995,119.33685 149.146902,73.6522803 151.342126,71.9538819 C153.537349,70.2554835 161.702317,70.5137653 167.324616,75.3037184 Z" id="Path" fill="#F9C200" fill-rule="evenodd"></path>
                            <path d="M266.999932,123.251358 C267.008872,121.8344 266.139678,120.553487 264.801919,120.012194 C262.835696,119.229787 259.926326,118.44738 257.840212,119.534926 C254.379341,121.397054 256.385527,130.676399 259.063107,132.749777 C261.740686,134.823155 264.97776,133.954683 266.088755,132.749777 C266.88004,131.896953 266.999932,126.388809 266.999932,123.251358 Z" id="Path" fill="#A55B3A" fill-rule="evenodd"></path>
                            <circle id="Oval" fill="#00C99C" fill-rule="evenodd" cx="61.5" cy="374.5" r="61.5"></circle>
                            <polygon id="Rectangle" fill="#303D72" fill-rule="evenodd" transform="translate(65.056993, 404.475803) rotate(-8.400000) translate(-65.056993, -404.475803) " points="64.6324456 332.615384 65.4211532 332.615714 65.4815414 476.336221 64.6928338 476.335891"></polygon>
                            <polygon id="Rectangle" fill="#303D72" fill-rule="evenodd" transform="translate(76.287222, 374.238398) rotate(-50.710000) translate(-76.287222, -374.238398) " points="55.523277 373.814924 97.0500464 373.874033 97.0511672 374.661872 55.5243978 374.602764"></polygon>
                            <polygon id="Path" fill="#303D72" fill-rule="evenodd" points="59.7778927 369 14 355.754632 14.2221073 355 60 368.253229"></polygon>
                            <path d="M295,294.69602 C300.862007,296.937447 306.879411,298.710569 313,300 L311.029252,225 L301.769745,227.671576 L295,294.69602 Z" id="Path" fill="#50CAD3" fill-rule="evenodd"></path>
                            <path d="M302.998259,215 L271.221988,246.698476 L236.829867,230.833639 C235.516182,232.21639 234.431272,233.7958 233.615208,235.513532 L232,238.695859 C232,238.695859 265.98241,258.624404 273.026294,260.901952 C280.070179,263.1795 318,225.022771 318,225.022771 L302.998259,215 Z" id="Path" fill="#60D6E6" fill-rule="evenodd"></path>
                        </g>
                    </g>
                </g>
            </g>
        </g>
    </g>
</svg>