<?xml version="1.0" encoding="UTF-8"?>
<svg width="37px" height="36px" viewBox="0 0 37 36" version="1.1" xmlns="http://www.w3.org/2000/svg" xmlns:xlink="http://www.w3.org/1999/xlink">
    <!-- Generator: Sketch 52.6 (67491) - http://www.bohemiancoding.com/sketch -->
    <title>logo-mark@2x</title>
    <desc>Created with Sketch.</desc>
    <defs>
        <linearGradient x1="50%" y1="-301.298358%" x2="50%" y2="100%" id="linearGradient-1">
            <stop stop-color="#F01111" offset="0%"></stop>
            <stop stop-color="#FB5C03" offset="100%"></stop>
        </linearGradient>
        <linearGradient x1="55.3519167%" y1="-177.153162%" x2="50%" y2="100%" id="linearGradient-2">
            <stop stop-color="#F01111" offset="0%"></stop>
            <stop stop-color="#FB5C03" offset="100%"></stop>
        </linearGradient>
        <linearGradient x1="50%" y1="-160.993836%" x2="50%" y2="244.493399%" id="linearGradient-3">
            <stop stop-color="#F01111" offset="0%"></stop>
            <stop stop-color="#FB5C03" offset="100%"></stop>
        </linearGradient>
        <linearGradient x1="50%" y1="0%" x2="50%" y2="100%" id="linearGradient-4">
            <stop stop-color="#F01111" offset="0%"></stop>
            <stop stop-color="#FB5C03" offset="100%"></stop>
        </linearGradient>
    </defs>
    <g id="Page-1" stroke="none" stroke-width="1" fill="none" fill-rule="evenodd">
        <g id="wed-dev-exercise" transform="translate(-246.000000, -2457.000000)">
            <g id="=Section-Footer" transform="translate(0.000000, 2378.000000)">
                <g id="logo-mark" transform="translate(246.000000, 79.000000)">
                    <polygon id="Path" fill="url(#linearGradient-1)" points="18.5 10.829918 1 0 1 17.5 36 17.5 36 0"></polygon>
                    <polygon id="Path" fill="url(#linearGradient-2)" points="18 15.1168033 6 8 6 19.5 30 19.5 30 8"></polygon>
                    <polygon id="Path" fill="url(#linearGradient-3)" points="18.5 36 37 18.0138889 18.5 10.7727273 0 18.0138889"></polygon>
                    <polygon id="Path" fill="#000000" points="16 31.4423168 18.7045455 33.8681819 21.409091 31.4423168 18.7045455 29"></polygon>
                    <polygon id="Path" fill="url(#linearGradient-4)" points="0 18.1610943 18.5 10.7727273 37 18.1610943 18.5 28.4318182"></polygon>
                </g>
            </g>
        </g>
    </g>
</svg>