<?xml version="1.0" encoding="UTF-8"?>
<svg width="171px" height="36px" viewBox="0 0 171 36" version="1.1" xmlns="http://www.w3.org/2000/svg" xmlns:xlink="http://www.w3.org/1999/xlink">
    <!-- Generator: Sketch 52.6 (67491) - http://www.bohemiancoding.com/sketch -->
    <title>logo-foxhub@2x</title>
    <desc>Created with Sketch.</desc>
    <defs>
        <linearGradient x1="50%" y1="-301.298358%" x2="50%" y2="100%" id="linearGradient-1">
            <stop stop-color="#F01111" offset="0%"></stop>
            <stop stop-color="#FB5C03" offset="100%"></stop>
        </linearGradient>
        <linearGradient x1="55.3519167%" y1="-177.153162%" x2="50%" y2="100%" id="linearGradient-2">
            <stop stop-color="#F01111" offset="0%"></stop>
            <stop stop-color="#FB5C03" offset="100%"></stop>
        </linearGradient>
        <linearGradient x1="50%" y1="-160.993836%" x2="50%" y2="244.493399%" id="linearGradient-3">
            <stop stop-color="#F01111" offset="0%"></stop>
            <stop stop-color="#FB5C03" offset="100%"></stop>
        </linearGradient>
        <linearGradient x1="50%" y1="0%" x2="50%" y2="100%" id="linearGradient-4">
            <stop stop-color="#F01111" offset="0%"></stop>
            <stop stop-color="#FB5C03" offset="100%"></stop>
        </linearGradient>
    </defs>
    <g id="Page-1" stroke="none" stroke-width="1" fill="none" fill-rule="evenodd">
        <g id="wed-dev-exercise" transform="translate(-208.000000, -23.000000)">
            <g id="=Header" transform="translate(0.000000, -2.000000)">
                <g id="-nav" transform="translate(0.000000, 2.000000)">
                    <g id="logo-foxhub" transform="translate(208.000000, 23.000000)">
                        <g id="Group-3">
                            <polygon id="Path" fill="url(#linearGradient-1)" points="18.5 10.829918 1 0 1 17.5 36 17.5 36 0"></polygon>
                            <polygon id="Path" fill="url(#linearGradient-2)" points="18 15.1168033 6 8 6 19.5 30 19.5 30 8"></polygon>
                            <polygon id="Path" fill="url(#linearGradient-3)" points="18.5 36 37 18.0138889 18.5 10.7727273 0 18.0138889"></polygon>
                            <polygon id="Path" fill="#000000" points="16 31.4423168 18.7045455 33.8681819 21.409091 31.4423168 18.7045455 29"></polygon>
                            <polygon id="Path" fill="url(#linearGradient-4)" points="0 18.1610943 18.5 10.7727273 37 18.1610943 18.5 28.4318182"></polygon>
                        </g>
                        <polygon id="Path" fill="#000000" points="53 26 53 7 65 7 64.5207373 9.93960131 57.3870968 9.93960131 57.3870968 15.3213329 63.5929339 15.3213329 63.5929339 18.2552812 57.3870968 18.2552812 57.3870968 26"></polygon>
                        <path d="M81.8213237,7.23929798 C83.1951503,8.09269448 84.274409,9.34205785 84.9151101,10.8207041 C86.36163,14.464464 86.36163,18.5180634 84.9151101,22.1618233 C84.2692391,23.6372571 83.1911709,24.8852423 81.8213237,25.7432294 C80.3723303,26.6076144 78.7048939,27.0425228 77.0154419,26.9967215 C75.329448,27.0399589 73.6648564,26.6140624 72.20956,25.7671054 C70.8305462,24.9147394 69.7452068,23.6656132 69.0977515,22.1856994 C68.3312098,20.3902036 67.958489,18.4530305 68.0044134,16.5032017 C67.9545551,14.5762209 68.3276459,12.6615673 69.0977515,10.8923322 C69.750855,9.3997565 70.838872,8.13573302 72.2215747,7.26317402 C73.6646107,6.39455201 75.3289071,5.95730238 77.0154419,6.00371288 C78.702827,5.95516048 80.369407,6.38363573 81.8213237,7.23929798 Z M73.6993834,10.9341153 C72.9504668,12.0921032 72.5760085,13.9484654 72.5760085,16.5032017 C72.5760085,19.057938 72.9544717,20.9123105 73.7113981,22.0663192 C74.417943,23.1945712 75.6790377,23.8598246 77.0154419,23.8092701 C78.357769,23.877468 79.6317712,23.217113 80.343515,22.0842262 C81.0844218,20.9302176 81.4528728,19.0698761 81.4488679,16.5032017 C81.444863,13.9365274 81.076412,12.0741962 80.343515,10.9162082 C79.6317712,9.78332143 78.357769,9.12296641 77.0154419,9.1911643 C75.6658123,9.12487701 74.3865159,9.79244958 73.675354,10.9341153 L73.6993834,10.9341153 Z" id="Shape" fill="#000000" fill-rule="nonzero"></path>
                        <polygon id="Path" fill="#000000" points="100.029001 15.7566201 106 26 101.20981 26 97.3995704 18.4757513 93.6441103 26 89 26 94.8249194 15.897947 89.4747583 7 94.2345149 7 97.4543502 13.3427551 100.826352 7 105.440029 7"></polygon>
                        <polygon id="Path" fill="#000000" points="126.261489 26.9714457 126.261489 17.708446 116.738511 17.708446 116.738511 27 115 27 115 8 116.738511 8 116.738511 16.2921551 126.261489 16.2921551 126.261489 8 128 8 128 27"></polygon>
                        <path d="M149.992415,20.8448327 C150.075313,22.4835334 149.476089,24.0876095 148.323603,25.3121113 C147.207102,26.4373704 145.599658,27 143.501271,27 C141.402883,27 139.79346,26.4373704 138.673,25.3121113 C137.511512,24.0795307 136.913493,22.4608247 137.010127,20.8110749 L137.010127,8 L138.744266,8 L138.744266,20.7323068 C138.744266,22.3020432 139.13029,23.5060705 139.932032,24.3443885 C140.733775,25.1827065 141.903725,25.5990524 143.495332,25.5990524 C145.086939,25.5990524 146.3044,25.1770802 147.058632,24.3275096 C147.888789,23.3004537 148.298087,22.0232498 148.210765,20.7323068 L148.210765,8 L149.992415,8 L149.992415,20.8448327 Z" id="Path" fill="#000000"></path>
                        <path d="M169.675238,18.2918914 C170.558413,19.0542538 171,20.1977973 171,21.7225219 C171,23.4988261 170.347937,24.8234307 169.04381,25.6963356 C167.739683,26.5692404 165.925873,27.003787 163.602381,26.9999751 L158,27 L158,8 L162.599524,8 C164.982857,8 166.821429,8.39452251 168.115238,9.19500295 C169.399331,9.97621629 170.139046,11.3274327 170.059048,12.7457055 C170.116395,13.7858582 169.744766,14.8074283 169.019048,15.6045642 C168.301733,16.3391942 167.329952,16.8203225 166.270476,16.965381 C167.531617,17.0528982 168.727234,17.518716 169.675238,18.2918914 Z M159.770476,9.36653447 L159.770476,16.3364321 L163.918095,16.3364321 C165.038666,16.386827 166.140218,16.0551453 167.013333,15.4044441 C167.80701,14.7584068 168.237868,13.8130015 168.183333,12.837189 C168.284285,11.7855869 167.760743,10.7659539 166.815238,10.1727326 C165.903175,9.6352672 164.545397,9.36653447 162.741905,9.36653447 L159.770476,9.36653447 Z M169.142857,21.7225219 C169.237617,20.5618572 168.729841,19.4286226 167.774762,18.6692608 C166.725146,17.9621486 165.444689,17.6089622 164.147143,17.6686602 L159.81381,17.6686602 L159.81381,25.6105698 L163.633333,25.6105698 C167.306349,25.606758 169.142857,24.310742 169.142857,21.7225219 Z" id="Shape" fill="#000000" fill-rule="nonzero"></path>
                    </g>
                </g>
            </g>
        </g>
    </g>
</svg>