<?xml version="1.0" encoding="UTF-8"?>
<svg width="329px" height="188px" viewBox="0 0 329 188" version="1.1" xmlns="http://www.w3.org/2000/svg" xmlns:xlink="http://www.w3.org/1999/xlink">
    <!-- Generator: Sketch 52.6 (67491) - http://www.bohemiancoding.com/sketch -->
    <title>recent-image-1@2x</title>
    <desc>Created with Sketch.</desc>
    <defs>
        <linearGradient x1="-17.3546143%" y1="71.5073444%" x2="100%" y2="0%" id="linearGradient-1">
            <stop stop-color="#006CAC" offset="0%"></stop>
            <stop stop-color="#2BB8D3" offset="100%"></stop>
        </linearGradient>
        <rect id="path-2" x="0" y="0" width="329" height="188"></rect>
    </defs>
    <g id="Page-1" stroke="none" stroke-width="1" fill="none" fill-rule="evenodd">
        <g id="wed-dev-exercise" transform="translate(-208.000000, -800.000000)">
            <g id="=Section-Recent" transform="translate(0.000000, 659.000000)">
                <g id="-recent-columns" transform="translate(208.000000, 141.000000)">
                    <g id="recent-col-1">
                        <g id="recent-image-1">
                            <mask id="mask-3" fill="white">
                                <use xlink:href="#path-2"></use>
                            </mask>
                            <use id="Rectangle" fill="url(#linearGradient-1)" fill-rule="nonzero" xlink:href="#path-2"></use>
                            <g id="teamwork_white_6" mask="url(#mask-3)">
                                <g transform="translate(27.000000, 12.000000)">
                                    <path d="M267.483963,149 C263.35879,148.98079 260.019505,145.691948 260,141.629092 L260,26.3867027 C260,22.3071394 263.357864,19 267.5,19 C271.642136,19 275,22.3071394 275,26.3867027 L275,141.615052 C274.986266,145.694879 271.626387,148.996157 267.483963,149 Z" id="Path" fill="#303D72" fill-rule="evenodd"></path>
                                    <rect id="Rectangle" fill="#F0F1F4" fill-rule="evenodd" x="89" y="19" width="184" height="130" rx="21.05"></rect>
                                    <rect id="Rectangle" fill="#A9C2DC" fill-rule="evenodd" x="158" y="36" width="27" height="27"></rect>
                                    <polygon id="Path" fill="#60D6E6" fill-rule="evenodd" points="212 63 185 63 185 45.3230769 185 36 212 36"></polygon>
                                    <polygon id="Path" fill="#50CAD3" fill-rule="evenodd" points="185 45 210 62.9566178 185 63"></polygon>
                                    <path d="M179,90 L157,90 L157,68 L179,68 L179,90 Z M157.355987,89.6440129 L178.644013,89.6440129 L178.644013,68.3559871 L157.355987,68.3559871 L157.355987,89.6440129 Z" id="Shape" fill="#60D6E6" fill-rule="nonzero"></path>
                                    <rect id="Rectangle" fill="#FFB0B2" fill-rule="evenodd" x="211" y="89" width="27" height="27"></rect>
                                    <rect id="Rectangle" fill="#303D72" fill-rule="evenodd" x="156" y="36" width="1" height="27"></rect>
                                    <rect id="Rectangle" fill="#A9C2DC" fill-rule="evenodd" x="185" y="61" width="27" height="27"></rect>
                                    <rect id="Rectangle" fill="#303D72" fill-rule="evenodd" x="185" y="61" width="1" height="27"></rect>
                                    <polygon id="Path" fill="#E68D5C" fill-rule="evenodd" points="264 133.860396 262.017719 184 255.535867 182.990972 252 132"></polygon>
                                    <polygon id="Path" fill="#FBAD82" fill-rule="evenodd" points="268.446659 134 274 184 267.275498 184 256 134"></polygon>
                                    <path d="M270.493023,38 C270.493023,38 276.642089,38.7884923 283.911745,65.5065202 C285.472061,71.2387898 265.826258,99 265.826258,99 L265,92.4897049 L276.081793,66.2636124 L268.131271,52.9499542 L270.493023,38 Z" id="Path" fill="#F89900" fill-rule="evenodd"></path>
                                    <rect id="Rectangle" fill="#FFFFFF" fill-rule="evenodd" x="175" y="23" width="27" height="27"></rect>
                                    <rect id="Rectangle" fill="#303D72" fill-rule="evenodd" x="202" y="23" width="1" height="27"></rect>
                                    <polygon id="Path" fill="#F7A379" fill-rule="evenodd" points="259.525864 144.62585 270 146 268.609134 133 257 133"></polygon>
                                    <path d="M203.886076,52 C203.886076,52 200.955408,50.882308 198.124523,50.8376003 C195.293639,50.7928926 192.263188,49.0045854 191.446444,47.4845243 C190.840354,46.3565151 190.773832,44.6713794 191.734707,44.0007642 C192.695581,43.330149 199.709967,45.9679022 200.811277,45.6102407 C201.912587,45.2525793 202.108458,44.9224303 202.108458,44.9224303 L202.108458,43 C202.108458,43 204.126294,44.0317157 204.462601,45.3247994 C204.798907,46.6178831 206,48.2273596 206,48.2273596 L203.886076,52 Z" id="Path" fill="#FBAD82" fill-rule="evenodd"></path>
                                    <path d="M249.086823,78 L241,135.246081 C241,135.246081 259.578794,140.009629 272.787626,137.006749 L286,134.00387 L276.142081,78.5706514 L249.086823,78 Z" id="Path" fill="#60D6E6" fill-rule="evenodd"></path>
                                    <polygon id="Path" fill="#50CAD3" fill-rule="evenodd" points="273.867442 137 286 134.18897 276.29186 78.1792031 268 78"></polygon>
                                    <path d="M256.097815,36 L244,39.9983332 L246.018039,83.3781366 C246.07014,84.5361046 255.701849,87.0209842 260.700056,86.9998662 C265.52112,86.9822679 273.572437,85.4582554 274.281008,84.831756 C274.718896,84.457295 274.980073,83.9126407 275,83.332381 L273.093109,42.6415975 C272.961238,39.8712767 270.894714,37.5921059 268.181737,37.2248415 L264.308908,36.7004122 L256.097815,36 Z" id="Path" fill="#F9C200" fill-rule="evenodd"></path>
                                    <path d="M248.497959,22 C246.571429,22 245,20.7154851 245,19.1399254 L245,19 L245.204082,19 L252,19 L252,19.1399254 C251.995918,20.7182836 250.428571,22 248.497959,22 Z M245.412245,19.2686567 C245.497959,20.6371269 246.84898,21.7201493 248.497959,21.7201493 C250.146939,21.7201493 251.506122,20.6315299 251.587755,19.2686567 L245.412245,19.2686567 Z" id="Shape" fill="#1A2249" fill-rule="nonzero"></path>
                                    <path d="M268,25 L266.522337,36.9656393 C266.522337,36.9656393 264.563574,38.4459598 261.512027,37.8647716 C259.274914,37.4408461 258.419244,36.2716322 258.419244,36.2716322 L258,29.7486494 L268,25 Z" id="Path" fill="#FBAD83" fill-rule="evenodd"></path>
                                    <path d="M267.735849,25.9921875 C267.624508,26.1874846 267.49837,26.3743888 267.358491,26.5513393 C265.451115,28.9352679 261.780446,32.3370536 258.284734,33 L258,28.6473214 L268,24 L267.735849,25.9921875 Z" id="Path" fill="#E68D5C" fill-rule="evenodd"></path>
                                    <path d="M250.517043,26.5556128 C253.943555,33.7761786 262.57395,27.9647647 266.214174,24.3259421 C269.854398,20.6871194 269.22751,8.31868981 268.219503,5.68589459 C267.211495,3.05309937 258.801937,0.91261545 254.363855,2.60003027 C249.925774,4.2874451 247.097654,19.3350471 250.517043,26.5556128 Z" id="Path" fill="#FBAD83" fill-rule="evenodd"></path>
                                    <path d="M253.007764,31.7117625 C256.580451,32.9813997 260.441104,33.3203481 264.195381,32.6939861 C266.402157,32.310301 268.531008,31.5924979 270.501914,30.567558 C272.445708,21.9515609 273.021647,12.3740185 268.982874,5.40884647 C266.171572,0.58388809 258.759956,-1.06004416 253.968863,0.666601663 C247,3.17902642 247.100789,12.0397179 247,12.8220504 C248.616052,12.5375298 250.271632,12.525866 251.891882,12.7875864 L253.007764,31.7117625 Z" id="Path" fill="#1A2249" fill-rule="evenodd"></path>
                                    <path d="M256,21.9425124 C256,23.5649397 254.217499,25 253.094523,25 C251.971547,25 252.000067,23.5649397 252.000067,21.9425124 C252.000067,20.3200852 252.894882,19 254.000033,19 C255.105184,19 256,20.3243435 256,21.9425124 Z" id="Path" fill="#FBAD83" fill-rule="evenodd"></path>
                                    <path d="M251,25 C251,26.1045695 251.895431,27 253,27 C254.104569,27 255,26.1045695 255,25 C255,23.8954305 254.104569,23 253,23 C251.895431,23 251,23.8954305 251,25 Z" id="Path" fill="#FFFFFF" fill-rule="evenodd"></path>
                                    <rect id="Rectangle" fill="#1A2249" fill-rule="evenodd" x="245" y="18.8243243" width="17" height="1"></rect>
                                    <path d="M99,26.4999812 C98.9999987,27.1069503 98.634201,27.6540937 98.073313,27.8860771 C97.512425,28.1180605 96.8670126,27.9891538 96.4382692,27.5595136 C96.0095259,27.1298734 95.8819682,26.4841932 96.1151233,25.9237913 C96.3482785,25.3633895 96.8961853,24.9987361 97.5031532,25.0000033 C98.3303452,25.0017302 99.0000018,25.6727876 99,26.4999812 Z" id="Path" fill="#60D6E6" fill-rule="evenodd"></path>
                                    <path d="M106.999997,26.5000016 C106.999997,27.3284279 106.328425,28 105.499998,28 C104.671572,28 104,27.3284279 104,26.5000016 C104,25.6715754 104.671572,25.0000033 105.499998,25.0000033 C105.898078,24.9991696 106.280093,25.156937 106.561578,25.4384222 C106.843063,25.7199073 107.00083,26.1019224 106.999997,26.5000016 Z" id="Path" fill="#60D6E6" fill-rule="evenodd"></path>
                                    <path d="M112,26.5 C112,27.3284271 111.328427,28 110.5,28 C109.671573,28 109,27.3284271 109,26.5 C109,25.6715729 109.671573,25 110.5,25 C110.897825,25 111.279356,25.1580353 111.56066,25.4393398 C111.841965,25.7206444 112,26.1021753 112,26.5 Z" id="Path" fill="#60D6E6" fill-rule="evenodd"></path>
                                    <path d="M59.2507825,106.993232 C59.3035218,107.002256 59.3568973,107.002256 59.4096366,106.993232 C59.7965551,106.880561 60.0514126,106.381723 59.991204,105.854917 L59.3100162,96.9079091 C59.3052324,96.6555298 59.2245849,96.4165692 59.0865348,96.2457273 C58.9484847,96.0748855 58.7648521,95.9867904 58.5776721,96.0016076 C58.1957792,96.1190999 57.9472089,96.6155749 58.0095669,97.1362971 L58.6853697,106.101431 C58.7016284,106.537052 58.9338063,106.903256 59.2507825,106.993232 Z" id="Path" fill="#A9C2DC" fill-rule="evenodd"></path>
                                    <path d="M98.8889543,108.953635 C99.0275574,108.973979 99.1661604,108.984151 99.3079868,108.994323 C100.926646,109.071507 102.488519,108.358268 103.540215,107.061651 C104.641794,105.714688 105.156225,103.943698 104.958479,102.17911 L104.333154,96.0962784 C104.290089,95.4591875 103.772934,94.9737942 103.166309,95.0010974 C102.878933,95.0396774 102.618467,95.1984616 102.44377,95.4415673 C102.269074,95.6846731 102.194893,95.9915815 102.237991,96.2929363 L102.860093,102.396112 C102.981937,103.486151 102.665256,104.580164 101.986572,105.413793 C101.338987,106.210523 100.37749,106.647382 99.3821234,106.597131 C97.5899536,106.492021 96.1587964,104.806866 96.1168932,102.755521 L96.1168932,101.96889 C96.1280597,101.323753 95.6497694,100.786091 95.0370786,100.755036 C94.7456003,100.768059 94.4714437,100.90423 94.2766817,101.132717 C94.0819198,101.361204 93.9830258,101.662681 94.0023907,101.96889 L94.0023907,102.762303 C94.0604106,105.942735 96.1716897,108.577273 98.8889543,108.953635 Z" id="Path" fill="#303D72" fill-rule="evenodd"></path>
                                    <path d="M69.6819188,162.919829 L48,151.186395 L62.9537817,107.632927 C63.0177645,107.394662 63.1793767,107.195926 63.3974028,107.087403 C63.6154288,106.97888 63.8687931,106.97106 64.0928808,107.065937 C64.557182,107.316928 64.7643235,107.881148 64.5754898,108.380486 L50.2320666,150.099364 L70.5300332,161.110519 C70.9728649,161.381303 71.1289949,161.958085 70.8848927,162.421456 C70.7948992,162.653742 70.6154163,162.838427 70.3881762,162.932569 C70.1609361,163.026711 69.9057381,163.022107 69.6819188,162.919829 Z" id="Path" fill="#00B98F" fill-rule="evenodd"></path>
                                    <path d="M66.4139395,161.999075 C66.5118802,162.002915 66.6099349,161.994787 66.7056833,161.974893 C67.3968438,161.789293 67.8424612,161.154622 67.755961,160.479034 L61.6767494,109.374562 L92.9407453,105.463911 C93.6122496,105.338628 94.0695018,104.745683 93.991306,104.101587 C93.9131102,103.457492 93.3257032,102.978359 92.6417079,103.000754 L59,107.122138 L65.3527214,160.990321 C65.3913073,161.530265 65.844097,161.96067 66.4139395,161.999075 Z" id="Path" fill="#00B98F" fill-rule="evenodd"></path>
                                    <path d="M67.1690555,161.99961 C67.7487661,162.013276 68.2771388,161.666919 68.4987798,161.127953 L93.851254,107.099329 C94.1813473,106.410412 93.9460402,105.582032 93.3039269,105.172508 C93.0000028,104.99139 92.6332517,104.950698 92.2973862,105.060829 C91.9615206,105.17096 91.6890781,105.421245 91.5496732,105.747732 L66.1621139,159.959862 C65.8096286,160.644528 66.0497894,161.486897 66.7094411,161.879625 C66.8526508,161.951421 67.0092083,161.992291 67.1690555,161.99961 Z" id="Path" fill="#00B98F" fill-rule="evenodd"></path>
                                    <path d="M100.112946,152.997627 C100.181989,153.003764 100.25151,152.997977 100.318821,152.980488 C100.764486,152.865345 101.055365,152.408558 100.991132,151.924713 L95.6255128,111.688702 L90.8839524,111.003134 C90.6665195,110.983312 90.4508161,111.058121 90.2859842,111.21052 C90.1211523,111.362919 90.0212305,111.579927 90.0089834,111.812105 C89.9427101,112.298402 90.2499978,112.75319 90.7038117,112.840457 L94.2422896,113.330639 L99.4020337,152.284636 C99.4439138,152.675354 99.7444212,152.97674 100.112946,152.997627 Z" id="Path" fill="#00C99C" fill-rule="evenodd"></path>
                                    <path d="M83.5267706,152.161296 C81.3867491,173.069387 85.9586133,190.010518 93.7683023,189.999995 C101.577991,189.989473 109.523169,173.83051 111.527702,153.879962 C113.532235,133.929413 108.974267,117.009328 101.300066,116.041263 C93.6258658,115.073199 85.6667922,131.256713 83.5267706,152.161296 Z M85.5729925,152.287566 C87.3934005,134.497625 94.1886636,120.688675 100.747691,121.442783 C107.306718,122.196891 111.225458,136.665248 109.495376,153.753693 C107.765294,170.842137 100.970031,184.651087 94.3206779,184.598475 C87.6713253,184.545863 83.7560587,170.077506 85.5729925,152.287566 Z" id="Shape" fill="#303D72" fill-rule="nonzero"></path>
                                    <path d="M81.528821,152.165128 C79.3835844,173.068719 83.9587007,190.006991 91.7482007,189.999998 C99.5377008,189.993004 107.497292,173.820521 109.521035,153.87504 C111.544778,133.929559 106.969661,116.994783 99.3016553,116.04017 C91.6336493,115.085556 83.6775289,131.261537 81.528821,152.165128 Z M83.5733912,152.291011 C85.3992722,134.49953 92.1925216,120.690852 98.7497255,121.442654 C105.306929,122.194456 109.212093,136.660524 107.476465,153.752654 C105.740836,170.844784 98.9441159,184.649965 92.3001305,184.597514 C85.6561452,184.545063 81.7509814,170.078995 83.5733912,152.291011 Z" id="Shape" fill="#A9C2DC" fill-rule="nonzero"></path>
                                    <path d="M31.6294756,148.16406 C29.288982,170.741958 33.6804236,189.006988 41.3981926,188.999998 C49.1159617,188.993008 57.2025567,171.475915 59.4224063,149.87313 C61.6422559,128.270346 57.2680491,109.991336 49.6536892,109.037193 C42.0393293,108.083049 33.9699692,125.603638 31.6294756,148.16406 Z M33.6597418,148.289882 C35.6486443,129.084688 42.5425872,114.125957 49.0504692,114.880884 C55.5583513,115.635811 59.2948683,131.244617 57.3921401,149.750804 C55.4894119,168.256991 48.598916,183.212227 42.0014126,183.159802 C35.4039093,183.107376 31.6673923,167.49158 33.6597418,148.289882 Z" id="Shape" fill="#303D72" fill-rule="nonzero"></path>
                                    <path d="M30.635917,147.652323 C28.2860181,170.496595 32.6515928,189.010583 40.3869639,188.999995 C48.122335,188.989408 56.1884837,171.269481 58.4177866,149.388672 C60.6470896,127.507862 56.2780693,109.000932 48.6667397,108.03747 C41.0554102,107.074009 32.9823703,124.808052 30.635917,147.652323 Z M32.6653752,147.779373 C34.6603773,128.333686 41.5550222,113.193577 48.0603142,113.945289 C54.5656063,114.697001 58.2971906,130.514709 56.3883285,149.254563 C54.4794663,167.994418 47.5848215,183.134527 40.9899438,183.085119 C34.3950662,183.03571 30.6669274,167.225061 32.6653752,147.779373 Z" id="Shape" fill="#A9C2DC" fill-rule="nonzero"></path>
                                    <path d="M97.1113683,156.999087 C97.9118196,157.04852 98.7345057,155.084384 98.9485152,152.612736 C99.1625248,150.141088 98.6900362,148.081382 97.8895848,148.002289 C97.0891335,147.923196 96.2692268,149.90381 96.0524378,152.38864 C95.8356489,154.87347 96.3109169,156.949654 97.1113683,156.999087 Z" id="Path" fill="#303D72" fill-rule="evenodd"></path>
                                    <path d="M45.146409,155.999044 C46.7351341,156.057455 48.4032954,153.432184 48.8754999,150.128689 C49.3477043,146.825195 48.4341873,144.086345 46.8542885,144.001973 C45.2743896,143.917601 43.597402,146.549363 43.1251976,149.872328 C42.6529932,153.195292 43.5576839,155.940632 45.146409,155.999044 Z" id="Path" fill="#A9C2DC" fill-rule="evenodd"></path>
                                    <path d="M95.96348,152.999225 C96.0445231,153.002471 96.1256691,152.995506 96.2046411,152.978525 C96.7284493,152.860953 97.0681763,152.397373 96.9884148,151.909014 L90.8501105,111.792007 C90.8264063,111.558721 90.7012643,111.343955 90.5028335,111.196016 C90.3044027,111.048077 90.0493446,110.979388 89.7950306,111.005399 C89.2675352,111.106025 88.9223656,111.571673 89.0150251,112.05766 L95.1382568,152.271268 C95.188901,152.662883 95.534169,152.967455 95.96348,152.999225 Z" id="Path" fill="#00C99C" fill-rule="evenodd"></path>
                                    <path d="M90.8151381,112.993243 C90.8829401,113.002252 90.9513179,113.002252 91.0191198,112.993243 C91.6268665,112.898037 92.0606615,112.211969 91.9930604,111.45291 L91.1311661,96.375554 C91.1064801,95.6066713 90.5991285,94.9993846 89.9819736,95.0000005 C89.6895721,95.0385868 89.4218175,95.2218553 89.238729,95.5087249 C89.0556404,95.7955946 88.9725319,96.1620707 89.0080329,96.5260051 L89.8699273,111.660676 C89.888153,112.329904 90.2846538,112.888894 90.8151381,112.993243 Z" id="Path" fill="#00C99C" fill-rule="evenodd"></path>
                                    <path d="M66.0075252,162.999999 C66.3895413,163.000613 66.7348894,162.769789 66.8845596,162.413807 C67.1291768,161.951304 66.9730669,161.375779 66.5294849,161.104766 L46.2263179,150.096591 L60.6068402,108.379888 C60.7883667,107.880565 60.5833519,107.321761 60.1239387,107.063655 C59.8986615,106.970592 59.6447823,106.979933 59.4267662,107.089307 C59.2087502,107.19868 59.0475688,107.397566 58.9841492,107.635461 L44,151.18626 L65.6844073,162.910092 C65.7848198,162.962359 65.8948413,162.992972 66.0075252,162.999999 Z" id="Path" fill="#00C99C" fill-rule="evenodd"></path>
                                    <path d="M78.0146095,93.8061138 L102.736668,97.9896472 C103.043676,98.033914 103.353514,97.9349834 103.59164,97.7166562 C103.829766,97.4983291 103.974625,97.180369 103.991365,96.8392714 C104.067747,96.1166908 103.629659,95.4500213 102.983436,95.3054369 L78.2752807,91.006866 C77.9609953,90.970555 77.6471018,91.0793554 77.4081057,91.3074424 C77.1691095,91.5355294 77.0263209,91.8625656 77.013632,92.210926 C76.9159291,92.9501356 77.3530892,93.6468071 78.0146095,93.8061138 Z" id="Path" fill="#A9C2DC" fill-rule="evenodd"></path>
                                    <path d="M72.858215,106.951481 C72.9956676,106.973798 73.1341941,106.988677 73.2737944,106.996116 C74.91426,107.064058 76.4869215,106.237438 77.5197915,104.764341 C78.6288951,103.202917 79.1488423,101.192864 78.9630439,99.1849023 L78.3702796,92.232922 C78.3733158,91.7643888 78.1443853,91.3349834 77.7807173,91.1270787 C77.4170493,90.9191741 76.9824917,90.9692715 76.6616059,91.2560939 C76.3407201,91.5429163 76.1898428,92.0161073 76.2730534,92.4746977 L76.8625962,99.4452761 C76.980363,100.68827 76.6599041,101.933684 75.9734496,102.900808 C75.3391772,103.808658 74.3701855,104.316329 73.3607761,104.269631 C71.5695968,104.161761 70.1392305,102.246154 70.1166797,99.9027901 L70.1166797,99.0026407 C70.1442115,98.2827713 69.6668251,97.6703328 69.043905,97.6263792 C68.7454022,97.6510939 68.4677506,97.8121958 68.2724415,98.0740057 C68.0771324,98.3358157 67.9802842,98.6767272 68.0033458,99.0212388 L68.0033458,99.9251078 C68.0258966,103.544304 70.1392305,106.538602 72.858215,106.951481 Z" id="Path" fill="#A9C2DC" fill-rule="evenodd"></path>
                                    <path d="M63.3456017,99.9918825 L55.2267437,98.8650007 C54.4354775,98.7248566 53.9005378,98.0062448 54.0155476,97.2379391 C54.1305574,96.4696334 54.8543759,95.9264676 55.6543983,96.0081175 L63.7732563,97.1349993 C64.5645225,97.2751434 65.0994622,97.9937552 64.9844524,98.7620609 C64.8694426,99.5303666 64.1456241,100.073532 63.3456017,99.9918825" id="Path" fill="#303D72" fill-rule="evenodd"></path>
                                    <path d="M65.9197635,170.999429 C68.034292,171.059039 70.2686437,166.441014 70.8536633,160.672865 C71.4386828,154.904716 70.2193047,150.132406 68.0942036,150.002666 C65.9691025,149.872927 63.7699929,154.494459 63.1567796,160.343256 C62.5435664,166.192054 63.7840897,170.936313 65.9197635,170.999429 Z" id="Path" fill="#303D72" fill-rule="evenodd"></path>
                                    <path d="M64.9077606,170.99943 C67.0335064,171.05896 69.2470929,166.447125 69.8479236,160.676204 C70.4487542,154.905282 69.2154703,150.135868 67.0967517,150.0028 C64.9780332,149.869733 62.7679603,154.495575 62.1565888,160.329528 C61.5452172,166.163482 62.7785012,170.9399 64.9077606,170.99943 Z" id="Path" fill="#A9C2DC" fill-rule="evenodd"></path>
                                    <path d="M99.8066625,145 C99.8066625,145 98.7583239,149.44809 99.0518587,152.690913 C99.3453935,155.933736 116,161 116,161 L116,151.461472 L99.8066625,145 Z" id="Path" fill="#8E4A2F" fill-rule="evenodd"></path>
                                    <polygon id="Path" fill="#50CAD3" fill-rule="evenodd" points="157 165 130 165 132.257042 181"></polygon>
                                    <rect id="Rectangle" fill="#303D72" fill-rule="evenodd" x="147" y="164" width="17" height="2"></rect>
                                    <path d="M164.123007,164 L164,164 L164,141 L164.123007,141 C165.157865,140.999998 165.997488,141.643907 166,142.43947 L166,162.56053 C165.997488,163.356093 165.157865,164.000002 164.123007,164 Z" id="Path" fill="#303D72" fill-rule="evenodd"></path>
                                    <rect id="Rectangle" fill="#A9C2DC" fill-rule="evenodd" x="135" y="141" width="29" height="23"></rect>
                                    <rect id="Rectangle" fill="#A9C2DC" fill-rule="evenodd" x="118" y="164" width="29" height="2"></rect>
                                    <rect id="Rectangle" fill="#FFFFFF" fill-rule="evenodd" x="135" y="142" width="28" height="21"></rect>
                                    <path d="M103.205514,177.469146 C103.205514,177.469146 101.029961,189.628526 110.835614,193.073741 C126.151509,198.450788 145.178028,192.236847 158.175654,178.591979 C171.173279,164.947112 158.871831,163.897507 155.272595,165.641037 C152.519215,166.976581 135.466358,177.538887 135.466358,177.538887 L103.205514,177.469146 Z" id="Path" fill="#60D6E6" fill-rule="evenodd"></path>
                                    <path d="M141.353858,134 L147.989871,150.201177 C147.989871,150.201177 154.636279,159.650975 156.587232,159.832291 C161.653472,160.308692 162,163 162,163 L153.444222,163 L141.544449,154.143925 L136,143.908422 L141.353858,134 Z" id="Path" fill="#A55B3A" fill-rule="evenodd"></path>
                                    <path d="M106.989482,123 C106.989482,123 102.207246,126.405202 100.222828,131.44265 C98.2384106,136.480098 98,145.62982 98,145.62982 C98,145.62982 99.7530191,147.388705 103.378263,146.920842 L107,146.452978 L106.989482,123 Z" id="Path" fill="#19192B" fill-rule="evenodd"></path>
                                    <path d="M113,108 L113,119.5364 C113,119.5364 114.877305,121.18051 118.186054,120.983631 C121.246731,120.800569 121.732819,119.660745 121.732819,119.660745 L123,113.674942 L113,108 Z" id="Path" fill="#A55B3A" fill-rule="evenodd"></path>
                                    <path d="M129.544326,115.412376 C126.282524,122.00842 118.185243,118.114039 114.719579,114.786801 C111.253914,111.459562 111.7439,98.7693095 112.702412,96.3632487 C113.660924,93.9571878 121.675944,92.001404 125.899835,93.5550319 C130.123725,95.1086598 132.816858,108.816332 129.544326,115.412376 Z" id="Path" fill="#A55B3A" fill-rule="evenodd"></path>
                                    <path d="M109.447439,113.564116 C110.31195,115.47184 111.510068,115.947883 112.794279,116.406163 C114.58787,117.04207 116.316892,117.226803 119.645796,116.665499 C124.854384,115.788018 123.893019,114.690277 123.154059,112.164408 C122.4151,109.63854 126.902664,112.164408 127.347475,109.979585 C127.792285,107.794762 125.295607,104.156943 126.292843,102.949073 C127.29008,101.741204 130.123953,102.949073 130.977702,101.300687 C131.831452,99.6522997 132.771293,96.7782804 130.977702,94.3234629 C129.184112,91.8686454 126.404046,93.1830918 124.520776,92.7425747 C122.637505,92.3020575 123.301134,90 119.645796,90 C115.990458,90 115.00757,94.3909615 112.453497,95.3785726 C109.899424,96.3661837 106.681722,99.8761109 108.564992,102.838944 C110.448263,105.801777 110.555878,106.988332 109.813331,108.491064 C109.174813,109.780642 108.808921,112.160856 109.447439,113.564116 Z" id="Path" fill="#1A2249" fill-rule="evenodd"></path>
                                    <path d="M121,111.423497 C121,113.336066 123.698151,115 125.357287,115 C127.016424,115 126.999997,113.31694 126.999997,111.423497 C126.999997,109.530055 125.657082,108 123.997945,108 C122.338808,108 121,109.54918 121,111.423497 Z" id="Path" fill="#A55B3A" fill-rule="evenodd"></path>
                                    <path d="M123.115901,110.38652 C123.376222,110.941748 124.405936,111.118777 124.897653,110.922972 C125.38937,110.727167 123.96339,110.654746 123.705962,110.118294 C123.448533,109.581842 124.027024,108.836173 123.535307,109.031978 C123.043589,109.227783 122.858472,109.82861 123.115901,110.38652 Z" id="Path" fill="#8E4A2F" fill-rule="evenodd"></path>
                                    <path d="M132.772847,157 C132.772847,157 135.698686,158.956074 136.501606,159.059025 C137.304526,159.161977 139.671533,159.812629 140.635036,160.566232 C141.59854,161.319835 142,163 142,163 L131,163 L132.772847,157 Z" id="Path" fill="#8E4A2F" fill-rule="evenodd"></path>
                                    <path d="M122.298251,122 C122.298251,122 131.033441,124.210247 133.653997,124.962008 C140.056295,126.791178 146.984809,142.900346 146.984809,142.900346 C146.984809,142.900346 147.598728,145.325382 141.021025,149.10151 C140.155256,149.635724 139.207443,150.027668 138.214538,150.262063 L134.408241,143.139385 L135.295792,177.87283 C135.295792,177.87283 123.336651,184.361534 108.535942,181.066949 C101.646017,179.532248 102.031909,178.350909 102.031909,178.350909 C102.031909,178.350909 101.53025,134.790333 104.505125,129.13307 C106.229766,125.799855 109.200276,123.260269 112.787769,122.051965 L122.298251,122 Z" id="Path" fill="#303D72" fill-rule="evenodd"></path>
                                    <path d="M248.456903,50 L244,52.5380933 L245.401542,83.020343 C245.43658,83.7993618 249.67274,85.1743119 254,86 L248.456903,50 Z" id="Path" fill="#EDB607" fill-rule="evenodd"></path>
                                    <path d="M242.144434,41.2437529 L229.967682,59.7453626 L205.696768,47.1330174 C205.696768,47.1330174 203.574544,49.676507 203.215454,51.4282216 L203,52.4792504 C203,52.4792504 224.010374,69.7931976 228.890411,69.9963965 C237.390078,70.3467394 257,45.0344633 257,45.0344633 L249.189786,39.8458846 C248.0701,39.1047993 246.691501,38.8353352 245.365617,39.0984039 C244.039733,39.3614725 242.878509,40.134863 242.144434,41.2437529 Z" id="Path" fill="#F9C200" fill-rule="evenodd"></path>
                                    <polygon id="Path" fill="#FF9398" fill-rule="evenodd" points="211 92 230 116 211 115.950748"></polygon>
                                    <path d="M135,177.758155 L134.099339,142 L114,181.92031 C126.043228,182.679983 135,177.758155 135,177.758155 Z" id="Path" fill="#27345E" fill-rule="evenodd"></path>
                                </g>
                            </g>
                        </g>
                    </g>
                </g>
            </g>
        </g>
    </g>
</svg>