<?xml version="1.0" encoding="UTF-8"?>
<svg width="329px" height="188px" viewBox="0 0 329 188" version="1.1" xmlns="http://www.w3.org/2000/svg" xmlns:xlink="http://www.w3.org/1999/xlink">
    <!-- Generator: Sketch 52.6 (67491) - http://www.bohemiancoding.com/sketch -->
    <title>recent-image-2@2x</title>
    <desc>Created with Sketch.</desc>
    <defs>
        <linearGradient x1="50%" y1="0%" x2="50%" y2="100%" id="linearGradient-1">
            <stop stop-color="#FBD249" offset="0%"></stop>
            <stop stop-color="#F5A623" offset="100%"></stop>
        </linearGradient>
        <rect id="path-2" x="0" y="0" width="329" height="188"></rect>
    </defs>
    <g id="Page-1" stroke="none" stroke-width="1" fill="none" fill-rule="evenodd">
        <g id="wed-dev-exercise" transform="translate(-556.000000, -800.000000)">
            <g id="=Section-Recent" transform="translate(0.000000, 659.000000)">
                <g id="-recent-columns" transform="translate(208.000000, 141.000000)">
                    <g id="recent-col-2" transform="translate(348.000000, 0.000000)">
                        <g id="recent-image-2">
                            <mask id="mask-3" fill="white">
                                <use xlink:href="#path-2"></use>
                            </mask>
                            <use id="Rectangle" fill="url(#linearGradient-1)" fill-rule="nonzero" xlink:href="#path-2"></use>
                            <g id="teamwork_white_12" mask="url(#mask-3)">
                                <g transform="translate(25.000000, 28.000000)">
                                    <path d="M237.005611,116.996239 C237.005611,116.996239 237.394641,104.486217 237.005611,86.0521767 C236.616581,67.6181366 256.533476,50.8277764 273,59.2229565 C273,59.2229565 262.434374,59.3583626 254.919182,66.1173853 C247.40399,72.876408 243.135564,76.8407986 242.524751,88.4142614 C241.913937,99.9877243 239.67065,117 239.67065,117 L237.005611,116.996239 Z" id="Path" fill="#00B98F" fill-rule="evenodd"></path>
                                    <path d="M229.095735,116.962808 C229.095735,116.962808 227.795686,80.7898652 223.566002,66.6903766 C219.336318,52.590888 225.014524,21 225.014524,21 C225.014524,21 225.217317,45.4016736 228.657557,57.4109716 C232.097797,69.4202696 237.982418,84.9330544 236.859813,99.0027894 C235.737208,113.072524 232.832922,117 232.832922,117 L229.095735,116.962808 Z" id="Path" fill="#00B98F" fill-rule="evenodd"></path>
                                    <path d="M232.05775,68.9918604 L223,66 C223.041189,66.1383735 223.078633,66.2767471 223.119821,66.4113808 C227.493303,80.5890592 228.833805,116.962602 228.833805,116.962602 L232.690556,117 C232.690556,117 235.686092,113.043265 236.85435,98.9029845 C237.663145,89.0822028 234.970908,78.5545941 232.05775,68.9918604 Z" id="Path" fill="#068E6A" fill-rule="evenodd"></path>
                                    <path d="M229.377366,117 C229.377366,117 235.059213,98.9755313 225.158465,70.2686574 C215.257717,41.5617835 203,35 203,35 C203,35 214.034901,59.1961122 218.652787,78.1011827 C223.270673,97.0062531 223.326088,116.988853 223.326088,116.988853 L229.377366,117 Z" id="Path" fill="#00C99C" fill-rule="evenodd"></path>
                                    <path d="M242.673219,68 C238.46302,73.0968113 235.860351,79.493178 236.005794,86.0998774 C236.407677,104.503986 236.005794,117 236.005794,117 L238.807491,117 C238.807491,117 241.16903,100.011881 241.812042,88.4548521 C242.275164,80.1504676 244.720907,75.767285 249,71.4554653 L242.673219,68 Z" id="Path" fill="#068E6A" fill-rule="evenodd"></path>
                                    <path d="M232.546535,117 C232.546535,117 235.502557,99.6659912 232.240362,75.1323877 C228.978168,50.5987842 260,29 260,29 C260,29 243.72183,48.4552516 240.762163,64.2326917 C237.802496,80.0101317 240.160753,99.5248227 238.294559,109.32489 C237.146412,115.361702 237.047999,117 237.047999,117 L232.546535,117 Z" id="Path" fill="#00C99C" fill-rule="evenodd"></path>
                                    <path d="M239.642298,115.992597 C239.642298,115.992597 241.32306,105.195563 241.113899,89.1943361 C240.904737,73.1931093 251.16486,59.7902773 241.113899,36.0901025 C231.062938,12.3899277 224,13.0154672 224,13.0154672 C224,13.0154672 235.896065,11.9790704 244.243852,26.8735735 C252.59164,41.7680766 254.328428,60.9266124 248.834202,79.3189548 C243.339976,97.7112973 243.672393,116 243.672393,116 L239.642298,115.992597 Z" id="Path" fill="#00C99C" fill-rule="evenodd"></path>
                                    <path d="M230.335923,117 C230.335923,117 234.946953,102.464325 228.817888,78.6524954 L219,76 C219.113853,76.4433457 219.227705,76.8866913 219.333968,77.3262477 C224.077826,96.6174677 224.134752,116.984843 224.134752,116.984843 L230.335923,117 Z" id="Path" fill="#00B98F" fill-rule="evenodd"></path>
                                    <path d="M233.610197,83.4571037 C235.440789,103.48398 233,117 233,117 L237.735746,117 C237.735746,117 237.843202,115.373208 239.052083,109.378794 C240.322368,103.081893 239.73136,92.7530565 240,82 L233.610197,83.4571037 Z" id="Path" fill="#00B98F" fill-rule="evenodd"></path>
                                    <path d="M240.5,91 C240.605,105.981138 239,116 239,116 L243.05,116 C243.072819,108.577888 243.725005,101.170092 245,93.8511317 L240.5,91 Z" id="Path" fill="#00B98F" fill-rule="evenodd"></path>
                                    <path d="M221.820261,116 C216.488969,122.33906 213,132.940205 213,144.924757 C213,155.813024 215.879784,165.545346 220.402521,172 L246.597479,172 C251.120216,165.545346 254,155.813024 254,144.924757 C254,132.940205 250.511031,122.353975 245.179739,116 L221.820261,116 Z" id="Path" fill="#FF9398" fill-rule="evenodd"></path>
                                    <path d="M238,116 L222.032819,116 C216.573049,122.33906 213,132.940205 213,144.924757 C213,155.813024 215.949183,165.545346 220.580913,172 L238,172 L238,116 Z" id="Path" fill="#F4828B" fill-rule="evenodd"></path>
                                    <path d="M37.5486381,136 L41.9143969,136 C46.3784331,136 49.9978518,139.442399 50,143.690151 L50,163.313551 C49.995707,167.558412 46.3792866,170.997959 41.9182879,171 L37,171 L37,168.40823 L41.9143969,168.40823 C44.868346,168.412328 47.2676807,166.139182 47.2762646,163.328361 L47.2762646,143.704961 C47.2762646,140.891248 44.8791588,138.610282 41.922179,138.610282 L37.5486381,138.610282 L37.5486381,136 Z" id="Path" fill="#19192B" fill-rule="evenodd"></path>
                                    <rect id="Rectangle" fill="#19192B" fill-rule="evenodd" x="23" y="129" width="8" height="9" rx="4"></rect>
                                    <rect id="Rectangle" fill="#E57A87" fill-rule="evenodd" x="21" y="129" width="8" height="9" rx="4"></rect>
                                    <rect id="Rectangle" fill="#303D72" fill-rule="evenodd" x="17" y="132" width="27" height="41" rx="12"></rect>
                                    <rect id="Rectangle" fill="#FF9398" fill-rule="evenodd" x="11" y="132" width="27" height="41" rx="12"></rect>
                                    <path d="M11,153 L11,168.442461 C11,170.95952 12.990938,173 15.4468844,173 L33.5531156,173 C36.009062,173 38,170.95952 38,168.442461 L38,157.998101 L11,153 Z" id="Path" fill="#F4828B" fill-rule="evenodd"></path>
                                    <path d="M18.3084288,170 L30.6915712,170 C33.0710507,170 35,168.03142 35,165.603053 L35,146 L18.3084288,146 C15.9289493,146 14,147.96858 14,150.396947 L14,165.603053 C14,168.03142 15.9289493,170 18.3084288,170 Z" id="Path" fill="#19192B" fill-rule="evenodd"></path>
                                    <path d="M17.3084288,170 L29.6915712,170 C32.0710507,170 34,168.03142 34,165.603053 L34,146 L13,146 L13,165.603053 C13,168.03142 14.9289493,170 17.3084288,170 Z" id="Path" fill="#F9C200" fill-rule="evenodd"></path>
                                    <rect id="Rectangle" fill="#19192B" fill-rule="evenodd" x="14" y="135" width="21" height="9" rx="4.5"></rect>
                                    <rect id="Rectangle" fill="#F9C200" fill-rule="evenodd" x="13" y="135" width="21" height="9" rx="4.5"></rect>
                                    <path d="M17.3084288,170 L29.6915712,170 C32.0710507,170 34,168.061217 34,165.669607 L34,155.807137 L13,152 L13,165.669607 C13,168.061217 14.9289493,170 17.3084288,170 Z" id="Path" fill="#EDB607" fill-rule="evenodd"></path>
                                    <path d="M212.001818,126 C208.140802,125.987763 205.013804,122.79317 205.001826,118.848692 L205.001826,7.31429092 C204.943963,4.72118645 206.265007,2.29935592 208.454048,0.985438253 C210.643088,-0.328479418 213.356912,-0.328479418 215.545952,0.985438253 C217.734993,2.29935592 219.056037,4.72118645 218.998174,7.31429092 L218.998174,118.848692 C218.988192,122.792569 215.862241,125.987752 212.001818,126 Z" id="Path" fill="#303D72" fill-rule="evenodd"></path>
                                    <rect id="Rectangle" fill="#F0F1F4" fill-rule="evenodd" x="41" y="1" width="176" height="126" rx="21.05"></rect>
                                    <polygon id="Path" fill="#0CBFD1" fill-rule="evenodd" points="84.0572917 93 87.8333333 117.678967 97 141.542435 91.9144345 144 84.0721726 127.428044 82 95.6642066"></polygon>
                                    <path d="M49.9999961,6.49998181 C49.9999945,7.10697753 49.6341654,7.6541393 49.0732421,7.88610529 C48.5123188,8.11807127 47.8668844,7.98911061 47.4381649,7.55940957 C47.0094453,7.12970853 46.8819604,6.48398041 47.1152077,5.92358822 C47.3484549,5.36319602 47.8964509,4.9986181 48.5034444,5.00000394 C48.9009486,5.0000029 49.2821223,5.15814503 49.5628789,5.43954433 C49.8436354,5.72094362 50.0009057,6.10247818 49.9999961,6.49998181 Z" id="Path" fill="#60D6E6" fill-rule="evenodd"></path>
                                    <path d="M83.550721,135.038302 C83.550721,135.038302 102.747487,134.380912 104.870206,138.51308 C106.992926,142.645249 105.608543,146.87133 104.870206,149.688718 C104.131869,152.506106 100.532475,166.499131 100.532475,166.499131 C100.532475,166.499131 96.4716211,167.626086 93.9797332,166.499131 L96.6414387,146.367957 C96.6414387,146.367957 83.561796,150.909586 74.280898,149.688718 L65,148.46785 L72.8854408,135.507867 L83.550721,135.038302 Z" id="Path" fill="#19192B" fill-rule="evenodd"></path>
                                    <path d="M75.7092162,150 C75.7092162,150 77.2282359,146.716021 81.5779934,143.109339 C85.9277508,139.502658 87,135 87,135 L77.0495277,135 L73,135 L75.7092162,150 Z" id="Path" fill="#303D72" fill-rule="evenodd"></path>
                                    <path d="M74.2752406,135.405004 C74.2752406,135.405004 80.9408763,169.361516 68.0644969,172.332481 C55.1881175,175.303446 35.0224601,167.394355 35.0224601,167.394355 C35.0224601,167.394355 34.7473238,163.165878 36.1230054,161.511256 L63.0863639,163.187939 C63.0863639,163.187939 58.3907042,141.97569 58.4053781,135.291019 C58.420052,128.606348 59.4178797,131.728067 59.4178797,131.728067 L74.2752406,135.405004 Z" id="Path" fill="#303D72" fill-rule="evenodd"></path>
                                    <path d="M56,6.5 C56,7.32842712 55.3284271,8 54.5,8 C53.6715729,8 53,7.32842712 53,6.5 C53,5.67157288 53.6715729,5 54.5,5 C55.3284271,5 56,5.67157288 56,6.5 Z" id="Path" fill="#60D6E6" fill-rule="evenodd"></path>
                                    <path d="M63,6.5 C63,7.32842712 62.3284271,8 61.5,8 C60.6715729,8 60,7.32842712 60,6.5 C60,5.67157288 60.6715729,5 61.5,5 C62.3284271,5 63,5.67157288 63,6.5 Z" id="Path" fill="#60D6E6" fill-rule="evenodd"></path>
                                    <path d="M58.2582658,131 C58.1122895,131.552427 58.003743,132.694358 58,134.870699 C58,141.611053 62.7760449,163 62.7760449,163 L63.6369308,146.315954 L70,135.337852 L58.2582658,131 Z" id="Path" fill="#27345E" fill-rule="evenodd"></path>
                                    <path d="M116.858868,111 C106.460496,108.467548 97.1886174,102.5005 90.5036197,94.0387117 C83.665503,85.4345059 79.9567507,74.7068327 80.0003806,63.6577888 C80.0003806,36.8259523 101.53477,15 128,15 L128,16.1148963 C102.110516,16.1456143 81.1304988,37.4133087 81.1001962,63.6577888 C81.0602662,74.4539663 84.6846405,84.9355677 91.3651419,93.3437597 C97.8986691,101.608931 106.95697,107.438202 117.115491,109.914834 L116.858868,111 Z" id="Path" fill="#FFB0B2" fill-rule="evenodd"></path>
                                    <path d="M128,112 L128,110.882552 C151.569895,110.811125 171.429853,92.9841338 174.406596,69.2263696 C177.38334,45.4686054 162.552953,23.1539602 139.752557,17.083925 L140.027492,16 C161.215019,21.5641183 176.01232,40.9910021 175.999992,63.2270981 C175.999992,90.1203585 154.46708,112 128,112 Z" id="Path" fill="#60D6E6" fill-rule="evenodd"></path>
                                    <path d="M74.896302,89.0851652 L83.5852082,92.7880019 L86,134.755952 C86,134.755952 71.7574347,144.627715 58,134.259772 L58.3041117,95.5243982 C58.3228237,93.2601936 59.7961917,91.278586 61.9244893,90.655168 L67.5614171,89 L74.896302,89.0851652 Z" id="Path" fill="#60D6E6" fill-rule="evenodd"></path>
                                    <path d="M64.3675,102.555463 L58.28875,98 L58,133.844204 C60.6777401,135.826708 63.7418496,137.241576 67,138 L64.3675,102.555463 Z" id="Path" fill="#50CAD3" fill-rule="evenodd"></path>
                                    <path d="M67,79 L67,88.7557092 C67,88.7557092 68.6947549,90.1515261 71.6741187,89.9864295 C74.4290628,89.8288373 74.8662941,88.8607707 74.8662941,88.8607707 L76,83.8103151 L67,79 Z" id="Path" fill="#FBAD83" fill-rule="evenodd"></path>
                                    <path d="M75.1351351,87.9346831 C73.7775809,88.2514204 72.2073549,87.364556 71.0376606,86.3882599 C68.8754984,84.5809943 68,81 68,81 L75.1493132,83.2730557 L76,83.7649301 L75.1351351,87.9346831 Z" id="Path" fill="#E68D5C" fill-rule="evenodd"></path>
                                    <path d="M80.7832418,66.8530435 C80.7832418,66.8530435 82.0861161,67.353913 81.9954814,70.5782609 C81.8832935,72.0633459 81.6840327,73.5399854 81.3988027,75 L78,66 L80.7832418,66.8530435 Z" id="Path" fill="#1A2249" fill-rule="evenodd"></path>
                                    <path d="M80.8522543,83.9601289 C78.2749948,89.5536543 71.8861422,86.2422872 69.1496138,83.4306085 C66.4130854,80.6189297 66.789539,69.8607158 67.5677845,67.8433177 C68.34603,65.8259195 74.6480088,64.1515909 77.9854151,65.4679339 C81.3228214,66.7842769 83.4258941,78.3777905 80.8522543,83.9601289 Z" id="Path" fill="#FBAD83" fill-rule="evenodd"></path>
                                    <path d="M71.1332518,74 C71.1332518,74 71.8667482,79.9960309 73.5171149,80.473687 C74.9400978,80.8862081 76.9168704,78.8815001 79.4804401,78.7729419 C80.903423,78.7150442 81.4205379,78.8489327 82,79.2361236 C81.867628,80.552824 81.5234598,81.8403022 80.9804401,83.0501348 C78.3691932,88.4780445 71.896088,85.264722 69.1234719,82.5362927 C67.7775061,81.2118827 67.1760391,78.0854067 67,74.9878796 L71.1332518,74 Z" id="Path" fill="#1A2249" fill-rule="evenodd"></path>
                                    <path d="M70.0471353,76.9210037 C70.0471353,76.9210037 70.8312583,77.00491 71.151382,76.5090999 C71.4715056,76.0132898 70.5507005,73.2214976 71.4786994,70.2580787 C72.1441249,68.1451649 75.1583228,66.9208954 77.6221957,67.4319612 C80.0860687,67.943027 80.7083315,68.1756763 80.9601141,67.4319612 C81.2118967,66.688246 80.2227507,64.888074 79.3666897,64.1786841 C78.5106287,63.4692943 74.5036879,62.2221412 71.1585758,63.6676183 C67.8134636,65.1130955 67.1480381,66.0780182 66.3998839,68.3740004 C65.6517298,70.6699825 66.1337137,76.4251936 66.3998839,76.7951442 C66.6660541,77.1650948 70.0471353,76.9210037 70.0471353,76.9210037 Z" id="Path" fill="#1A2249" fill-rule="evenodd"></path>
                                    <path d="M66,76.4492652 C66,77.79986 67.7999992,79 68.9052618,79 C70.0105244,79 69.9999981,77.79986 69.9999981,76.4492652 C69.9999981,75.0986704 69.1052617,74 67.9999991,74 C66.8947364,74 66,75.0986704 66,76.4492652 Z" id="Path" fill="#FBAD83" fill-rule="evenodd"></path>
                                    <path d="M82,80 C82,80 82,86.6107332 81.20554,87.8030718 C80.4110799,88.9954103 77.7927186,89.2615899 76.6066233,88.7584011 C75.4205281,88.2552124 73.5033803,86.4685277 73.0222285,84.9480226 C72.5410766,83.4275175 80.0306342,81.2652644 80.0306342,81.2652644 L82,80 Z" id="Path" fill="#1A2249" fill-rule="evenodd"></path>
                                    <path d="M67.0117566,75.1916759 C66.913708,75.970152 67.4502516,76.879124 67.8288281,76.9916206 C68.2074046,77.1041171 67.3876095,76.0601492 67.4883816,75.286173 C67.5891538,74.5121968 68.2673231,74.1387083 67.8832995,74.0037124 C67.4471815,73.9505582 67.0630479,74.4741545 67.0117566,75.1916759 Z" id="Path" fill="#E68D5C" fill-rule="evenodd"></path>
                                    <path d="M81,82.2221571 C81,82.2221571 78.000997,82.2962094 77.4985045,82.1481047 L77,82 C77.0234131,82.8233388 77.576829,83.5531807 78.4037886,83.8513089 C78.8377481,84.0378346 79.3354906,84.0493536 79.7789206,83.8831329 C80.2223506,83.7169122 80.5719477,83.387766 80.7447657,82.9737885 C80.9282154,82.4739351 81,82.2221571 81,82.2221571 Z" id="Path" fill="#FFFFFF" fill-rule="evenodd"></path>
                                    <path d="M81.6328486,72.9869203 C81.5986432,72.9923742 81.5639275,72.9923742 81.5297221,72.9869203 C80.8533143,72.7687863 80.1362339,72.7687863 79.4598261,72.9869203 C79.2747599,73.040412 79.0841476,72.9254468 79.0208639,72.7221662 C78.9575801,72.5188856 79.0426371,72.2947853 79.2167422,72.2060843 C80.037557,71.9313052 80.9114772,71.9313052 81.732292,72.2060843 C81.9271935,72.2685526 82.0407472,72.4968217 81.9864251,72.7169504 C81.9315681,72.8826634 81.789661,72.9910152 81.6328486,72.9869203 Z" id="Path" fill="#1A2249" fill-rule="evenodd"></path>
                                    <path d="M75.3828284,73.9999199 C75.2901145,73.9992611 75.2008668,73.978074 75.1313329,73.940216 C74.9726046,73.854012 74.955375,73.7051276 75.0926413,73.6058739 C75.1468096,73.5676633 76.4352401,72.6744923 78.7064375,73.1282423 C78.8465896,73.1497524 78.9556672,73.2176499 78.9893304,73.3043347 C79.0229936,73.3910194 78.9756383,73.4820607 78.8665145,73.5404503 C78.7573906,73.5988399 78.6046643,73.6148577 78.4704187,73.5819923 C76.6944739,73.2333212 75.7155762,73.8972291 75.6730154,73.925887 C75.5975864,73.9747705 75.4921622,74.0016664 75.3828284,73.9999199 Z" id="Path" fill="#1A2249" fill-rule="evenodd"></path>
                                    <polygon id="Path" fill="#FF9398" fill-rule="evenodd" points="115.66065 103.956047 117 110 112.429603 105.632196 102 83.6799245 105.231047 82"></polygon>
                                    <path d="M109.175969,106.844061 C109.175969,106.844061 113.020345,105.358283 115.368687,106.348801 C117.717029,107.33932 118.497412,107.062658 118.889402,106.42736 C119.281392,105.792062 118.626877,103.933985 116.997782,102.448207 C115.368687,100.962429 111.121533,102.448207 111.121533,102.448207 L110.362727,101 C109.823964,101.332761 109.408845,101.817827 109.175969,102.386726 C108.912709,103.000252 108.51134,103.551661 108,104.002297 L109.175969,106.844061 Z" id="Path" fill="#FBAD83" fill-rule="evenodd"></path>
                                    <path d="M58.63199,93.381659 C57.6853294,96.1060433 57.8059287,99.0997651 58.9685021,101.735133 C60.9431992,106.023527 80.2575118,117 80.2575118,117 L110,108.271812 C110,108.271812 109.008954,104.577661 108.454263,102.972825 L81.829134,108.109057 C81.829134,108.109057 66.8451028,94.2181419 61.9786209,92.2120969 C59.9040795,91.352904 58.63199,93.381659 58.63199,93.381659 Z" id="Path" fill="#60D6E6" fill-rule="evenodd"></path>
                                    <polygon id="Path" fill="#E68D5C" fill-rule="evenodd" points="205 127.506777 203.350244 168 197.946261 167.188945 195 126"></polygon>
                                    <polygon id="Path" fill="#FBAD82" fill-rule="evenodd" points="208.67737 127 213 168 207.767531 168 199 127"></polygon>
                                    <polygon id="Path" fill="#F7A379" fill-rule="evenodd" points="208.721182 128 210 139 201.330049 138.359121 199 128"></polygon>
                                    <path d="M210.335287,50 C210.335287,50 215.189483,50.63 220.93061,72.1052632 C222.159799,76.7068421 206.651397,99 206.651397,99 L206,93.7684211 L214.747858,72.7057895 L208.491502,62.0215789 L210.335287,50 Z" id="Path" fill="#F89900" fill-rule="evenodd"></path>
                                    <path d="M191.467557,84 L185,130.751758 C185,130.751758 199.861223,134.639957 210.430612,132.189757 L221,129.739557 L213.113008,84.4668826 L191.467557,84 Z" id="Path" fill="#303D72" fill-rule="evenodd"></path>
                                    <polygon id="Path" fill="#27345E" fill-rule="evenodd" points="210.216608 131 221 128.565679 212.867317 83.1012737 208 83"></polygon>
                                    <path d="M198.764186,49 L189,52.2105007 L189.445836,62.0912539 L190.613854,87.0833095 C190.658069,88.0170704 198.428887,90.014798 202.463522,89.9999173 C206.350774,89.9813165 212.846721,88.7573829 213.417833,88.2551608 C213.771963,87.9545702 213.983478,87.5166438 214,87.049828 L212.445099,54.338434 C212.33858,52.1116949 210.672475,50.2792849 208.484156,49.9821231 L205.359617,49.5617446 L198.764186,49 Z" id="Path" fill="#F9C200" fill-rule="evenodd"></path>
                                    <path d="M192.5,38 C191.121988,38 190,36.7342074 190,35.1787843 L190,35 L190.188253,35 L195,35 L195,35.1787843 C195,36.7377831 193.878012,38 192.5,38 Z M190.391566,35.3468415 C190.466867,36.6305125 191.389307,37.6424315 192.50753,37.6424315 C193.625753,37.6424315 194.551958,36.6269368 194.627259,35.3468415 L190.391566,35.3468415 Z" id="Shape" fill="#1A2249" fill-rule="nonzero"></path>
                                    <path d="M207,39 L205.818428,49.1091086 C204.636867,49.9155353 203.197194,50.1894535 201.822042,49.8694778 C200.033424,49.5121042 199.336043,48.5236243 199.336043,48.5236243 L199,43.0033439 L207,39 Z" id="Path" fill="#FBAD83" fill-rule="evenodd"></path>
                                    <path d="M206.797651,40.7690802 C206.708667,40.9434949 206.608449,41.1109022 206.497742,41.2700587 C204.969286,43.3874755 202.028004,46.4129159 199.227642,47 L199,43.1330724 L207,39 L206.797651,40.7690802 Z" id="Path" fill="#E68D5C" fill-rule="evenodd"></path>
                                    <path d="M193.213461,42.2947779 C195.955621,47.966371 202.859721,43.4003516 205.770456,40.5442861 C208.681192,37.6882207 208.182958,27.9665425 207.377542,25.8954344 C206.572126,23.8243263 199.855332,22.1438543 196.28528,23.474228 C192.715227,24.8046017 190.490032,36.6231847 193.213461,42.2947779 Z" id="Path" fill="#FBAD83" fill-rule="evenodd"></path>
                                    <path d="M196.567767,45.9481053 C199.283383,46.9855542 202.21728,47.261939 205.070288,46.7490769 C206.748497,46.4380783 208.367281,45.8508667 209.864646,45.0099301 C211.339279,37.9643463 211.774476,30.1214991 208.706519,24.429409 C206.573695,20.4690493 200.937718,19.1340966 197.297891,20.5469215 C192,22.6049736 192.079127,29.8545085 192,30.4960275 C193.228439,30.2620904 194.487151,30.2520498 195.718954,30.4663619 L196.567767,45.9481053 Z" id="Path" fill="#1A2249" fill-rule="evenodd"></path>
                                    <path d="M198,36.9588785 C198,38.0392523 196.651054,39 195.822015,39 C194.992975,39 195.000001,38.0392523 195.000001,36.9588785 C195.000001,35.8785047 195.674474,35 196.5,35 C197.325527,35 198,35.8785047 198,36.9588785 Z" id="Path" fill="#FBAD83" fill-rule="evenodd"></path>
                                    <circle id="Oval" fill="#FFFFFF" fill-rule="evenodd" cx="195.5" cy="40.5" r="1.5"></circle>
                                    <rect id="Rectangle" fill="#1A2249" fill-rule="evenodd" x="191" y="35" width="13" height="1"></rect>
                                    <path d="M190,62 L191.186155,87.1140187 C191.223573,87.9663551 197.738073,89.7009346 202,90 L190,62 Z" id="Path" fill="#EDB607" fill-rule="evenodd"></path>
                                    <path d="M162.915241,20 C162.915241,20 164.080744,18.5303084 163.995547,17.6404952 C163.910349,16.7506819 163.313966,16.0374983 162.574451,16.0008393 C161.834936,15.9641803 161,17.1406001 161,17.1406001 L162.915241,20 Z" id="Path" fill="#FBAD83" fill-rule="evenodd"></path>
                                    <polygon id="Path" fill="#60D6E6" fill-rule="evenodd" points="145.97704 18 140 16.7842064 145.8178 14.0946052 169.84076 13 170 16.9053948"></polygon>
                                    <path d="M163,21.4378372 C163,21.4378372 161.760062,16.6432276 160.412152,14.45098 C159.064241,12.2587323 155.971362,13.1013309 155.013545,13.4741621 C154.055728,13.8469934 154,14.6336673 154,14.6336673 C154,14.6336673 156.187307,15.4315261 156.883901,17.0607985 C157.580495,18.690071 157.625774,19.2045781 157.671053,19.7190852 C157.716331,20.2335923 159.91757,23 159.91757,23 L163,21.4378372 Z" id="Path" fill="#FBAD83" fill-rule="evenodd"></path>
                                    <path d="M188.778714,52.1221243 L171.674049,43.3889539 L163.752311,21.0002131 C163.752311,21.0002131 160.316025,20.9332922 159,23.1714227 C159,23.1714227 165.368097,45.6865696 166.738956,48.9136415 C168.109815,52.1407135 187.780729,61.253102 189.232012,61.9037213 C190.683294,62.5543407 191.944485,59.7585364 191.999319,57.9925697 C192.054153,56.2266029 188.778714,52.1221243 188.778714,52.1221243 Z" id="Path" fill="#F9C200" fill-rule="evenodd"></path>
                                    <polygon id="Path" fill="#19192B" fill-rule="evenodd" points="249 141 244.36014 173 243 173 244.776224 141"></polygon>
                                    <polygon id="Path" fill="#19192B" fill-rule="evenodd" points="248 141 244.353514 173 243 173 244.771051 141"></polygon>
                                    <polygon id="Path" fill="#19192B" fill-rule="evenodd" points="226 141 221.36014 173 220 173 221.77972 141"></polygon>
                                    <polygon id="Path" fill="#A9C2DC" fill-rule="evenodd" points="224 141 220.354457 173 219 173 220.768802 141"></polygon>
                                    <polygon id="Path" fill="#19192B" fill-rule="evenodd" points="248 141 252.63986 173 254 173 252.22028 141"></polygon>
                                    <path d="M270.912909,107 L249.677515,107 C245.106815,107.002038 241.40204,110.702275 241.4,115.267376 C241.400981,117.460321 240.529204,119.56373 238.976656,121.114376 C237.424108,122.665023 235.318119,123.535732 233.122485,123.534752 L225.277515,123.534752 C220.70597,123.534752 217,127.236183 217,131.802129 L217,141 L278,141 L278,114.100565 C278.000019,110.187667 274.830587,107.012209 270.912909,107 Z" id="Path" fill="#60D6E6" fill-rule="evenodd"></path>
                                    <polygon id="Path" fill="#A9C2DC" fill-rule="evenodd" points="250 141 253.645543 173 255 173 253.231198 141"></polygon>
                                    <polygon id="Path" fill="#19192B" fill-rule="evenodd" points="272 141 276.63986 173 278 173 276.22028 141"></polygon>
                                    <polygon id="Path" fill="#A9C2DC" fill-rule="evenodd" points="273 141 276.646486 173 278 173 276.228949 141"></polygon>
                                    <polygon id="Path" fill="#0CBFD1" fill-rule="evenodd" points="278 141 278 121 217 135.537495 217 141"></polygon>
                                </g>
                            </g>
                        </g>
                    </g>
                </g>
            </g>
        </g>
    </g>
</svg>