<?xml version="1.0" encoding="UTF-8"?>
<svg width="329px" height="188px" viewBox="0 0 329 188" version="1.1" xmlns="http://www.w3.org/2000/svg" xmlns:xlink="http://www.w3.org/1999/xlink">
    <!-- Generator: Sketch 52.6 (67491) - http://www.bohemiancoding.com/sketch -->
    <title>recent-image-3@2x</title>
    <desc>Created with Sketch.</desc>
    <defs>
        <linearGradient x1="67.593541%" y1="-8.71036724%" x2="75.4629913%" y2="100%" id="linearGradient-1">
            <stop stop-color="#6BBC82" offset="0%"></stop>
            <stop stop-color="#3DA75B" offset="100%"></stop>
        </linearGradient>
        <rect id="path-2" x="0" y="0" width="329" height="188"></rect>
    </defs>
    <g id="Page-1" stroke="none" stroke-width="1" fill="none" fill-rule="evenodd">
        <g id="wed-dev-exercise" transform="translate(-904.000000, -800.000000)">
            <g id="=Section-Recent" transform="translate(0.000000, 659.000000)">
                <g id="-recent-columns" transform="translate(208.000000, 141.000000)">
                    <g id="recent-col-3" transform="translate(696.000000, 0.000000)">
                        <g id="recent-image-3">
                            <mask id="mask-3" fill="white">
                                <use xlink:href="#path-2"></use>
                            </mask>
                            <use id="Rectangle" fill="url(#linearGradient-1)" fill-rule="nonzero" xlink:href="#path-2"></use>
                            <g id="teamwork_white_1" mask="url(#mask-3)">
                                <g transform="translate(5.000000, 25.000000)">
                                    <path d="M64,59.929929 L77.6995885,49.791619 L78.996803,20.5067552 L84.4042524,19 C84.4042524,19 86.8302585,47.9978628 86.9986814,52.5217159 C87.1671043,57.045569 71.1454301,66 71.1454301,66 L64,59.929929 Z" id="Path" fill="#FBAD83" fill-rule="evenodd"></path>
                                    <polygon id="Path" fill="#B7AFF9" fill-rule="evenodd" points="225.758598 70 91 70 91 126.855623 91 133.038564 91 203 161.887024 133.038564 233 133.038564 233 70"></polygon>
                                    <polygon id="Path" fill="#7854F7" fill-rule="evenodd" points="285.681866 0 222.861188 0 82 0 82 63 222.640663 63 222.861188 63 285.681866 0.31743487 286 0"></polygon>
                                    <polygon id="Path" fill="#6F5FF3" fill-rule="evenodd" points="285.681866 0 222.861188 0 82 0 82 63 222.640663 63 222.861188 63 285.681866 0.31743487 286 0"></polygon>
                                    <path d="M278.803263,50.3197505 L282.69783,39.0075745 L273.121609,16.883729 C273.121609,16.883729 271.615757,17.9101303 269.743232,16.4122372 L271.167205,14.9614932 C271.167205,14.9614932 266.642529,9.60462115 266.0943,8.15025032 C265.54607,6.6958795 267.518273,5.76014964 268.657452,6.05392529 C272.662377,7.09120723 274.933615,10.3553811 275.286048,11.8532743 C275.638482,13.3511674 275.998035,14.3340465 275.998035,14.3340465 C275.998035,14.3340465 287.699537,34.9708794 288.813796,39.1381414 C289.928055,43.3054035 285.677495,53 285.677495,53 L278.803263,50.3197505 Z" id="Path" fill="#FBAD83" fill-rule="evenodd"></path>
                                    <path d="M282.640943,117 C282.640943,117 280.897719,135.431118 279.64944,141.29066 C278.40116,147.150202 277.007309,150.200473 277.007309,150.200473 L295,189.555442 C295,189.555442 294.159322,192.335937 291.819253,192.792758 C290.376957,193.069081 288.894392,193.069081 287.452095,192.792758 C287.452095,192.792758 268.302108,156.049223 266.566162,153.139236 C264.830217,150.229249 265.004903,122.165317 265.004903,122.165317 L282.640943,117 Z" id="Path" fill="#19192B" fill-rule="evenodd"></path>
                                    <path d="M256.07215,115.057674 L252,149.591417 L258.348851,195.738181 C258.348851,195.738181 263.531587,196.327274 265.171553,195.738181 L266.81522,195.145497 L264.327507,150.999491 C264.327507,150.999491 279.324123,130.320195 278.99465,117.658301 L278.668878,105 L256.07215,115.057674 Z" id="Path" fill="#303D72" fill-rule="evenodd"></path>
                                    <path d="M255.579206,114.801199 L255,119.838681 L275.131027,130 C276.883125,125.602999 278.092218,121.166417 277.994477,117.427886 C277.824335,110.591304 277.744694,107.453673 277.708494,106 L256.791918,114.275862 L255.579206,114.801199 Z" id="Path" fill="#27345E" fill-rule="evenodd"></path>
                                    <path d="M281.646425,71 C281.646425,71 265.9894,62.5527563 269.517904,60.1356666 C276.136211,55.5816254 277.263214,49.7525963 277.263214,49.7525963 C277.263214,49.7525963 278.866736,48.1220484 280.640442,48.0178945 C286.513717,47.6767006 288,52.3277127 288,52.3277127 L281.646425,71 Z" id="Path" fill="#F9C200" fill-rule="evenodd"></path>
                                    <path d="M244.700477,77.4672182 L239.176611,81.612653 L219.529833,64 C219.529833,64 218.147971,64.1016394 217.073986,66.0073778 L216,67.9167462 C216,67.9167462 232.424821,88.3317422 236.566826,89.7982533 C240.708831,91.2647644 249,84.2552769 249,84.2552769 L244.700477,77.4672182 Z" id="Path" fill="#FBAD83" fill-rule="evenodd"></path>
                                    <path d="M265.160618,62 C265.160618,62 257.351729,63.6170749 255.183791,64.6399018 C253.015854,65.6627287 242,76.164712 242,76.164712 C242.225606,79.5805209 243.873235,82.7442931 246.540804,84.8839512 C247.874643,85.9824096 248.029239,85.7555149 248.029239,85.7555149 L254.522265,80.8286586 L253.742095,115.039337 C253.742095,115.039337 264.247423,122.242344 277.258643,119.289111 C283.309453,117.92054 282.971499,116.840089 282.971499,116.840089 C282.971499,116.840089 283.413715,73.3915545 280.814348,68.3494501 C279.29684,65.3787151 276.686337,63.1149279 273.533961,62.036015 L265.160618,62 Z" id="Path" fill="#F9C200" fill-rule="evenodd"></path>
                                    <path d="M274,52 L274,61.7593745 C274,61.7593745 272.119625,63.1530841 268.812353,62.9861116 C265.751368,62.8327694 265.266615,61.8650102 265.266615,61.8650102 L264,56.80472 L274,52 Z" id="Path" fill="#FBAD83" fill-rule="evenodd"></path>
                                    <path d="M258.227466,58.8293563 C260.972965,64.6601937 267.78756,61.21486 270.705091,58.2764015 C273.622623,55.337943 273.218873,44.0980735 272.411373,41.9713243 C271.603874,39.8445751 264.859496,38.1183637 261.302986,39.4901169 C257.746477,40.8618702 255.464412,52.9985189 258.227466,58.8293563 Z" id="Path" fill="#FBAD83" fill-rule="evenodd"></path>
                                    <path d="M275.49932,52.3795561 C275.207966,53.5054037 274.510798,54.4925824 273.534242,55.1620759 C272.154662,56.1251191 269.717527,57.3760093 266.804674,56.8927108 C262.248767,56.1393338 263.09042,55.1976125 263.738128,53.0334305 C264.385835,50.8692484 260.444701,53.0334305 260.078765,51.1570953 C259.712828,49.2807601 261.871853,46.1641958 260.997265,45.1158645 C260.122677,44.0675333 257.648948,45.1158645 256.898778,43.6943985 C256.148609,42.2729324 255.321593,39.8173498 256.898778,37.7100264 C258.475964,35.602703 260.902121,36.7292148 262.548835,36.3525263 C264.195548,35.9758378 263.613709,34 266.811993,34 C270.010276,34 270.870226,37.766885 273.106097,38.6197647 C275.341968,39.4726443 278.152358,42.479045 276.505645,45.0163619 C274.858932,47.5536788 274.763788,48.570027 275.407836,49.8635612 C275.777773,50.657928 275.81064,51.5618285 275.49932,52.3795561 Z" id="Path" fill="#1A2249" fill-rule="evenodd"></path>
                                    <path d="M264,53.4489796 C264,54.8042092 262.199522,56 261.094973,56 C259.990424,56 260.000001,54.8010204 260.000001,53.4489796 C260.000001,52.0969388 260.893856,51 261.998405,51 C263.102953,51 264,52.0969388 264,53.4489796 Z" id="Path" fill="#FBAD83" fill-rule="evenodd"></path>
                                    <path d="M262.879968,53.39069 C262.62015,53.9441578 261.590999,54.1182825 261.10173,53.9223922 C260.612461,53.7265019 262.033028,53.6674239 262.292846,53.1139561 C262.552664,52.5604883 261.955419,51.8391146 262.461559,52.0318955 C262.967699,52.2246764 263.139787,52.8216754 262.879968,53.39069 Z" id="Path" fill="#E68D5C" fill-rule="evenodd"></path>
                                    <path d="M82.007384,204 C82.007384,204 82.51741,188.572797 82.007384,165.832839 C81.4973579,143.092881 107.508686,122.38605 129,132.743077 C129,132.743077 115.203426,132.909193 105.387273,141.243928 C95.5711198,149.578662 89.9977918,154.471888 89.2031861,168.747107 C88.4085803,183.022326 85.4740827,204 85.4740827,204 L82.007384,204 Z" id="Path" fill="#00B98F" fill-rule="evenodd"></path>
                                    <path d="M73.4628256,203.956574 C73.4628256,203.956574 71.7327598,158.739445 66.0912411,141.112183 C60.4497224,123.484922 68.0093575,84 68.0093575,84 C68.0093575,84 68.2763894,114.499397 72.8685856,129.513872 C77.4607819,144.528347 85.3100149,163.92883 83.8131319,181.505428 C82.316249,199.082027 78.4386451,204 78.4386451,204 L73.4628256,203.956574 Z" id="Path" fill="#00B98F" fill-rule="evenodd"></path>
                                    <path d="M76.9994395,143.689594 L66,140 C66.049547,140.169016 66.095555,140.341629 66.145102,140.507049 C71.4537118,158.023631 73.0852246,202.956847 73.0852246,202.956847 L77.7674184,203 C77.7674184,203 81.4162029,198.112906 82.8247541,180.646669 C83.8015383,168.513443 80.5349737,155.502768 76.9994395,143.689594 Z" id="Path" fill="#068E6A" fill-rule="evenodd"></path>
                                    <path d="M72.9716151,203 C72.9716151,203 80.0752412,180.583169 67.6951496,144.869498 C55.3150581,109.155827 40,101 40,101 C40,101 53.8044135,131.097771 59.5808304,154.629867 C65.3572474,178.161964 65.425586,203 65.425586,203 L72.9716151,203 Z" id="Path" fill="#00C99C" fill-rule="evenodd"></path>
                                    <path d="M90.7043454,143 C85.8634964,149.347494 82.8414039,157.325537 83.0064328,165.532876 C83.4740148,188.46247 83.0064328,204 83.0064328,204 L86.2382497,204 C86.2382497,204 88.9681034,182.853819 89.7072956,168.470048 C90.2402015,158.133532 93.0663222,152.677745 98,147.305668 L90.7043454,143 Z" id="Path" fill="#068E6A" fill-rule="evenodd"></path>
                                    <path d="M76.7030218,203 C76.7030218,203 80.5037298,181.534536 76.3090904,151.146918 C72.1144511,120.759299 112,94 112,94 C112,94 91.0705734,118.098055 87.2662179,137.643697 C83.4618624,157.18934 86.4929453,181.341121 84.0965296,193.497601 C82.619287,200.976308 82.4916241,203 82.4916241,203 L76.7030218,203 Z" id="Path" fill="#00C99C" fill-rule="evenodd"></path>
                                    <path d="M85.5552379,203 C85.5552379,203 87.6561538,189.47873 87.394448,169.440402 C87.1327422,149.402074 99.9599606,132.615057 87.4162568,102.927443 C74.8725531,73.2398281 66,74.0192769 66,74.0192769 C66,74.0192769 80.8736122,72.7238042 91.3091304,91.3728369 C101.744649,110.02187 103.903721,134.03683 97.0484837,157.04861 C90.193246,180.060391 90.5930743,202.989174 90.5930743,202.989174 L85.5552379,203 Z" id="Path" fill="#00C99C" fill-rule="evenodd"></path>
                                    <path d="M73.07777,203 C73.07777,203 78.4015847,185.267003 71.3292957,156.220583 L60,153 C60.1329249,153.543361 60.2624416,154.079525 60.3851415,154.619288 C65.8589228,178.156531 65.9270894,203 65.9270894,203 L73.07777,203 Z" id="Path" fill="#00B98F" fill-rule="evenodd"></path>
                                    <path d="M78.6823028,161.830325 C80.7735608,187.01083 78,204 78,204 L83.4140725,204 C83.4140725,204 83.5334755,201.960289 84.9151386,194.422383 C86.365032,186.505415 85.6929638,173.516245 86,160 L78.6823028,161.830325 Z" id="Path" fill="#00B98F" fill-rule="evenodd"></path>
                                    <path d="M57.4320136,120 L57.9981033,144.895618 C58.0389135,146.673711 57.4199307,148.404327 56.25966,149.756139 L23.4885436,188 C21.4508779,187.085801 19.8438994,185.426403 19,183.365042 L44.9670832,144.910171 L39.7079271,122.903215 L57.4320136,120 Z" id="Path" fill="#19192B" fill-rule="evenodd"></path>
                                    <path d="M47.1700058,114.318645 L52.9082805,147.219383 C53.0416444,147.982354 53.0294703,148.764139 52.8724163,149.522471 L43.8453929,193.183062 C43.8453929,193.183062 40.4454652,195.021173 37.5117722,193.183062 L40.3809096,148.603415 C40.3809096,148.603415 29.3311444,133.346366 28.4273661,126.622366 C27.5235878,119.898366 28.3341191,113 28.3341191,113 L47.1700058,114.318645 Z" id="Path" fill="#303D72" fill-rule="evenodd"></path>
                                    <polygon id="Path" fill="#303D72" fill-rule="evenodd" points="46 126 57 120.134604 56.1790006 113 46 116.541017"></polygon>
                                    <path d="M54.5337978,62.1476122 C54.5337978,62.1476122 61.6230359,60.3426472 69.1190335,54 C69.1190335,54 75.9722058,58.2091785 76.4879188,61.1043424 L77,63.9922865 C77,63.9922865 64.9679069,72.1687781 63.1992292,73.1939983 C61.4305514,74.2192184 59.291432,115.069187 59.291432,115.069187 C59.291432,115.069187 44.2812778,123.913516 28,115.069187 C28,115.069187 31.5990958,71.1363381 33.9997035,67.732174 C36.4003113,64.32801 45.1892232,62.0068249 45.1892232,62.0068249 L54.5337978,62.1476122 Z" id="Path" fill="#60D6E6" fill-rule="evenodd"></path>
                                    <path d="M44,50 L44,61.5342882 C44,61.5342882 45.8896447,63.1820436 49.1889645,62.9833781 C52.250189,62.8002941 52.7377173,61.6589411 52.7377173,61.6589411 L54,55.6911837 L44,50.0116862" id="Path" fill="#FBAD83" fill-rule="evenodd"></path>
                                    <path d="M53.0600586,61 C51.9485712,60.5498057 50.911569,59.9359102 49.9838867,59.1789354 C48.5956956,58.1096348 47.5573663,56.6554538 47,55 L53.0668945,56.1483579 L54,56.6613817 L53.0498047,61" id="Path" fill="#E68D5C" fill-rule="evenodd"></path>
                                    <rect id="Rectangle" fill="#1A2249" fill-rule="evenodd" x="57" y="43.7900156" width="5" height="1"></rect>
                                    <path d="M59.1514143,37.5293441 C59.1514143,37.5293441 60,39.9497507 60,42.0709628 C60,43.7740698 59.4043261,47 59.4043261,47 L56,37 L59.1514143,37.5293441 Z" id="Path" fill="#7A4029" fill-rule="evenodd"></path>
                                    <path d="M58.7032206,54.6886091 C55.7846983,60.7697285 48.5407023,57.1925994 45.438194,54.1126913 C42.3356858,51.0327831 42.7649864,39.310531 43.6344102,37.0891338 C44.503834,34.8677366 51.6540332,33.0827492 55.4347642,34.5136008 C59.2154952,35.9444525 61.6217429,48.6182209 58.7032206,54.7064947" id="Path" fill="#FBAD83" fill-rule="evenodd"></path>
                                    <rect id="Rectangle" fill="#D7C5BE" fill-rule="evenodd" x="55" y="51" width="6" height="7"></rect>
                                    <path d="M46.2896151,46.0037572 L43,46.0037572 C43.201032,49.6632948 43.884541,53.3528902 45.4050742,54.915896 C47.2984304,56.8546243 50.7123199,59 53.7753171,59 C55.7966029,59 57.6680284,58.0644509 58.8413244,55.5208092 C59.4608907,54.0917416 59.8521413,52.5692964 60,51.0121387 C59.4407654,50.6364162 58.9363578,50.4523121 57.8069232,50.4523121 C57.6058912,50.4523121 57.3865835,50.4523121 57.14169,50.4710983 C54.5063427,50.583815 52.4156095,52.5450867 50.8475597,52.5450867 C50.6904885,52.5452902 50.5341883,52.5225186 50.3833584,52.4774566 C48.5009675,51.9138728 46.3042356,46 46.3042356,46" id="Path" fill="#D48C68" fill-rule="evenodd"></path>
                                    <path d="M44.0267958,46.8842822 C45.1305923,46.7878687 46.1454176,46.2784964 46.8396978,45.4723993 C47.533978,44.6663022 47.8484749,43.6322592 47.7114231,42.6062294 C47.5384712,41.3087871 47.1286504,40.8985149 47.4895935,39.6712046 C48.2077198,37.2165842 51.3471726,37.4585396 53.4677132,38.3667492 C55.5882538,39.2749587 57.8930258,39.2784653 59.7165403,37.9915429 C61.0616153,37.0148003 61.3976461,35.2479556 60.4948238,33.8993399 C59.3142391,32.1214934 55.1182758,30 55.1182758,30 C55.1182758,30 55.625852,31.0519802 55.45666,31.6200495 C55.2874679,32.1881188 44.1433503,29.0497112 41.8536177,33.6749175 C39.563885,38.3001238 42.6055824,47 42.6055824,47 L44.0267958,46.8842822 Z" id="Path" fill="#7A4029" fill-rule="evenodd"></path>
                                    <path d="M43,46.935305 C43,48.5582255 44.8010788,50 45.9051648,50 C47.0092508,50 46.9999987,48.5582255 46.9999987,46.935305 C46.9999987,45.3123845 46.1025433,44 44.9984573,44 C43.8943713,44 43,45.3123845 43,46.935305 Z" id="Path" fill="#FBAD83" fill-rule="evenodd"></path>
                                    <path d="M44.0122978,46.1772568 C43.9119915,46.964719 44.4469586,47.8545513 44.8290779,47.9884199 C45.2111972,48.1222884 44.3896407,47.0670891 44.489947,46.2914389 C44.5902533,45.5157886 45.2661269,45.1496187 44.8840076,45.0196874 C44.5018882,44.8897562 44.1102159,45.4173558 44.0122978,46.1772568 Z" id="Path" fill="#E68D5C" fill-rule="evenodd"></path>
                                    <path d="M59,48 C57.8980263,48 57,46.8785942 57,45.4984026 C57,44.1182109 57.8980263,43 59,43 C60.1019737,43 61,44.1214058 61,45.4984026 C61,46.8753994 60.1052632,48 59,48 Z M59,43.3194888 C58.0789474,43.3194888 57.3289474,44.2971246 57.3289474,45.4984026 C57.3289474,46.6996805 58.0789474,47.6805112 59,47.6805112 C59.9210526,47.6805112 60.6710526,46.7028754 60.6710526,45.4984026 C60.6710526,44.2939297 59.9210526,43.313099 59,43.313099 L59,43.3194888 Z" id="Shape" fill="#1A2249" fill-rule="nonzero"></path>
                                    <path d="M54,48 C52.8980263,48 52,46.8785942 52,45.4984026 C52,44.1182109 52.8980263,43 54,43 C55.1019737,43 56,44.1214058 56,45.4984026 C56,46.8753994 55.1052632,48 54,48 Z M54,43.3194888 C53.0789474,43.3194888 52.3289474,44.2971246 52.3289474,45.4984026 C52.3289474,46.6996805 53.0789474,47.6805112 54,47.6805112 C54.9210526,47.6805112 55.6710526,46.7028754 55.6710526,45.4984026 C55.6710526,44.2939297 54.9243421,43.313099 54,43.313099 L54,43.3194888 Z" id="Shape" fill="#1A2249" fill-rule="nonzero"></path>
                                    <rect id="Rectangle" fill="#1A2249" fill-rule="evenodd" x="48" y="43.7900156" width="5" height="1"></rect>
                                    <rect id="Rectangle" fill="#1A2249" fill-rule="evenodd" x="56" y="43.7900156" width="1" height="1"></rect>
                                    <path d="M59,52 L55,52 C55,52 55.8095238,53.9569481 57.1587302,53.9993486 C58.5079365,54.0417492 59,52 59,52 Z" id="Path" fill="#FFFFFF" fill-rule="evenodd"></path>
                                    <path d="M79.2006671,19.2459397 C79.2006671,19.2459397 77.9715534,18.7407193 77.0688146,15.8074246 C76.1660757,12.8741299 84.4434967,7 84.4434967,7 C84.8493666,7.40813042 85.0518262,8.00186439 84.9886121,8.59860789 C84.9330589,9.69576566 81.1693323,13.6395012 81.1693323,13.6395012 L81.1693323,18.6200696 L79.1728905,20 L79.2006671,19.2459397 Z" id="Path" fill="#FBAD83" fill-rule="evenodd"></path>
                                    <path d="M219,62.8768372 C219,62.8768372 218.899681,62.1699001 218.830495,60.7522046 C218.761309,59.3345091 216.384779,54 216.384779,54 C216.384779,54 214.530601,54.6763668 214.655136,56.1743092 C214.77967,57.6722516 215.620277,60.5534979 215.692922,61.1037625 C215.765567,61.654027 215.129058,62.4526749 215.129058,62.4526749 L206,62.4526749 C206,62.4526749 206.937467,64.7454439 210.407131,65.5631981 C212.254391,65.9988242 215.596062,67 215.596062,67 L219,62.8768372 Z" id="Path" fill="#FBAD83" fill-rule="evenodd"></path>
                                    <path d="M28.4233456,127.449899 C29.0592757,132.19861 34.8181733,141.222596 38.061772,146 L43,117.016364 L35.457656,114.505716 L28.3309759,114 C28.3309759,114 27.5280697,120.793096 28.4233456,127.449899 Z" id="Path" fill="#27345E" fill-rule="evenodd"></path>
                                    <path d="M39.904277,72 L31.6374745,73.5190543 C29.3971487,86.3731476 27,115.050724 27,115.050724 C33.7029606,118.625229 41.4829627,119.823681 49,118.439661 L39.904277,72 Z" id="Path" fill="#50CAD3" fill-rule="evenodd"></path>
                                    <path d="M26.4805103,80 C26.4805103,80 19.9921698,88.5318558 19.039956,91.0650328 C18.0877422,93.5982098 34.4709865,122.550869 34.4709865,122.550869 C34.4709865,122.550869 32.3303509,130.815314 32.3967844,132.690804 C32.4632179,134.566295 34.6776686,137.898091 36.7740152,137.999274 C38.8703619,138.100456 41.2767316,127.602768 40.97409,124.028857 C40.6714484,120.454945 27.8017992,92.409315 27.8017992,92.409315 L34.4451513,83.7690494 L26.4805103,80 Z" id="Path" fill="#FBAD83" fill-rule="evenodd"></path>
                                    <path d="M32.3649864,67 L22,81.2975531 C22,81.2975531 24.8125915,86.8147884 30.5337795,88 C30.5337795,88 39,78.7245937 39,73.1210931 C39,67.5175924 32.3649864,67 32.3649864,67 Z" id="Path" fill="#60D6E6" fill-rule="evenodd"></path>
                                    <path d="M253.803704,81 L253,114.984176 C256.084878,116.839951 259.462667,118.196411 263,119 L253.803704,81 Z" id="Path" fill="#EDB607" fill-rule="evenodd"></path>
                                </g>
                            </g>
                        </g>
                    </g>
                </g>
            </g>
        </g>
    </g>
</svg>