<?xml version="1.0" encoding="UTF-8"?>
<svg width="422px" height="233px" viewBox="0 0 422 233" version="1.1" xmlns="http://www.w3.org/2000/svg" xmlns:xlink="http://www.w3.org/1999/xlink">
    <!-- Generator: Sketch 52.6 (67491) - http://www.bohemiancoding.com/sketch -->
    <title>webniar-image@2x</title>
    <desc>Created with Sketch.</desc>
    <defs>
        <rect id="path-1" x="0" y="0" width="422" height="233"></rect>
    </defs>
    <g id="Page-1" stroke="none" stroke-width="1" fill="none" fill-rule="evenodd">
        <g id="wed-dev-exercise" transform="translate(-538.000000, -2145.000000)">
            <g id="=Section-Callout" transform="translate(0.000000, 2145.000000)">
                <g id="Background">
                    <g id="webniar-image" transform="translate(538.000000, 0.000000)">
                        <mask id="mask-2" fill="white">
                            <use xlink:href="#path-1"></use>
                        </mask>
                        <use id="Background" fill="#EE5500" xlink:href="#path-1"></use>
                        <g id="teamwork_white_14" transform="translate(0.000000, 84.000000)">
                            <path d="M350,57.4916806 L346.42988,72.3891121 C342.972729,74.2985914 338.84754,74.5222192 335.208643,72.9974188 L329,70.4242814 L331.740698,54 L350,57.4916806 Z" id="Path" fill="#FBAD83"></path>
                            <path d="M331.552105,54 L329,69 C331.873869,68.0528865 334.607364,66.73191 337.128456,65.0718789 C338.07879,64.4534044 338.992652,63.781864 339.865589,63.0605296 C341.543598,61.667087 342.908975,59.2774275 344,56.3139975 L331.552105,54 Z" id="Path" fill="#E68D5C"></path>
                            <ellipse id="Oval" fill="#19192B" cx="352.5" cy="44" rx="5.5" ry="9"></ellipse>
                            <ellipse id="Oval" fill="#19192B" cx="353.5" cy="44" rx="5.5" ry="9"></ellipse>
                            <ellipse id="Oval" fill="#19192B" cx="356" cy="44" rx="3" ry="5"></ellipse>
                            <path d="M356,44.0029851 C356,41.238806 357.34218,39 359.002844,39 C360.663507,39 362,41.238806 362,44.0029851 C362,46.7671642 360.65782,49 359.002844,49 C357.347867,49 356,46.7373134 356,44.0029851 Z" id="Path" fill="#19192B"></path>
                            <polyline id="Path" fill="#313154" points="184 144 205 144 205 94 184 94 184 144"></polyline>
                            <polyline id="Path" fill="#A9C2DC" points="186 144 207 144 207 94 186 94 186 144"></polyline>
                            <rect id="Rectangle" fill="#A9C2DC" x="197" y="142" width="38" height="3"></rect>
                            <rect id="Rectangle" fill="#313154" x="186" y="142" width="24" height="3"></rect>
                            <path d="M318.49692,49 C316.032854,49 314,46.5341812 314,43.4970853 C314,40.4599894 316.020534,38 318.49692,38 C320.973306,38 323,40.4658188 323,43.4970853 C323,46.5283519 320.979466,49 318.49692,49 Z M318.49692,38.5829359 C316.359343,38.5829359 314.616016,40.7922629 314.616016,43.4970853 C314.616016,46.2019078 316.359343,48.4170641 318.49692,48.4170641 C320.634497,48.4170641 322.383984,46.2077371 322.383984,43.4970853 C322.383984,40.7864335 320.640657,38.5829359 318.49692,38.5829359 Z" id="Shape" fill="#313154" fill-rule="nonzero"></path>
                            <path d="M320.607368,57.1620098 C324.976334,68.9394075 337.682843,65.2720153 345.290262,60.1853721 C346.166277,59.5989761 347.009564,58.9639132 347.816255,58.2830988 C354.687662,52.4212345 355.865281,27.8705781 354.499243,23.0999867 C353.133205,18.3293952 338.795693,13.2606418 330.817325,15.5803419 C322.838956,17.900042 315.708473,43.9415082 320.607368,57.1620098 Z" id="Path" fill="#FBAD83"></path>
                            <path d="M344.897459,59.9992825 C349.721536,60.053508 353.985051,57.0291662 355.300463,52.619868 C358.219736,42.7669396 361.912122,26.1808829 355.300463,21.7038815 C345.707681,15.2410184 337.525057,13.3902895 329.088851,16.4160844 C320.652646,19.4418794 320.244443,26.9916785 321.574197,29.4299404 C322.90395,31.8682024 325.804669,30.0703514 326.750959,33.6836794 C327.221011,35.4462784 326.274721,39.106609 325.192364,42.3439158 C324.650559,43.9874169 324.83874,45.7698182 325.713331,47.2783749 C326.587922,48.7869317 328.073067,49.8908014 329.824855,50.3343646 C329.110457,52.5860913 329.553494,55.0259168 331.02074,56.9201527 C332.487986,58.8143887 334.808268,59.9420488 337.283845,59.9640305 L344.897459,59.9992825 Z" id="Path" fill="#1A2249"></path>
                            <path d="M332.902934,47.8517844 C332.42365,50.8646683 328.673965,53.1928059 326.559481,52.987382 C324.444997,52.7819581 324.938377,50.0943287 325.41766,47.0814448 C325.896943,44.0685609 327.947992,41.7974855 330.013139,42.0143219 C332.078285,42.2311582 333.375168,44.8389005 332.902934,47.8517844 Z" id="Path" fill="#CFDCE3"></path>
                            <rect id="Rectangle" fill="#FFFFFF" x="50" y="144" width="371" height="8"></rect>
                            <rect id="Rectangle" fill="#A9C2DC" x="50" y="148" width="371" height="4"></rect>
                            <rect id="Rectangle" fill="#303D72" x="50" y="144" width="113" height="8"></rect>
                            <rect id="Rectangle" fill="#19192B" x="50" y="148" width="113" height="4"></rect>
                            <path d="M252.336856,133 L147.958236,133 C145.935137,133 144.295092,131.353794 144.295092,129.323096 L138,49.6769039 C138.003301,47.6475799 139.641414,46.0033132 141.663144,46 L246.053755,46 C248.076853,46 249.716899,47.646206 249.716899,49.6769039 L256,129.323096 C255.996699,131.35242 254.358586,132.996687 252.336856,133" id="Path" fill="#313154"></path>
                            <path d="M256.336856,133 L151.946245,133 C149.923147,133 148.283101,131.353794 148.283101,129.323096 L142,49.6769039 C142.003301,47.6475799 143.641414,46.0033132 145.663144,46 L250.053755,46 C252.075484,46.0033132 253.713598,47.6475799 253.716899,49.6769039 L260,129.323096 C259.996699,131.35242 258.358586,132.996687 256.336856,133" id="Path" fill="#A9C2DC"></path>
                            <path d="M177.82694,36.0299488 L130.486609,36.0299488 C129.56087,36.0299474 128.673135,36.3999404 128.019098,37.0583648 C127.365061,37.7167893 126.998423,38.6095862 127.000005,39.5399435 L132.960012,115.49599 C132.96001,116.426349 133.328166,117.318515 133.98332,117.975816 C134.638475,118.633117 135.526838,119.001585 136.452575,118.999995 L143.407903,118.999995 L138.002177,50.3574358 C138.005458,48.3375855 139.633921,46.700995 141.643741,46.6976973 L175.085337,46.6976973 L177.80906,36.0299488 M203.776808,36.0299488 L197.638001,36.0299488 L194.914278,46.6976973 L201.070965,46.6976973 L203.794688,36.0299488 M229.923356,36.0299488 L223.611709,36.0299488 L220.887986,46.6976973 L234,46.6976973 L233.433799,39.5099947 C233.435382,38.5796375 233.068743,37.6868405 232.414706,37.0284161 C231.76067,36.3699916 230.872934,35.9999986 229.947196,36" id="Shape" fill="#FFA9AD" fill-rule="nonzero"></path>
                            <path d="M145.099857,48 L141.922254,48 C139.757519,48.0032839 138.003534,49.6330319 138,51.6444371 L143.822397,120 L147,120 L141.177603,51.6444371 C141.181138,49.6330319 142.935122,48.0032839 145.099857,48" id="Path" fill="#D67F8A"></path>
                            <path d="M202.452707,48.0238588 L196.259961,48.0238588 L195.66047,50.4097424 C197.001751,50.6521135 198.286333,51.1394938 199.449255,51.8472372 C200.060517,52.3512573 200.593798,52.9421454 201.031912,53.6008616 L202.470692,48.0059647 M235.568608,48.0059647 L222.379799,48.0059647 L209.238949,99.0101897 L209.346857,99.1235192 C212.805922,103.054262 216.139094,120 216.139094,120 L154.847099,120 C154.847099,120 157.322999,103.895286 161.645331,100.572943 C162.080117,100.246137 162.53679,99.9492015 163.012171,99.6842018 L176.332869,48 L145.662892,48 C143.641301,48.0032839 142.003301,49.6330319 142,51.6444371 L147.437386,120 L237.492976,120 C239.429852,120 241,118.437763 241,116.510645 L235.550624,48.0238588" id="Shape" fill="#EE9CA6" fill-rule="nonzero"></path>
                            <path d="M283.009023,125 L226.389474,125 C225.863029,125 225.358146,124.790877 224.985893,124.418637 C224.613641,124.046396 224.404511,123.541529 224.404511,123.015101 L221,79.9848989 C221,79.458471 221.209129,78.9536042 221.581382,78.5813634 C221.953635,78.2091227 222.458518,78 222.984962,78 L279.604511,78 C280.130956,78 280.635839,78.2091227 281.008092,78.5813634 C281.380344,78.9536042 281.589474,79.458471 281.589474,79.9848989 L285,123.021116 C284.993384,124.115966 284.103928,125.00002 283.009023,125 Z" id="Path" fill="#F0F1F4"></path>
                            <path d="M163.009023,47 L106.389474,47 C105.293209,47 104.404511,46.1114442 104.404511,45.0153551 L101,1.98464491 C101,0.888555794 101.888698,2.01348305e-16 102.984962,0 L159.604511,0 C160.130956,-7.44780312e-15 160.635839,0.209095917 161.008092,0.581289037 C161.380344,0.953482157 161.589474,1.45828436 161.589474,1.98464491 L165,45.0153551 C164.996685,46.1124163 164.106264,47.000005 163.009023,47 Z" id="Path" fill="#F0F1F4"></path>
                            <rect id="Rectangle" fill="#313154" x="314" y="40" width="19" height="1"></rect>
                            <path d="M348.071894,70 C348.071894,70 341.160914,71.7825935 336.322031,71.3428871 C331.483148,70.9031807 330.147664,70.3684027 330.147664,70.3684027 C330.147664,70.3684027 314.265587,72.4896889 307.989411,77.0590703 C301.713236,81.6284516 296.13774,128.932541 296.46712,137.536526 C296.796499,146.14051 296,172 296,172 L362.660408,172 C362.660408,172 367.92449,86.3166725 362.660408,79.3051381 C357.396326,72.2936036 348.071894,70 348.071894,70 Z" id="Path" fill="#F9C200"></path>
                            <rect id="Rectangle" fill="#FFFFFF" x="192" y="143" width="54" height="3"></rect>
                            <path d="M331.53654,174 L335,144.295935 L303.732655,91 L301.92877,95.3264746 C298.561517,111.39795 296.252544,133.593603 296.46901,139.244387 C296.799722,147.921305 296,174 296,174 L331.53654,174 Z" id="Path" fill="#EDB607"></path>
                            <polygon id="Path" fill="#313154" points="167 145 192 145 192 142.787356 167 141"></polygon>
                            <polygon id="Path" fill="#5FD6E6" points="167 141 220.681177 141 246 144 192.318823 144"></polygon>
                            <path d="M231,137.467176 C231,137.467176 226.169373,133.593918 220.698766,133.050396 C215.228158,132.506873 204.890002,136.512054 203.628501,137.741576 C202.366999,138.971097 203.210051,140.269219 204.354633,140.944665 C205.499215,141.62011 217.037335,142.501355 220.280317,142.179463 C223.523298,141.857571 230.581551,144 230.581551,144 L231,137.467176 Z" id="Path" fill="#FBAD83"></path>
                            <path d="M306.172232,78 L270.861675,131.670817 L226.528303,133.783321 C226.528303,133.783321 223.089621,139.880777 226.528303,145 L282.089538,145 L299.70012,120.748209 C306.197203,111.800607 309.044248,100.686819 307.656169,89.6907918 L306.172232,78 Z" id="Path" fill="#F9C200"></path>
                            <path d="M371.034195,91 L307.545549,91 L299.602715,175.553756 L296.600887,184.67224 L282,194 L344.401984,194 L344.660141,193.91031 L347.788045,193.91031 C357.126103,193.910311 364.697024,186.372736 364.700339,177.072507 L374,93.9597701 C373.983794,92.3341908 372.66635,91.0194278 371.034195,91 Z" id="Path" fill="#A9C2DC"></path>
                            <path d="M306.103328,94.1153757 L296.872478,176.14126 C296.872478,182.743074 291.5364,188.094901 284.954015,188.094901 L270.943861,188.094901 C269.318011,188.094901 268,189.416803 268,191.047451 C268,192.678099 269.318011,194 270.943861,194 L285.979002,194 C295.247966,194.000001 302.762868,186.465594 302.766159,177.169273 L311.997009,94.0914684 C312.045787,93.0038498 311.495034,91.9772435 310.563189,91.4188186 C309.631343,90.8603938 308.468994,90.8603938 307.537149,91.4188186 C306.605303,91.9772435 306.05455,93.0038498 306.103328,94.0914684 L306.103328,94.1153757 Z" id="Path" fill="#303D72"></path>
                            <polygon id="Path" fill="#FFFFFF" points="152.046784 145 163.953216 145 166 121 150 121"></polygon>
                            <path d="M154.131759,145 L162.914436,145 L164,131.995597 C162.821988,131.582216 161.550892,131.552853 160.35643,131.911426 C157.931234,132.422464 156.805249,131.628852 154.980577,131.039656 C154.212598,130.793156 153.32336,131.791182 153,131.424437 L154.131759,145 Z" id="Path" fill="#313154"></path>
                            <path d="M352.113901,14.5471428 C349.398264,11.643243 345.634678,10 341.699395,10 C337.764113,10 334.000527,11.643243 331.28489,14.5471428 C330.928674,14.9330965 330.592947,15.3381882 330.279146,15.7606841 C328.144849,18.5465431 326.990081,21.9825433 327.000064,25.5175562 L327,39 L330.433876,39 L330.433876,25.4932853 C330.423027,22.3294912 331.615459,19.2845873 333.760566,16.9984962 C334.837716,15.8526065 336.136766,14.9475699 337.575251,14.3408408 C338.89584,13.7834607 340.311793,13.4988482 341.741054,13.5034973 C344.748946,13.5089497 347.622943,14.7723075 349.691785,16.9984962 C350.055251,17.3777943 350.391373,17.7833632 350.697529,18.2120375 C352.319608,19.1352601 353.891064,20.1480504 355.404885,21.2458908 C355.614961,21.4076495 355.813807,21.5840342 356,21.7737813 C355.361231,19.0541353 354.019324,16.5587077 352.113901,14.5471428 Z" id="Path" fill="#19192B"></path>
                            <path d="M335,44.0029268 C335,48.9726829 332.530264,53 329.485773,53 C326.441283,53 324,48.9492683 324,44.0029268 C324,39.0565854 326.469736,35 329.514227,35 C332.558717,35 335,39.0097561 335,44.0029268 Z" id="Path" fill="#19192B"></path>
                            <path d="M334,44.0029268 C334,48.9726829 331.541043,53 328.497161,53 C325.453278,53 323,48.9726829 323,44.0029268 C323,39.0331707 325.458957,35 328.497161,35 C331.535364,35 334,39.0097561 334,44.0029268 Z" id="Path" fill="#60D6E6"></path>
                            <path d="M328,44.0148898 C328,46.7665277 326.65782,49 325.002844,49 C323.347867,49 322,46.7665277 322,44.0148898 C322,41.2632519 323.325118,39 325.03128,39 C326.737441,39 328,41.2334723 328,44.0148898 Z" id="Path" fill="#19192B"></path>
                            <ellipse id="Oval" fill="#60D6E6" cx="323" cy="44" rx="3" ry="5"></ellipse>
                            <path d="M321.932338,59.9999939 L319.232774,59.9999939 C318.155347,60.0019287 317.147911,59.5442958 316.547448,58.7801702 C315.946986,58.0160447 315.832771,57.0463092 316.243008,56.1953339 L316.243008,56.1376875 L323.079652,44.4815929 C323.239994,44.2045893 323.561167,44.0216932 323.92219,44.0017998 C324.283213,43.9819064 324.629237,44.1280379 324.829919,44.3851481 C325.0306,44.6422583 325.05545,44.9712859 324.895108,45.2482895 L318.1462,56.875561 C318.00583,57.1863259 318.050795,57.5359539 318.266799,57.8132797 C318.482803,58.0906054 318.842967,58.2611182 319.232774,58.270603 L321.932338,58.270603 C322.491435,58.270603 322.944674,58.6577403 322.944674,59.1352984 C322.944674,59.6128565 322.491435,59.9999939 321.932338,59.9999939 Z" id="Path" fill="#19192B"></path>
                            <path d="M177.507679,92 C177.507679,92 164.256187,95.2148931 159.877433,98.5373477 C155.498679,101.859802 153,118 153,118 L215,118 C215,118 211.627996,100.999311 208.128632,97.0852678 C204.629267,93.171225 190.540839,92.197196 190.540839,92.197196 L177.489484,92.0239026" id="Path" fill="#303D72"></path>
                            <polyline id="Path" fill="#FFFFFF" points="180 93 183.368494 101 186.921004 97 189.957249 101 191 93.2003339 180 93"></polyline>
                            <path d="M178,77 L178,92.9741235 C178,92.9741235 180.818588,95.2495242 185.780032,94.9774024 C190.37013,94.7226502 191.100649,93.1420283 191.100649,93.1420283 L193,84.8567907 L178,77" id="Path" fill="#FBAD83"></path>
                            <path d="M191.374477,91.8976895 C188.832636,92.3953009 185.889121,90.99646 183.692469,89.4593937 C179.638075,86.6230087 178,81 178,81 L191.405858,84.5440989 L193,85.3181611 L191.374477,91.8976895" id="Path" fill="#E68D5C"></path>
                            <path d="M200.00554,83.7597466 C195.54539,93.3946455 184.469055,87.7048882 179.730516,82.8479265 C174.991977,77.9909648 175.643526,59.4263078 176.952547,55.9127611 C178.261569,52.3992143 189.225363,49.542178 195.012304,51.8095707 C200.799245,54.0769633 204.489382,74.1309264 200.00554,83.7597466" id="Path" fill="#FBAD83"></path>
                            <path d="M183.172207,68.011969 C183.172207,68.011969 184.420591,78.5088157 187.301477,79.3466484 C189.762235,80.0647907 193.189289,76.5578624 197.630656,76.3543888 C200.103416,76.2526519 200.99169,76.4860482 202,77.1622989 C201.771782,79.4686205 201.174006,81.7235072 200.229455,83.8410223 C195.710065,93.3264852 184.486611,87.7249752 179.679132,82.9433444 C177.356417,80.6273355 176.312096,75.1634695 176,69.7235415 L183.172207,68" id="Path" fill="#1A2249"></path>
                            <path d="M181.523808,71.8723886 C181.523808,71.8723886 182.988788,72.0082467 183.591269,71.1622215 C184.19375,70.3161962 182.468752,65.5241115 184.22546,60.44796 C185.462131,56.8230196 191.087401,54.7172195 195.691625,55.600297 C200.295848,56.4833745 201.456417,56.8785979 201.925718,55.600297 C202.395019,54.3219961 200.549525,51.2343126 198.951364,50.0424668 C197.353204,48.850621 189.844388,46.6521904 183.622979,49.1285125 C177.401569,51.6048347 176.133188,53.259833 174.744311,57.199717 C173.355434,61.1396011 174.2433,71.0078373 174.744311,71.6377247 C175.245321,72.2676121 181.549176,71.8847394 181.549176,71.8847394" id="Path" fill="#1A2249"></path>
                            <path d="M176,71.4047619 C176,73.8392857 179.599005,76 181.80613,76 C184.013255,76 183.999999,73.8392857 183.999999,71.4047619 C183.999999,68.9702381 182.210438,67 180.023198,67 C177.835957,67 176.046396,68.9761905 176.046396,71.4047619" id="Path" fill="#FBAD83"></path>
                            <path d="M202,77 C202,77 202,88.0245594 200.673323,90.0102426 C199.346647,91.9959259 194.985051,92.4320875 193.012647,91.599937 C191.040243,90.7677865 187.835086,87.7835227 187.036732,85.2526374 C186.238378,82.7217521 198.71853,79.1119406 198.71853,79.1119406 L202,77" id="Path" fill="#1A2249"></path>
                            <path d="M176.03507,69.5592698 C175.742412,70.5947786 177.344326,71.822677 178.499552,71.9867741 C179.654778,72.1508711 177.174893,70.7532171 177.475252,69.7233668 C177.77561,68.6935165 179.785704,68.195567 178.661284,68.0258114 C177.536864,67.8560559 176.350831,68.5407366 176.03507,69.5762454" id="Path" fill="#E68D5C"></path>
                            <path d="M201,80.3387142 C201,80.3387142 196.484478,80.4498548 195.750706,80.2222812 L195,80 C195.045264,81.236606 195.874018,82.3282558 197.105362,82.7732227 C197.755085,83.0570638 198.501329,83.0752266 199.165882,82.8233735 C199.830436,82.5715204 200.353636,82.0722621 200.610536,81.4448279 C200.887112,80.7197677 201,80.3387142 201,80.3387142" id="Path" fill="#FFFFFF"></path>
                            <polyline id="Path" fill="#FFB5B9" points="197 36 176.779952 36 174 46 194.220048 46 197 36"></polyline>
                            <path d="M195,46.0060005 L175.221421,46.0060005 L162,98 C167.170754,94.9997692 177.940678,92.3295638 177.940678,92.3295638 L177.940678,77.928456 C177.522713,76.487438 177.210474,75.0173552 177.006491,73.5301177 C175.977101,72.6840526 175.19167,71.5439649 175.19167,70.3318717 C175.19167,70.2358643 175.19167,70.1338565 175.19167,70.0378491 C174.751352,67.4936534 174.311035,60.0950842 175.423729,56.8368336 C176.73278,53.0085391 177.904977,51.4364182 183.754057,48.9942303 C185.681467,48.2346349 187.736246,47.8576998 189.805445,47.8841449 C191.342883,47.8862583 192.875403,48.0593172 194.375225,48.4001846 L194.970249,46" id="Path" fill="#F1ABB3"></path>
                            <path d="M178.362434,92 C178.362434,92 167.479798,94.6591588 162.25493,97.6469777 L157,118 L176.98557,118 L182,98.5732016 L178.362434,92" id="Path" fill="#4F5A87"></path>
                            <path d="M178,93 L181.757764,99 L183,94.7672727 C181.200541,94.5553936 179.491275,93.9474701 178.031056,93" id="Path" fill="#FFFFFF"></path>
                            <path d="M178.023033,79 L178.023033,93.0969163 C179.376749,94.1171974 180.961346,94.7718385 182.629559,95 L184,89.5433186 L183.648752,89.2613803 C180.107486,86.3950073 178.575816,80.8384728 178.43762,80.3098385 C178.28215,79.8986784 178.132438,79.4640235 178,79.0117474" id="Path" fill="#FCB995"></path>
                            <path d="M178.011019,80 C178.143251,80.5152672 179.608815,85.9312977 182.997245,88.7251908 L183.333333,89 L184,86.3148855 C182.43371,85.3806777 180.98782,84.2437361 179.69697,82.9312977 C178.943909,82.0854149 178.36629,81.0876518 178,80" id="Path" fill="#EA9E74"></path>
                            <path d="M178.005682,74.5334634 C178.200463,76.0326769 178.498616,77.5145977 178.897727,78.9672195 C179.028409,79.4329756 179.176136,79.8805854 179.329545,80.304 C179.701098,81.4607084 180.293001,82.5232825 181.068182,83.4251707 C182.395851,84.8109656 183.883068,86.0121361 185.494318,87 C183.88206,86.0161507 182.394615,84.8168281 181.068182,83.4312195 C179.477273,81.737561 178.517045,78.374439 178,74.5637073 M193,56 C189.482955,56.1209756 185.9375,58.0263415 185.045455,60.9358049 C184.366748,63.326692 184.157863,65.8407716 184.431818,68.3213659 C184.431818,68.3213659 185.352273,76.6021463 187.448864,79.118439 L193,56" id="Shape" fill="#FCB995" fill-rule="nonzero"></path>
                            <path d="M183.787659,68 C183.92075,69.5335277 184.108288,70.6413994 183.854204,70.9970845 C183.506941,71.4016419 182.995262,71.6418551 182.450696,71.6559767 C182.450696,73.7142857 182.251059,75.4052478 180.448276,75.4052478 C179.17501,75.3033397 177.967908,74.8155016 177,74.0116618 C177.550514,77.6851312 178.572898,80.9271137 180.266788,82.5597668 C181.679082,83.8954659 183.262811,85.0515889 184.979431,86 L187,78.4198251 C184.767695,75.9941691 183.787659,68.0116618 183.787659,68.0116618" id="Path" fill="#3C4364"></path>
                            <path d="M190.368467,48.0010792 C188.263676,47.9771725 186.173889,48.3506434 184.213324,49.1010793 C178.240286,51.4794579 177.044464,53.0789175 175.715099,56.8724313 C174.579979,60.0891883 175.029171,67.4205403 175.478363,69.9535134 C175.605836,67.6583781 177.196218,65.8448645 179.120459,65.8448645 C181.0447,65.8448645 182.762556,67.8189187 182.762556,70.2448648 L182.762556,71 C183.308972,70.9855998 183.822389,70.7406473 184.170833,70.3281081 C184.42578,69.9654053 184.237605,68.8356755 184.104061,67.2718916 C183.811382,64.8334694 184.034544,62.3621312 184.759639,60.011891 C185.730864,57.1518908 189.518645,55.2551339 193.257864,55.1599987 L195,48.5124306 C193.469949,48.1746601 191.906541,48.0031734 190.338117,48.0010792" id="Path" fill="#3C4364"></path>
                            <path d="M179.694859,72.9107143 L179.555556,72.9107143 C178.560531,72.7202381 177.180763,71.4464286 177.432836,70.3571429 C177.567139,69.456943 178.375487,68.758734 179.383085,68.672619 C179.486795,68.6641403 179.591149,68.6641403 179.694859,68.672619 C180.68325,68.8630952 178.932007,69.3809524 178.6733,70.4583333 C178.414594,71.5357143 180.305141,72.8392857 179.694859,72.8392857 M179.9801,67 C177.85738,67 176.119403,68.7857143 176,71.1130952 C176,71.2083333 176,71.3095238 176,71.4047619 C176,72.5952381 176.875622,73.7380952 178.023217,74.577381 C179.084545,75.3979674 180.408154,75.8959689 181.804312,76 C183.794362,76 183.9801,74.2738095 184,72.172619 L184,71.4047619 C184,68.9761905 182.208955,67 180.0199,67" id="Shape" fill="#FCB995" fill-rule="nonzero"></path>
                            <path d="M178.300594,68 C177.140022,68.0795502 176.204163,68.7306935 176.035089,69.5762712 C175.742269,70.6101695 177.345075,71.8361582 178.500945,72 L178.662767,72 C179.371701,72 177.190959,70.6892655 177.476074,69.740113 C177.761188,68.7909605 179.787814,68.2146893 178.662767,68.0451977 C178.542292,68.0371501 178.421069,68.0371501 178.300594,68.0451977" id="Path" fill="#EA9E74"></path>
                            <polyline id="Path" fill="#FFB5B9" points="224 36 203.779952 36 201 46 221.226131 46 224 36"></polyline>
                            <path d="M221,46 L201.342992,46 L199.923714,51.7027943 C200.798936,53.0220975 201.41987,54.5785105 201.136014,55.4114346 C200.98848,55.9790984 200.446338,56.3392833 199.882318,56.2443587 C199.781866,56.2501943 199.681174,56.2501943 199.580721,56.2443587 C202.01715,61.4060564 203.347723,69.9237694 202.537552,76.9641062 C202.537552,76.9641062 202.537552,88.6432831 201.201064,90.7468724 C200.296274,92.1877704 197.954465,92.8565416 195.931993,92.8565416 C195.096771,92.8794546 194.265204,92.7349028 193.483737,92.4309599 C192.745847,92.0775441 192.057618,91.6235626 191.437611,91.081258 L191,93.1362095 C191,93.1362095 204.453578,94.0785689 208.031342,98 L220.994086,46.0303987" id="Path" fill="#F1ABB3"></path>
                            <path d="M189.976331,92.0060143 L188.792899,99.0307657 L187.195266,97.418922 L182,118 L201.674556,118 L207,96.8114735 C203.420118,92.9382373 189.95858,92 189.95858,92" id="Path" fill="#4F5A87"></path>
                            <path d="M191,93 C191,93 190.674468,93.7876712 189.13617,94.4246575 L188,99.1643836 L189.697872,101 L190.974468,93" id="Path" fill="#FFFFFF"></path>
                            <path d="M191,92 L190.827869,92.5444646 C190.356099,92.6099227 189.875395,92.6427656 189.393443,92.6424682 L188.909836,92.6424682 L188,95 C189.97541,94.4936479 190.393443,93.8675136 190.393443,93.8675136 L191,92.0272232" id="Path" fill="#FCB995"></path>
                            <path d="M190.278431,89.0530035 L190,92 L190.231373,91.9999961 C190.461954,92.0005751 190.691937,91.9366302 190.917647,91.8091836 L191,90.7491143 C190.756863,90.2190797 190.513725,89.6254409 190.278431,89" id="Path" fill="#EA9E74"></path>
                            <path d="M198.16858,56 L193,77 C194.435775,76.2551615 195.995407,75.8042736 197.594294,75.6717949 C197.950351,75.6717949 198.271952,75.6717949 198.564838,75.6717949 C200.218784,75.6717949 200.953871,75.9290598 201.769358,76.5034188 C202.556131,69.5752137 201.263986,61.1931624 198.897924,56.1136752 C198.679696,56.1136752 198.438495,56.065812 198.157095,56.0239316" id="Path" fill="#FCB995"></path>
                            <path d="M198.715457,77.0217391 C198.416862,77.0217391 198.088993,77.0217391 197.725995,77.0217391 C196.095945,77.1420809 194.505914,77.5516606 193.042155,78.2282609 L192,82 C192.526932,81.7880435 193.059719,81.5869565 193.586651,81.3967391 C193.53879,81.2095532 193.51133,81.018374 193.504684,80.826087 L194.283372,81.0543478 C194.338509,81.0720998 194.395372,81.0848407 194.453162,81.0923913 C196.765808,80.2934783 198.727166,79.7554348 198.727166,79.7554348 L202,77.7554348 C201.168618,77.2119565 200.419204,77 198.733021,77" id="Path" fill="#3C4364"></path>
                            <path d="M199.389442,53.0107012 L198,56.905953 C198.364078,56.9434073 198.676145,56.975511 198.958492,56.9862123 C199.084704,56.991348 199.211218,56.991348 199.337431,56.9862123 C200.041681,57.0707 200.721057,56.7591602 200.912627,56.2638785 C201.269275,55.5308435 200.489107,54.1610847 199.389442,53" id="Path" fill="#3C4364"></path>
                            <path d="M201.983988,77 L199.000485,79.1073632 C199.000485,79.1073632 197.212518,79.6800162 195.104318,80.5160896 C195.965808,80.6132581 196.832187,80.6515123 197.698205,80.6306202 C198.851043,80.6306202 199.913149,80.6306202 199.913149,80.6306202 C199.913149,80.6306202 199.806405,81.0429304 199.544881,81.8274651 C199.193457,82.8232708 198.306328,83.4836381 197.313925,83.4881588 C196.948509,83.4829861 196.586938,83.4073369 196.246482,83.2648242 C195.258773,82.8825081 194.531088,81.9712534 194.330422,80.865408 C193.850073,81.0658365 193.364386,81.2777181 192.884037,81.5010528 L191,89.3807585 C191.320233,89.7186238 191.65114,90.0393095 191.982048,90.325636 C192.541618,90.8364349 193.16276,91.264042 193.828724,91.5969258 C194.534015,91.8832108 195.284524,92.0193648 196.038331,91.9977829 C197.863658,91.9977829 199.977196,91.3678645 200.793789,90.0106769 C201.989326,88.0292974 202,77.0286327 202,77.0286327" id="Path" fill="#3C4364"></path>
                            <path d="M195.016933,80.0264085 C195.02334,80.2132789 195.049814,80.3990729 195.095955,80.5809859 C195.30817,81.6009287 196.077737,82.4413965 197.122295,82.7940141 C197.482347,82.9254563 197.864727,82.995229 198.251176,83 C199.300697,82.9958304 200.238886,82.3867608 200.610536,81.4683099 C200.887112,80.7447183 201,80.3644366 201,80.3644366 C201,80.3644366 199.871119,80.3644366 198.657573,80.3644366 C197.741711,80.3837057 196.825466,80.3484232 195.914393,80.2588028 C195.858681,80.2514649 195.803861,80.2390829 195.750706,80.221831 L195,80" id="Path" fill="#FFFFFF"></path>
                            <polygon id="Path" fill="#00C99C" points="269 86 225.40534 86 225 83 268.59466 83"></polygon>
                            <polygon id="Path" fill="#00C99C" points="271 100 227.40534 100 227 97 270.59466 97"></polygon>
                            <polygon id="Path" fill="#00C99C" points="277 92 226.464277 92 226 89 276.529846 89"></polygon>
                            <polygon id="Path" fill="#FFB0B2" points="149 8 105.399519 8 105 5 148.594605 5"></polygon>
                            <polygon id="Path" fill="#FFB0B2" points="151 22 107.40534 22 107 19 150.59466 19"></polygon>
                            <polygon id="Path" fill="#FFB0B2" points="157 15 106.470154 15 106 12 156.535723 12"></polygon>
                            <path d="M73.0099188,198 C73.0099188,198 73.6943325,176.939178 73.0099188,145.909407 C72.325505,114.879636 107.194585,86.6093942 136,100.741529 C136,100.741529 117.508821,100.968503 104.348865,112.347081 C91.1889091,123.725659 83.7203939,130.397508 82.6517478,149.881456 C81.5831018,169.365405 77.6507244,198 77.6507244,198 L73.0099188,198 Z" id="Path" fill="#00B98F"></path>
                            <path d="M60.308807,196.940433 C60.308807,196.940433 58.0569194,135.520574 50.7205067,111.580471 C43.3840939,87.6403669 53.2094351,34 53.2094351,34 C53.2094351,34 53.5649963,75.4290674 59.5324984,95.8249159 C65.5000005,116.220765 75.7105329,142.567388 73.7549464,166.447924 C71.7993598,190.328461 66.7681688,197 66.7681688,197 L60.308807,196.940433 Z" id="Path" fill="#00B98F"></path>
                            <path d="M65.5300512,116.097116 L50,111 C50.0666006,111.234696 50.1332012,111.47541 50.2058564,111.704088 C57.7014523,135.889811 60.0022006,197.939822 60.0022006,197.939822 L66.6138248,198 C66.6138248,198 71.7602355,191.253995 73.7521992,167.134468 C75.1326482,150.374767 70.5190424,132.411496 65.5300512,116.097116 Z" id="Path" fill="#068E6A"></path>
                            <path d="M60.2182049,197.976068 C60.2182049,197.976068 69.9611889,167.211966 52.9797057,118.217949 C35.9982226,69.2239316 15,58 15,58 C15,58 33.93008,99.2820513 41.8499903,131.589744 C49.7699006,163.897436 49.8715145,198 49.8715145,198 L60.2182049,197.976068 Z" id="Path" fill="#00C99C"></path>
                            <path d="M83.781648,114 C76.9869106,122.63008 72.7759231,133.468691 73.0092188,144.661388 C73.6624468,175.868908 73.0092188,197 73.0092188,197 L77.5293231,197 C77.5293231,197 81.3495403,168.229067 82.3877062,148.65235 C83.1342525,134.58496 87.0886147,127.161171 94,119.845409 L83.781648,114 Z" id="Path" fill="#068E6A"></path>
                            <path d="M65.9562683,197 C65.9562683,197 71.1306715,167.260582 65.4207778,125.164815 C59.710884,83.0690479 114,46 114,46 C114,46 85.4866319,79.3892008 80.3362957,106.464938 C75.1859595,133.540676 79.2833648,167.020069 76.0162707,183.837933 C74.006677,194.198025 73.8321913,197 73.8321913,197 L65.9562683,197 Z" id="Path" fill="#00C99C"></path>
                            <path d="M76.8161505,199 C76.8161505,199 79.7037649,180.553161 79.3473438,153.211032 C78.9909228,125.868903 96.5763732,102.96547 79.3473438,62.4683341 C62.1183145,21.9711985 50,23.0271786 50,23.0271786 C50,23.0271786 70.4005723,21.2373818 84.7117822,46.7061902 C99.022992,72.1749987 101.98914,104.910382 92.5651265,136.321316 C83.1411133,167.73225 83.7331346,199 83.7331346,199 L76.8161505,199 Z" id="Path" fill="#00C99C"></path>
                            <path d="M61.308221,196.97036 C61.308221,196.97036 68.7621998,172.867143 58.8621132,133.357074 L43,129 C43.1850483,129.735071 43.3643139,130.470142 43.5435795,131.199285 C51.2057377,163.210444 51.2982619,197 51.2982619,197 L61.308221,196.97036 Z" id="Path" fill="#00B98F"></path>
                            <path d="M65.9607235,141.499503 C68.8372093,175.836349 65,199 65,199 L72.4470284,199 C72.4470284,199 72.6062016,196.220123 74.5105943,185.941738 C76.5059432,175.144363 75.5793282,157.433088 76,139 L65.9607235,141.499503 Z" id="Path" fill="#00B98F"></path>
                        </g>
                    </g>
                </g>
            </g>
        </g>
    </g>
</svg>